<svg xmlns="http://www.w3.org/2000/svg" viewBox="0 0 1157.3 200">
  <path fill="#0072f0" d="M291.51,0h32.36V200H291.51Z"/>
  <path fill="#0079ff" d="M481.7,143.37H381c3.63,18.14,17.58,27.34,36.82,27.34,14.23,0,27.62-5.58,35.43-16.18L474.73,171c-12,19-34.87,29-58.58,29-39,0-68.62-27.34-68.62-68.06,0-41.56,31.24-67.78,68.34-67.78,37.38,0,66.67,25.94,66.67,66.66A108.4,108.4,0,0,1,481.7,143.37Zm-31.52-22.59c-1.95-17.85-15.62-28.17-33.75-28.17-17.57,0-31.52,8.37-35.43,28.17Z"/>
  <path fill="#0079ff" d="M642.4,67V200H610V179.64C601.12,193.58,582.71,200,566.81,200c-34.31,0-64.16-26.5-64.16-68.06,0-41.84,29.57-67.78,63.88-67.78,16.46,0,34.59,6.41,43.51,20.08V67Zm-32.91,64.71c0-22.87-19-37.38-37.66-37.38-20.09,0-36.54,15.62-36.54,37.38s16.45,37.94,36.54,37.94C591.63,169.6,609.49,154.53,609.49,131.66Z"/>
  <path fill="#0072f0" d="M702,58.3V69.74h29V95.68H702V200H669.61V60c0-37.38,17.86-60,54.12-60h15.34l-8.93,30.13C708.11,30.13,701.69,42.4,702,58.3Z"/>
  <path fill="#1ce0ad" d="M762.73,0h32.36V200H762.73Z"/>
  <path fill="#1ce0ad" d="M818.75,23.71c0-11.44,9.77-19.8,21.2-19.8,11.72,0,20.92,8.36,20.92,19.8,0,11.16-9.2,19.8-20.92,19.8C828.52,43.51,818.75,34.87,818.75,23.71Zm5,46h32.35V200H823.78Z"/>
  <path fill="#1ce0ad" d="M1009.5,126.92V200H977.15V130c0-20.65-12.56-31.25-27.06-31.25-14.78,0-33.19,8.09-33.19,33.2V200H884.54V69.74H916.9V90.38C923.59,74.2,944,67,957.34,67,990.81,67,1009.5,89,1009.5,126.92Z"/>
  <path fill="#1ce0ad" d="M1116.29,200l-50.77-59.14V200h-32.35V0h32.35V111.3l37.38-41.56H1145l-53,56.9L1157.3,200Z"/>
  <path fill="#0079ff" d="M152.19,165.38h0l-4.83,6.66a.31.31,0,0,1-.07.09c-.19.26-.38.52-.57.8a4.73,4.73,0,0,1-.28.39,32.86,32.86,0,0,1-2.49,2.84,29,29,0,0,1-32.9,5.69,28.6,28.6,0,0,1-7.35-5,9.31,9.31,0,0,1-.72-.68,28.88,28.88,0,0,1-8.15-16c0,.29.22.88.23.9a11.17,11.17,0,0,0,18.59,4.65c3.7-3.72,16.4-20.76,26.09-34,6.61-9,11.82-16.26,11.82-16.26v41.72a37.11,37.11,0,0,0,.13,4.22c0,.2,0,.4.05.6a2.45,2.45,0,0,0,0,.27C151.86,163.3,152,164.35,152.19,165.38Z"/>
  <polygon fill="#0079ff" points="63.92 115.37 0 199.97 38.36 199.97 64.54 165.33 63.92 115.37"/>
  <path fill="#0079ff" d="M147.43,45.46a39.37,39.37,0,0,1-.88,5.77,41.62,41.62,0,0,1-10,19.11l-.05,0L101.4,116.54l-7,9.21V75l18.33-24.27a20.11,20.11,0,0,0,2-3c3-5.78,2.38-11.88-2.88-15.33a11.25,11.25,0,0,0-16.31,4.84,26.45,26.45,0,0,1,51.88,8.27Z"/>
  <path fill="#0079ff" d="M235.08,45.46a40.76,40.76,0,0,1-.88,5.77,41.64,41.64,0,0,1-10,19.11l0,0-35.1,46.15-7,9.21V75l18.34-24.27a20,20,0,0,0,1.95-3c3-5.78,2.38-11.88-2.87-15.33a11.26,11.26,0,0,0-16.32,4.84,26.45,26.45,0,0,1,51.89,8.27Z"/>
  <path fill="#0079ff" d="M239.52,165.77,235,172.05s0,.07-.07.09c-.19.26-.38.52-.57.8a3.16,3.16,0,0,1-.28.39,35.77,35.77,0,0,1-2.41,2.86,29.06,29.06,0,0,1-40.41.66c-.25-.21-.51-.44-.74-.67a27.39,27.39,0,0,1-8.05-16.05c.06.29.22.88.23.9a11.18,11.18,0,0,0,18.59,4.65c2.21-2.22,7.65-9.21,13.73-17.31Z"/>
  <path fill="#1de0ad" d="M235.05,45.49a26.45,26.45,0,0,0-51.88-8.28,8.51,8.51,0,0,0-.4,1.06,8.41,8.41,0,0,0-.22.83,23.38,23.38,0,0,0-.48,4.79V156c0,1.33.37,4.11.38,4.15a28.86,28.86,0,0,0,8.15,16,7.82,7.82,0,0,0,.72.69,28.92,28.92,0,0,0,40.25-.69,29.5,29.5,0,0,0,2.47-2.82c-3.18,4.39-6.6,9.09-7.2,9.9a41.82,41.82,0,0,1-74.67-17.91,41.22,41.22,0,0,1-.63-7.59V41.65a41.83,41.83,0,1,1,83.51,3.84Z"/>
  <path fill="#1de0ad" d="M147.43,45.46a26.45,26.45,0,0,0-51.88-8.27,9.52,9.52,0,0,0-.41,1.05c-.06.19-.13.49-.21.84a23.21,23.21,0,0,0-.48,4.78V156a22.69,22.69,0,0,0,.35,4,.86.86,0,0,0,0,.13,28.88,28.88,0,0,0,8.15,16,9.31,9.31,0,0,0,.72.68,28.6,28.6,0,0,0,7.35,5,29,29,0,0,0,32.9-5.69,32.86,32.86,0,0,0,2.49-2.84c-3.19,4.39-6.62,9.11-7.22,9.91a41.82,41.82,0,0,1-74.67-17.91,41.15,41.15,0,0,1-.63-7.59V41.62a41.83,41.83,0,1,1,83.51,3.84Z"/>
</svg>
