<svg viewBox="0 0 24 24" xmlns="http://www.w3.org/2000/svg"><path d="M18.6666667,10 C18.8507616,10 19,10.1492384 19,10.3333333 L19,18.6666667 C19,18.8507616 18.8507616,19 18.6666667,19 L5.33333333,19 C5.14923842,19 5,18.8507616 5,18.6666667 L5,10.3333333 C5,10.1492384 5.14923842,10 5.33333333,10 L18.6666667,10 Z M13.6666667,12 L10.3333333,12 C10.1576064,12 10.0136391,12.1359796 10.0009143,12.3084563 L10,12.3333333 L10,12.6666667 C10,12.8423936 10.1359796,12.9863609 10.3084563,12.9990857 L10.3333333,13 L13.6666667,13 C13.8423936,13 13.9863609,12.8640204 13.9990857,12.6915437 L14,12.6666667 L14,12.3333333 C14,12.1492384 13.8507616,12 13.6666667,12 Z M19.6666667,5 C19.8507616,5 20,5.14923842 20,5.33333333 L20,8.66666667 C20,8.85076158 19.8507616,9 19.6666667,9 L4.33333333,9 C4.14923842,9 4,8.85076158 4,8.66666667 L4,5.33333333 C4,5.14923842 4.14923842,5 4.33333333,5 L19.6666667,5 Z" fill="currentColor"></path></svg>