<svg viewBox="0 0 24 24" xmlns="http://www.w3.org/2000/svg"><path d="M5.23126927,17.7944881 C6.87293817,19.4018373 9.54280254,19.4018373 11.1844714,17.7944881 L19.1221011,10.0228926 C20.2926196,8.87683838 20.2926397,7.00559488 19.1221211,5.85954066 C17.9515623,4.71348645 16.0403411,4.71348645 14.8698024,5.85954066 L6.93217272,13.6311362 C6.23280416,14.3158758 6.23280416,15.4444038 6.93217272,16.1291434 C7.63156132,16.8139027 8.78417939,16.8139027 9.48354795,16.1291434 L16.2872419,9.46778424 C16.4427261,9.31975553 16.5047691,9.10123203 16.4496177,8.89587559 C16.3944664,8.69051914 16.2306635,8.53013879 16.0209211,8.47613624 C15.8111787,8.42213369 15.5879851,8.48287376 15.4367902,8.63510208 L8.63309622,15.2964809 C8.39016442,15.5343312 8.02557629,15.5343508 7.78264449,15.2964809 C7.53971269,15.0586306 7.53971269,14.7016687 7.78264449,14.4637987 L15.7202541,6.6922032 C16.4343561,5.99305792 17.5575674,5.99305792 18.2716494,6.69222283 C18.9857313,7.3913681 18.9857313,8.49106516 18.2716293,9.19021044 L10.3340197,16.9618256 C9.14876752,18.1222658 7.26695314,18.1222658 6.08172099,16.9618256 C4.89648884,15.8013657 4.89648884,13.9589139 6.08172099,12.7984736 L12.8853949,6.13709484 C13.0410853,5.98910893 13.1032851,5.77048552 13.0481587,5.5650038 C12.9930323,5.35952207 12.8291282,5.19904644 12.6192565,5.14507314 C12.4093849,5.09109985 12.1860907,5.15199862 12.0349432,5.3044323 L5.23124922,11.9657915 C3.58958025,13.5731407 3.58958025,16.1871389 5.23126927,17.7944881 L5.23126927,17.7944881 Z" fill="currentColor"></path></svg>