<svg viewBox="0 0 24 24" xmlns="http://www.w3.org/2000/svg"><g fill="none" fill-rule="evenodd"><path d="M0 0h24v24H0z"/><circle stroke="#currentColor" cx="12" cy="12" r="11.5"/><path d="M10.031 15.397c.17.17.255.37.255.603a.824.824 0 0 1-.255.603.824.824 0 0 1-.602.254.824.824 0 0 1-.603-.254A.824.824 0 0 1 8.57 16c0-.232.085-.433.255-.603.17-.17.37-.254.603-.254.232 0 .433.085.602.254zm6 0c.17.17.255.37.255.603a.824.824 0 0 1-.255.603.824.824 0 0 1-.602.254.824.824 0 0 1-.603-.254.824.824 0 0 1-.255-.603c0-.232.085-.433.255-.603.17-.17.37-.254.603-.254.232 0 .433.085.602.254zm1.112-6.683v3.429a.415.415 0 0 1-.11.284.423.423 0 0 1-.272.144l-6.99.817c.057.268.086.424.086.47 0 .07-.053.213-.16.428h6.16c.116 0 .217.042.301.127a.412.412 0 0 1 .128.301.412.412 0 0 1-.128.302.412.412 0 0 1-.3.127H9a.412.412 0 0 1-.301-.127.412.412 0 0 1-.128-.302c0-.049.018-.12.054-.21.036-.092.071-.173.107-.242l.144-.268c.06-.109.095-.175.104-.197L7.795 8.286H6.429a.412.412 0 0 1-.302-.128.412.412 0 0 1-.127-.3c0-.117.042-.217.127-.302a.412.412 0 0 1 .302-.127h1.714a.408.408 0 0 1 .321.147 1.043 1.043 0 0 1 .14.338 35.442 35.442 0 0 1 .068.372h8.042c.116 0 .217.042.302.127a.412.412 0 0 1 .127.301z" fill="currentColor"/></g></svg>