<svg viewBox="0 0 24 24" xmlns="http://www.w3.org/2000/svg">
  <g>
    <path fill="var(--cart-fill, #ffffff)" d="M6 4.7C6.2 4.7 6.3 4.8 6.3 4.9L6.8 7 19.7 7C19.9 7 20 7.1 20 7.3 20 7.4 20 7.4 20 7.4L18 16.1C18 16.2 17.8 16.3 17.7 16.3L8.2 16.3C8 16.3 7.9 16.2 7.8 16.1L6.1 8.6 5.4 5.7 4.3 5.7C4.2 5.7 4 5.5 4 5.4L4 5.3 4 5C4 4.8 4.1 4.7 4.3 4.7L6 4.7Z" fill-rule="nonzero" class="cart-shape"></path>
    <path fill="var(--cart-fill, #676a6c)" d="M10 17.3C10.6 17.3 11 17.8 11 18.3 11 18.9 10.6 19.3 10 19.3 9.4 19.3 9 18.9 9 18.3 9 17.8 9.4 17.3 10 17.3ZM16 17.3C16.6 17.3 17 17.8 17 18.3 17 18.9 16.6 19.3 16 19.3 15.4 19.3 15 18.9 15 18.3 15 17.8 15.4 17.3 16 17.3ZM6 4.7C6.2 4.7 6.3 4.8 6.3 4.9L6.8 7 19.7 7C19.9 7 20 7.1 20 7.3 20 7.4 20 7.4 20 7.4L18 16.1C18 16.2 17.8 16.3 17.7 16.3L8.2 16.3C8 16.3 7.9 16.2 7.8 16.1L6.1 8.6 5.4 5.7 4.3 5.7C4.2 5.7 4 5.5 4 5.4L4 5.3 4 5C4 4.8 4.1 4.7 4.3 4.7L6 4.7ZM18.8 8L7 8 7.3 9.2 7.3 9.2 8.7 15.3 17.1 15.3 18.8 8Z"></path>
  </g>
</svg>
