<svg viewBox="0 0 24 24" xmlns="http://www.w3.org/2000/svg"><g fill="none" fill-rule="evenodd"><path d="M7.00027581,12.0134985 C6.99659839,11.922343 7.02969514,11.8299897 7.09956605,11.7603947 L8.06106092,10.8026968 C8.0622971,10.8014655 8.06354043,10.8002457 8.06479078,10.7990373 L14.791525,4.09917287 C14.9242797,3.96694238 15.1395177,3.96694238 15.2722724,4.09917287 L16.2337673,5.0568708 C16.366522,5.18910129 16.366522,5.40348927 16.2337673,5.53571976 L9.74366667,12 L16.2337673,18.4642802 C16.366522,18.5965107 16.366522,18.8108987 16.2337673,18.9431292 L15.2722724,19.9008271 C15.1395177,20.0330576 14.9242797,20.0330576 14.791525,19.9008271 L8.06483333,13.2006667 L8.06106092,13.1973032 L7.09956605,12.2396053 C7.03668223,12.1769698 7.00358548,12.0959 7.00027581,12.0134985 Z" fill="currentColor"></path></g></svg>