<svg xmlns="http://www.w3.org/2000/svg" viewBox="0 0 24 24"><path d="M9,7 C9.74389507,7 10.4498471,7.16245353 11.0843144,7.45381892 C9.80793306,8.55411296 9,10.182705 9,12 C9,13.817295 9.80793306,15.445887 11.0842026,16.5461797 C10.4498471,16.8375465 9.74389507,17 9,17 C6.23857625,17 4,14.7614237 4,12 C4,9.23857625 6.23857625,7 9,7 Z M15,17 C12.2385763,17 10,14.7614237 10,12 C10,9.3112453 12.1223067,7.11818189 14.7831104,7.00461951 L15,7 C17.7614237,7 20,9.23857625 20,12 C20,14.6887547 17.8776933,16.8818181 15.2168896,16.9953805 L15,17 Z M15,9 C13.3431458,9 12,10.3431458 12,12 C12,13.6568542 13.3431458,15 15,15 C16.6568542,15 18,13.6568542 18,12 C18,10.3431458 16.6568542,9 15,9 Z" fill="currentColor"></path></svg>
