<svg viewBox="0 0 24 24" xmlns="http://www.w3.org/2000/svg"><g fill-rule="evenodd"><path d="M18.6666667,4 C18.8507616,4 19,4.14923842 19,4.33333333 L19,15.3333333 L19.6666667,15.3333333 C19.8507616,15.3333333 20,15.4825718 20,15.6666667 L20,19.6666667 C20,19.8507616 19.8507616,20 19.6666667,20 L13.5,20 L13.5,16.3333333 C13.5,16.1576064 13.3640204,16.0136391 13.1915437,16.0009143 L13.1666667,16 L10.8333333,16 C10.6576064,16 10.5136391,16.1359796 10.5009143,16.3084563 L10.5,16.3333333 L10.5,20 L4.33333333,20 C4.14923842,20 4,19.8507616 4,19.6666667 L4,15.6666667 C4,15.4825718 4.14923842,15.3333333 4.33333333,15.3333333 L5,15.3333333 L5,4.33333333 C5,4.14923842 5.14923842,4 5.33333333,4 L18.6666667,4 Z M9.33333333,6 C9.51742825,6 9.66666667,6.14923842 9.66666667,6.33333333 L9.66666667,7.66666667 C9.66666667,7.85076158 9.51742825,8 9.33333333,8 L7.33333333,8 C7.14923842,8 7,7.85076158 7,7.66666667 L7,6.33333333 C7,6.14923842 7.14923842,6 7.33333333,6 L9.33333333,6 Z M9.33333333,9 C9.51742825,9 9.66666667,9.14923842 9.66666667,9.33333333 L9.66666667,10.6666667 C9.66666667,10.8507616 9.51742825,11 9.33333333,11 L7.33333333,11 C7.14923842,11 7,10.8507616 7,10.6666667 L7,9.33333333 C7,9.14923842 7.14923842,9 7.33333333,9 L9.33333333,9 Z M9.33333333,12 C9.51742825,12 9.66666667,12.1492384 9.66666667,12.3333333 L9.66666667,13.6666667 C9.66666667,13.8507616 9.51742825,14 9.33333333,14 L7.33333333,14 C7.14923842,14 7,13.8507616 7,13.6666667 L7,12.3333333 C7,12.1492384 7.14923842,12 7.33333333,12 L9.33333333,12 Z M13,6 C13.1840949,6 13.3333333,6.14923842 13.3333333,6.33333333 L13.3333333,7.66666667 C13.3333333,7.85076158 13.1840949,8 13,8 L11,8 C10.8159051,8 10.6666667,7.85076158 10.6666667,7.66666667 L10.6666667,6.33333333 C10.6666667,6.14923842 10.8159051,6 11,6 L13,6 Z M13,9 C13.1840949,9 13.3333333,9.14923842 13.3333333,9.33333333 L13.3333333,10.6666667 C13.3333333,10.8507616 13.1840949,11 13,11 L11,11 C10.8159051,11 10.6666667,10.8507616 10.6666667,10.6666667 L10.6666667,9.33333333 C10.6666667,9.14923842 10.8159051,9 11,9 L13,9 Z M13,12 C13.1840949,12 13.3333333,12.1492384 13.3333333,12.3333333 L13.3333333,13.6666667 C13.3333333,13.8507616 13.1840949,14 13,14 L11,14 C10.8159051,14 10.6666667,13.8507616 10.6666667,13.6666667 L10.6666667,12.3333333 C10.6666667,12.1492384 10.8159051,12 11,12 L13,12 Z M16.6666667,6 C16.8507616,6 17,6.14923842 17,6.33333333 L17,7.66666667 C17,7.85076158 16.8507616,8 16.6666667,8 L14.6666667,8 C14.4825718,8 14.3333333,7.85076158 14.3333333,7.66666667 L14.3333333,6.33333333 C14.3333333,6.14923842 14.4825718,6 14.6666667,6 L16.6666667,6 Z M16.6666667,9 C16.8507616,9 17,9.14923842 17,9.33333333 L17,10.6666667 C17,10.8507616 16.8507616,11 16.6666667,11 L14.6666667,11 C14.4825718,11 14.3333333,10.8507616 14.3333333,10.6666667 L14.3333333,9.33333333 C14.3333333,9.14923842 14.4825718,9 14.6666667,9 L16.6666667,9 Z M16.6666667,12 C16.8507616,12 17,12.1492384 17,12.3333333 L17,13.6666667 C17,13.8507616 16.8507616,14 16.6666667,14 L14.6666667,14 C14.4825718,14 14.3333333,13.8507616 14.3333333,13.6666667 L14.3333333,12.3333333 C14.3333333,12.1492384 14.4825718,12 14.6666667,12 L16.6666667,12 Z" fill="currentColor"></path></g></svg>