<svg viewBox="0 0 24 24" xmlns="http://www.w3.org/2000/svg"><g fill="none" fill-rule="evenodd"><path d="M0 0h24v24H0z"/><path d="M19.485 6.467H12.01L10.142 4.6H4.537c-1.001 0-1.869.867-1.869 1.868v11.211c0 1 .867 1.869 1.869 1.869h14.948c1 0 1.868-.868 1.868-1.869V8.335c0-1-.867-1.868-1.868-1.868zM14.813 9.27c1.001 0 1.869.867 1.869 1.869 0 1.001-.867 1.868-1.869 1.868-1 0-1.868-.867-1.868-1.868 0-1.002.867-1.869 1.868-1.869zm3.737 7.474h-7.474v-.934c0-1.268 2.47-1.869 3.737-1.869s3.736.601 3.736 1.869v.934h.001z" fill="currentColor" fill-rule="nonzero"/></g></svg>