<svg viewBox="0 0 24 24" xmlns="http://www.w3.org/2000/svg"><path d="M12.0279563,11.1277519 L12.0524474,11.1440059 L12.0524474,11.1440059 L12.0691771,11.169662 L12.3351578,11.8288526 C13.4450526,14.6044327 14,16.3281484 14,17 C14,18.1045695 13.1045695,19 12,19 C10.8954305,19 10,18.1045695 10,17 C10,16.3868015 10.4622824,14.8973789 11.3868471,12.5317322 L11.9312967,11.1684977 C11.9467369,11.1305542 11.9900128,11.1123117 12.0279563,11.1277519 Z M12,16 C11.4477153,16 11,16.4477153 11,17 C11,17.5522847 11.4477153,18 12,18 C12.5522847,18 13,17.5522847 13,17 C13,16.4477153 12.5522847,16 12,16 Z M6.14047441,14.2966462 L6.21875062,14.6110366 L6.21875062,14.6110366 L6.30262163,14.8866356 L6.30262163,14.8866356 L6.39361491,15.1419363 L6.39361491,15.1419363 L6.5166321,15.4393898 L6.5166321,15.4393898 L6.63921155,15.6976941 L6.63921155,15.6976941 C6.71410203,15.8462081 6.79486157,15.9909877 6.88127845,16.1319237 L6.98698011,16.2981297 L6.98698011,16.2981297 L7.08425758,16.441167 L7.25598028,16.6739181 L7.25598028,16.6739181 L7.4478983,16.9089158 L7.4478983,16.9089158 L7.68095906,17.1669818 C7.71929825,17.2207658 7.7141832,17.2957396 7.66612103,17.343799 L6.49817972,18.5116245 C6.41769881,18.5879766 6.29367104,18.5899428 6.21098062,18.5197578 L6.19392489,18.5036146 C4.83368321,17.0685017 4,15.1316094 4,13 C4,8.62590478 7.51044573,5.0717181 11.8677054,5.00107177 L12,5 C16.418278,5 20,8.581722 20,13 C20,15.096665 19.1934266,17.0049447 17.873637,18.4314819 L17.8060751,18.5036146 C17.7297231,18.5840956 17.6059706,18.5925849 17.5197018,18.526848 L17.4977633,18.507673 L16.333879,17.343799 C16.2858168,17.2957396 16.2807017,17.2207658 16.3190409,17.1669818 L16.3392361,17.1438085 C16.4580036,17.0194755 16.571481,16.8900461 16.6793073,16.7558817 L16.8748268,16.4987844 L16.8748268,16.4987844 L17.0198973,16.2876735 L17.0198973,16.2876735 L17.1972834,16.0000404 L17.1972834,16.0000404 L17.320596,15.7759689 L17.3884702,15.6420765 L17.3884702,15.6420765 L17.4247421,15.5669183 C17.4942081,15.4203648 17.557863,15.2706719 17.6154713,15.1180124 L17.7347225,14.7697782 L17.7347225,14.7697782 C17.7814074,14.618344 17.8222746,14.4642657 17.8570443,14.3078609 L17.9170234,14.0001084 C17.9715542,13.6753441 18,13.340994 18,13 C18,12.7729031 17.9873833,12.548753 17.9628125,12.3282124 L17.9170412,12 L17.9060197,11.9364082 L17.8552941,11.6842936 L17.8552941,11.6842936 L17.7661495,11.3356254 L17.7661495,11.3356254 L17.7041593,11.1339798 L17.7041593,11.1339798 L17.6455584,10.9635085 L17.6455584,10.9635085 L17.5769833,10.7826922 L17.5769833,10.7826922 L17.4990536,10.5961267 L17.4990536,10.5961267 L17.4651573,10.5201427 L17.3514313,10.283827 L17.3514313,10.283827 L17.2024376,10.0088878 L17.2024376,10.0088878 L17.0486595,9.75657656 L17.0486595,9.75657656 C16.6641398,9.15926766 16.176482,8.63459261 15.6108614,8.20773806 L15.4675645,8.10287679 L15.2501332,7.95566626 L15.2501332,7.95566626 L15.1042644,7.8644216 L15.1042644,7.8644216 L14.9469685,7.77237575 L14.9469685,7.77237575 L14.7162047,7.64858741 L14.7162047,7.64858741 L14.4420274,7.5178079 L14.4420274,7.5178079 L14.1501741,7.39677161 L14.1501741,7.39677161 L13.9053823,7.30886066 L13.9053823,7.30886066 L13.6167533,7.22034377 L13.6167533,7.22034377 L13.4321137,7.17197681 L13.4321137,7.17197681 L13.1703875,7.11408861 L13.1703875,7.11408861 L13.0001282,7.08297995 C12.6753441,7.02844579 12.340994,7 12,7 C11.7729031,7 11.548753,7.01261673 11.3282124,7.03718749 L11.0000107,7.08295664 L10.6947292,7.14238103 L10.5648064,7.17273379 L10.5648064,7.17273379 L10.3356376,7.23384668 L10.3356376,7.23384668 L10.1339908,7.29583696 L10.1339908,7.29583696 L9.97163171,7.35151765 L9.97163171,7.35151765 L9.78270519,7.42301147 L9.78270519,7.42301147 L9.59612665,7.50094639 L9.59612665,7.50094639 L9.52015585,7.53483663 L9.28382865,7.64856797 L9.28382865,7.64856797 L9.00889936,7.7975557 L9.00889936,7.7975557 L8.76778577,7.94414195 L8.52348743,8.10923656 L8.38913863,8.20773806 C7.98512392,8.51263417 7.62088612,8.86743869 7.30559251,9.26298435 L7.10922021,9.52351039 L7.00894236,9.6687945 L7.00894236,9.6687945 L6.8674606,9.89072378 L6.8674606,9.89072378 L6.77233396,10.0531056 L6.77233396,10.0531056 C6.68654295,10.2049845 6.60729256,10.3607261 6.53481701,10.520199 L6.42296414,10.7828241 L6.35441527,10.963584 L6.35441527,10.963584 L6.28296458,11.17384 L6.28296458,11.17384 L6.20590797,11.4358928 C6.1616677,11.6002022 6.12427193,11.767074 6.09398027,11.9364082 L6.08295931,12 C6.02838765,12.3253396 6,12.6593547 6,13 C6,13.2273293 6.01264257,13.4517058 6.03726298,13.6724648 L6.08298227,14.0001421 C6.09970953,14.0998319 6.11889506,14.1986881 6.14047441,14.2966462 Z" fill="currentColor"></path></svg>