<svg viewBox="0 0 24 24" xmlns="http://www.w3.org/2000/svg"><g fill="none" fill-rule="evenodd"><path fill="none" d="M0 0h24v24H0z"/><path d="M12 5a7 7 0 110 14 7 7 0 010-14zm3.4 4.572l-.972-.971a.343.343 0 00-.465-.02l-.02.02L12 10.543 10.057 8.6a.343.343 0 00-.464-.02l-.021.02-.971.97a.343.343 0 00-.02.466l.02.02L10.543 12 8.6 13.943a.343.343 0 00-.02.464l.02.021.97.971c.128.128.33.134.466.02l.02-.02L12 13.457l1.943 1.942c.127.128.33.134.464.02l.021-.02.971-.97a.343.343 0 00.02-.466l-.02-.02L13.457 12l1.942-1.943a.343.343 0 00.02-.464l-.02-.021-.97-.971.97.97z" fill="currentColor"/></g></svg>