<svg viewBox="0 0 24 24" xmlns="http://www.w3.org/2000/svg"><path d="M12,4 C16.418278,4 20,7.581722 20,12 C20,16.418278 16.418278,20 12,20 C7.581722,20 4,16.418278 4,12 C4,7.581722 7.581722,4 12,4 Z M12,6 C8.6862915,6 6,8.6862915 6,12 C6,15.3137085 8.6862915,18 12,18 C15.3137085,18 18,15.3137085 18,12 C18,8.6862915 15.3137085,6 12,6 Z M14.9060381,9.30478038 C14.926227,9.37582121 14.9219805,9.45404171 14.8939359,9.52770109 L13.4142136,13.4142136 L9.52770109,14.8939359 C9.3396856,14.9655196 9.14549394,14.8765513 9.09396187,14.6952196 C9.073773,14.6241788 9.07801954,14.5459583 9.10606407,14.4722989 L10.5857864,10.5857864 L14.4722989,9.10606407 C14.6603144,9.03448043 14.8545061,9.12344875 14.9060381,9.30478038 Z M11.2928932,11.2928932 C10.9023689,11.6834175 10.9023689,12.3165825 11.2928932,12.7071068 C11.6834175,13.0976311 12.3165825,13.0976311 12.7071068,12.7071068 C13.0976311,12.3165825 13.0976311,11.6834175 12.7071068,11.2928932 C12.3165825,10.9023689 11.6834175,10.9023689 11.2928932,11.2928932 Z" fill="currentColor"></path></svg>