<svg viewBox="0 0 24 24" xmlns="http://www.w3.org/2000/svg"><path d="M13.3272981,6 C14.6559889,6 15.9220056,6.55637513 16.9122563,7.56796628 C16.9623955,7.63119073 16.9874652,7.70706006 16.9874652,7.7829294 C16.9763231,7.86160871 16.955277,7.930297 16.9067196,7.98011335 L15.7966574,9.00948367 C15.6963788,9.11064278 15.5208914,9.11064278 15.408078,8.99683878 C14.8189415,8.40252898 14.0793872,8.07376185 13.3147632,8.07376185 C12.3329994,8.07376185 11.4094818,8.61237332 10.7919599,9.5 L12.6666667,9.5 C12.8507616,9.5 13,9.64923842 13,9.83333333 L13,11.1666667 C13,11.3507616 12.8507616,11.5 12.6666667,11.5 L10.1112781,11.5000797 C10.0926483,11.6730544 10.0833333,11.846017 10.0833333,12.0189673 C10.0833333,12.1795319 10.0913619,12.3398928 10.1074189,12.5000498 L12.6666667,12.5 C12.8507616,12.5 13,12.6492384 13,12.8333333 L13,14.1666667 C13,14.3507616 12.8507616,14.5 12.6666667,14.5 L10.7726817,14.5000415 C11.3922208,15.4113496 12.3336596,15.9515279 13.3147632,15.9515279 C14.0668524,15.9515279 14.8189415,15.6354057 15.408078,15.0410959 C15.5024578,14.9339862 15.6634587,14.9276857 15.7761266,15.0116521 L15.7966574,15.028451 L16.8997214,16.0021075 C16.9623955,16.0653319 17,16.1412013 17,16.2170706 C17,16.3055848 16.9623955,16.3814542 16.9122563,16.4320337 C15.9345404,17.4436249 14.6559889,18 13.3272981,18 C11.2526124,18 9.35732997,16.6087264 8.48984305,14.5001548 L7.33333333,14.5 C7.14923842,14.5 7,14.3507616 7,14.1666667 L7,12.8333333 C7,12.6492384 7.14923842,12.5 7.33333333,12.5 L8.02094602,12.5000639 L8.00881261,12.2987794 C8.00357356,12.198972 8,12.1008448 8,12.0063224 C8,11.8883035 8.00557103,11.7646646 8.01299907,11.6354057 L8.02116667,11.5 L7.33333333,11.5 C7.14923842,11.5 7,11.3507616 7,11.1666667 L7,9.83333333 C7,9.64923842 7.14923842,9.5 7.33333333,9.5 L8.48977425,9.5000124 C9.35722976,7.39134715 11.2525575,6 13.3272981,6 Z" fill="currentColor"></path></svg>