<svg viewBox="0 0 24 24" xmlns="http://www.w3.org/2000/svg"><g fill="none" fill-rule="evenodd"><path d="M0 0h24v24H0z"/><path d="M12.679 3.399c-4.404 0-8.008 3.603-8.008 8.008H2l3.47 3.47.067.133 3.603-3.603H6.472A6.194 6.194 0 0 1 12.678 5.2c3.403 0 6.206 2.802 6.206 6.206 0 3.403-2.803 6.206-6.206 6.206-1.735 0-3.27-.734-4.404-1.802l-1.268 1.268a7.967 7.967 0 0 0 5.672 2.335c4.404 0 8.008-3.603 8.008-8.008 0-4.405-3.603-8.008-8.008-8.008zm-.868 4.47v4.472l3.804 2.268.667-1.068-3.137-1.868V7.869h-1.334z" fill="currentColor" fill-rule="nonzero"/></g></svg>