<svg viewBox="0 0 24 24" xmlns="http://www.w3.org/2000/svg"><path d="M8.64423077,4 C6.08653846,4 4,6.08653846 4,8.64423077 L4,15.3557692 C4,17.9134615 6.08653846,20 8.64423077,20 L15.3557692,20 C17.9134615,20 20,17.9134615 20,15.3557692 L20,8.64423077 C20,6.08653846 17.9134615,4 15.3557692,4 L8.64423077,4 Z M8.64423077,5.23076923 L15.3557692,5.23076923 C17.2475963,5.23076923 18.7692308,6.75 18.7692308,8.64423077 L18.7692308,15.3557692 C18.7692308,17.2475963 17.25,18.7692308 15.3557692,18.7692308 L8.64423077,18.7692308 C6.75240369,18.7692308 5.23076923,17.25 5.23076923,15.3557692 L5.23076923,8.64423077 C5.23076923,6.75240369 6.75,5.23076923 8.64423077,5.23076923 Z M16.6153846,6.46153846 C16.1057692,6.46153846 15.6923077,6.875 15.6923077,7.38461538 C15.6923077,7.89423077 16.1057692,8.30769231 16.6153846,8.30769231 C17.125,8.30769231 17.5384615,7.89423077 17.5384615,7.38461538 C17.5384615,6.875 17.125,6.46153846 16.6153846,6.46153846 Z M12,7.69230769 C9.62740369,7.69230769 7.69230769,9.62740369 7.69230769,12 C7.69230769,14.3725963 9.62740369,16.3076923 12,16.3076923 C14.3725963,16.3076923 16.3076923,14.3725963 16.3076923,12 C16.3076923,9.62740369 14.3725963,7.69230769 12,7.69230769 Z M12,8.92307692 C13.7067311,8.92307692 15.0769231,10.2932695 15.0769231,12 C15.0769231,13.7067311 13.7067311,15.0769231 12,15.0769231 C10.2932695,15.0769231 8.92307692,13.7067311 8.92307692,12 C8.92307692,10.2932695 10.2932695,8.92307692 12,8.92307692 Z" fill="currentColor"></path></svg>