<svg viewBox="0 0 24 24" xmlns="http://www.w3.org/2000/svg"><g fill="none" fill-rule="evenodd"><path d="M0 0h24v24H0z"/><path d="M17.483 14.276l-2.803-2.803 1.068-1.068 1.735 1.736 3.204-3.204 1.068 1.068-4.272 4.271zm-1.536-7.607v-.801a.74.74 0 0 0-.734-.734H6.138c-.467 0-.8.333-.8.734v6.073c0 .4.333.734.733.734h4.605a6.052 6.052 0 0 1 5.272-6.006zm-5.204 6.806h-6.14V4.399h12.079v2.269c.534 0 1 .067 1.535.2v-2.47c0-.8-.668-1.534-1.535-1.534H4.603A1.51 1.51 0 0 0 3.07 4.399v9.075c0 .8.667 1.535 1.534 1.535h6.473c-.133-.534-.267-1.068-.334-1.535zm10.476-.801v-.133l-2.268 2.202-.267.266-.133.134c-.534.4-1.135.6-1.802.6a2.99 2.99 0 0 1-3.003-3.002 2.99 2.99 0 0 1 3.003-3.003c.333 0 .667.067 1 .2l1.135-1.135c-.667-.334-1.335-.534-2.135-.534-2.47 0-4.538 2.069-4.538 4.538 0 1.602.8 3.003 2.068 3.804l-.534 3.67a.672.672 0 0 0 .334.734c.266.134.6.134.8 0l1.869-1.201 1.869 1.201c.133.067.266.134.4.134s.267-.067.401-.134c.134-.066.4-.467.333-.734l-.534-3.67c1.202-.934 2.002-2.335 2.002-3.937z" fill="currentColor" fill-rule="nonzero"/></g></svg>