<svg viewBox="0 0 24 24" xmlns="http://www.w3.org/2000/svg"><g fill="none" fill-rule="evenodd"><path d="M0 0h24v24H0z"/><path d="M15.88 6.668v-.867c0-.468-.333-.801-.8-.801H5.804c-.467.067-.8.4-.8.8v6.207c0 .467.333.8.8.8h4.671c0-3.203 2.403-5.738 5.406-6.139zm-5.338 6.94H4.269V4.265h12.412v2.336c.534 0 1.068.066 1.535.2V4.265c0-.868-.734-1.535-1.535-1.535H4.27a1.51 1.51 0 0 0-1.534 1.535v9.276a1.51 1.51 0 0 0 1.534 1.534h6.674c-.267-.4-.334-.934-.401-1.468v.001zm7.675-.8a1.535 1.535 0 1 1-3.07-.001 1.535 1.535 0 0 1 3.07 0zm3.069 0c0-2.537-2.069-4.672-4.671-4.672a4.642 4.642 0 0 0-4.672 4.671c0 1.602.868 3.003 2.069 3.871l-.534 3.804c-.067.333.067.6.4.8.2.134.601.134.868 0l1.869-1.267 1.868 1.268c.134.066.334.133.468.133s.333-.067.4-.133c.2-.134.401-.468.401-.801l-.534-3.804c1.268-.867 2.069-2.269 2.069-3.87h-.001zm-4.605 3.135a3.061 3.061 0 0 1-3.07-3.069c0-1.668 1.402-3.07 3.07-3.07 1.669 0 3.07 1.402 3.07 3.07s-1.401 3.07-3.07 3.07z" fill="currentColor" fill-rule="nonzero"/></g></svg>