<svg viewBox="0 0 24 24" xmlns="http://www.w3.org/2000/svg"><path d="M12,4 C14.7614237,4 17,6.23857625 17,9 L17,10 L18.6666667,10 C18.8507616,10 19,10.1492384 19,10.3333333 L19,19.6666667 C19,19.8507616 18.8507616,20 18.6666667,20 L5.33333333,20 C5.14923842,20 5,19.8507616 5,19.6666667 L5,10.3333333 C5,10.1492384 5.14923842,10 5.33333333,10 L7,10 L7,9 C7,6.23857625 9.23857625,4 12,4 Z M12,12 C10.8954305,12 10,12.8954305 10,14 C10,14.7212968 10.3818333,15.3534116 10.9543951,15.7052398 L11,15.7324299 L11,17.6666667 C11,17.8423936 11.1359796,17.9863609 11.3084563,17.9990857 L11.3333333,18 L12.6666667,18 C12.8423936,18 12.9863609,17.8640204 12.9990857,17.6915437 L13,17.6666667 L13.0001765,15.7323335 C13.5978806,15.3864989 14,14.7402095 14,14 C14,12.8954305 13.1045695,12 12,12 Z M12,5.66666667 C10.1590508,5.66666667 8.66666667,7.15905083 8.66666667,9 L8.66666667,10 L15.3333333,10 L15.3333333,9 C15.3333333,7.15905083 13.8409492,5.66666667 12,5.66666667 Z" fill="currentColor"></path></svg>