<svg viewBox="0 0 24 24" xmlns="http://www.w3.org/2000/svg"><g fill="none" fill-rule="evenodd"><path d="M0 0h24v24H0z"/><path d="M20.953 6.668c-.267-.2-.534-.2-.868-.067-.734.267-1.334.401-1.802.401-.266-.133-1.601-.534-2.536-.534-.734 0-1.334.2-1.868.467v5.806c.534.2 1.134.267 1.868.267 3.337 0 5.606-4.204 5.606-5.605 0-.267-.2-.534-.401-.734v-.001zM10.142 12.74V6.934c-.534-.267-1.135-.467-1.869-.467-.934 0-2.268.4-2.602.4-.468 0-1.068-.133-1.802-.4-.267 0-.534 0-.868.2-.133.2-.333.467-.333.734 0 1.401 2.269 5.605 5.605 5.605.734 0 1.335-.067 1.869-.267v.001zm2.803-6.54c.534-.266.934-.933.934-1.6 0-1.001-.868-1.87-1.869-1.87s-1.869.868-1.869 1.87c0 .667.401 1.334.934 1.6v7.741H8.273v1.869h2.802v1.869H9.207v1.868h1.868v1.869h1.869v-1.869h1.869V17.68h-1.869v-1.87h2.803v-1.869h-2.803v-7.74z" fill="currentColor" fill-rule="nonzero"/></g></svg>