<svg viewBox="0 0 24 24" xmlns="http://www.w3.org/2000/svg"><path d="M19.6666667,6 C19.8507616,6 20,6.14923842 20,6.33333333 L20,17.6666667 C20,17.8507616 19.8507616,18 19.6666667,18 L4.33333333,18 C4.14923842,18 4,17.8507616 4,17.6666667 L4,6.33333333 C4,6.14923842 4.14923842,6 4.33333333,6 L19.6666667,6 Z M6.14574916,10.0326667 L5.71766667,10.0326667 C5.62561921,10.0326667 5.551,10.1072859 5.551,10.1993333 L5.551,14 C5.551,14.0920475 5.62561921,14.1666667 5.71766667,14.1666667 L6.11633333,14.1666667 C6.20838079,14.1666667 6.283,14.0920475 6.283,14 L6.283,11.3826667 L7.88458392,14.0849755 C7.91459646,14.1356149 7.96909576,14.1666667 8.02796082,14.1666667 L8.43233333,14.1666667 C8.52438079,14.1666667 8.599,14.0920475 8.599,14 L8.599,10.1993333 C8.599,10.1072859 8.52438079,10.0326667 8.43233333,10.0326667 L8.03366667,10.0326667 C7.94161921,10.0326667 7.867,10.1072859 7.867,10.1993333 L7.867,12.7926667 L6.28934866,10.1147345 C6.25938992,10.063882 6.20477034,10.0326667 6.14574916,10.0326667 Z M12.3596667,10.0326667 L10.155,10.0326667 C10.0629525,10.0326667 9.98833333,10.1072859 9.98833333,10.1993333 L9.98833333,14 C9.98833333,14.0920475 10.0629525,14.1666667 10.155,14.1666667 L12.4196667,14.1666667 C12.5117141,14.1666667 12.5863333,14.0920475 12.5863333,14 L12.5863333,13.6793333 C12.5863333,13.5872859 12.5117141,13.5126667 12.4196667,13.5126667 L10.7143333,13.5126667 L10.7143333,12.4686667 L12.1316667,12.4686667 C12.2237141,12.4686667 12.2983333,12.3940475 12.2983333,12.302 L12.2983333,11.9693333 C12.2983333,11.8772859 12.2237141,11.8026667 12.1316667,11.8026667 L10.7143333,11.8026667 L10.7143333,10.6866667 L12.3596667,10.6866667 C12.4517141,10.6866667 12.5263333,10.6120475 12.5263333,10.52 L12.5263333,10.1993333 C12.5263333,10.1072859 12.4517141,10.0326667 12.3596667,10.0326667 Z M13.9554679,10.0326667 L13.523648,10.0326667 C13.4316006,10.0326667 13.3569814,10.1072859 13.3569814,10.1993333 C13.3569814,10.2174173 13.3599245,10.2353807 13.3656954,10.2525191 L14.6454554,14.0531858 C14.6682886,14.1209965 14.7318564,14.1666667 14.8034081,14.1666667 L15.1563105,14.1666667 C15.2314957,14.1666667 15.2973721,14.1163281 15.3171234,14.0437836 L15.9256667,11.8086667 L16.5457955,14.0445441 C16.5658116,14.1167121 16.6315071,14.1666667 16.7063994,14.1666667 L17.0540898,14.1666667 C17.1255616,14.1666667 17.1890771,14.1210968 17.211973,14.0533916 L18.4972493,10.2527249 C18.5267366,10.1655284 18.4799541,10.0709374 18.3927576,10.0414501 C18.3755577,10.0356336 18.3575229,10.0326667 18.3393661,10.0326667 L17.9077766,10.0326667 C17.8350815,10.0326667 17.7707723,10.0797834 17.748861,10.1490976 L16.8676667,12.9366667 L16.2535605,10.7247473 C16.2335299,10.6526001 16.1678445,10.6026667 16.0929683,10.6026667 L15.76419,10.6026667 C15.6893962,10.6026667 15.6237618,10.6524924 15.6036573,10.7245335 L14.9896667,12.9246667 L14.1144183,10.1492079 C14.0925422,10.0798378 14.0282056,10.0326667 13.9554679,10.0326667 Z" fill="currentColor"></path></svg>