<svg viewBox="0 0 24 24" xmlns="http://www.w3.org/2000/svg"><g fill="none" fill-rule="evenodd"><path d="M0 0h24v24H0z"/><path d="M13.88 18.813c0-.601.133-1.202.4-1.736h-4.004V15.21h5.605v.066c.668-.4 1.402-.667 2.202-.667.601 0 1.202.133 1.668.333V8.268c0-.267-.066-.467-.266-.667l-4.672-4.672c-.2-.2-.4-.266-.667-.266H3.869c-.534.066-.934.467-.934 1V20.48c0 .534.401.934.934.934h10.944a4.01 4.01 0 0 1-.934-2.603v.002zm-3.604-9.209h4.671v1.869h-4.671V9.604zm0 2.803h3.737v1.868h-3.737v-1.868zm-1.601 4.671H6.806v-1.869h1.869v1.869zm0-2.803H6.806v-1.868h1.869v1.868zm0-2.802H6.806V9.604h1.869v1.869zm9.408 4.204l-3.136 3.136 3.136 3.137.934-.934-1.534-1.535h3.736v-1.334h-3.736l1.534-1.535-.934-.935z" fill="currentColor" fill-rule="nonzero"/></g></svg>