<svg viewBox="0 0 24 24" xmlns="http://www.w3.org/2000/svg"><g fill="none" fill-rule="evenodd"><path d="M0 0h24v24H0z"/><path d="M16.015 11.406a4.643 4.643 0 0 0-4.672 4.671 4.643 4.643 0 0 0 4.672 4.672 4.643 4.643 0 0 0 4.671-4.672 4.643 4.643 0 0 0-4.671-4.671zm2.336 5.472h-3.137v-3.87h1.535v2.335h1.534v1.534l.068.001zm-8.609-.8c0-.735.133-1.402.334-2.07H8.074v-1.534h2.803a6.288 6.288 0 0 1 5.138-2.67V6.736c0-.2-.066-.4-.2-.534l-3.87-3.87c-.2-.2-.401-.267-.601-.267H2.802a.77.77 0 0 0-.8.8V16.88c0 .467.333.8.8.8h7.14a6.59 6.59 0 0 1-.2-1.601zM8.141 7.802h3.87v1.534h-3.87V7.803zm0 2.336h3.136v1.534H8.141V10.14zm-1.335 3.87H5.205v-1.535h1.534v1.535h.067zm0-2.336H5.205V10.14h1.534v1.534h.067zm0-2.336H5.205V7.803h1.534v1.534h.067z" fill="currentColor" fill-rule="nonzero"/></g></svg>