<svg viewBox="0 0 24 24" xmlns="http://www.w3.org/2000/svg"><g fill="none" fill-rule="evenodd"><path d="M0 0h24v24H0z"/><path d="M21.353 6.935V4.132a.912.912 0 0 0-.934-.934H3.602c-.534 0-.934.4-.934.934v2.803c0 .534.4.934.934.934v9.342h-.934v1.869h8.408v1.869h1.869V19.08h8.408v-1.869h-.934V7.87a.912.912 0 0 0 .934-.934zm-4.672 3.937c-.066.267-.934 3.737-1.068 4.004.067.133.134.267.134.467a.912.912 0 0 1-.934.934.912.912 0 0 1-.934-.934h-2.803c0 .534-.4.934-.934.934a.912.912 0 0 1-.934-.934c0-.2.067-.333.133-.467-.133-.2-1.668-4.938-1.735-5.139H6.405V7.87h1.868c.401 0 .734.266.868.667l.4 1.201h6.206c.267 0 .534.134.734.334.2.267.267.534.2.801zm2.804-4.871H4.537v-.934h14.948V6zm-4.939 5.605h-4.337l.6 1.869h3.27l.467-1.869z" fill="currentColor" fill-rule="nonzero"/></g></svg>