<svg viewBox="0 0 24 24" xmlns="http://www.w3.org/2000/svg"><path d="M12,6 C16.3137085,6 20,10 20,12 C20,14 16.3137085,18 12,18 C7.6862915,18 4,14 4,12 C4,10 7.6862915,6 12,6 Z M12,8 C9.790861,8 8,9.790861 8,12 C8,14.209139 9.790861,16 12,16 C14.209139,16 16,14.209139 16,12 C16,9.790861 14.209139,8 12,8 Z M12,10 C12.2050288,10 12.4028518,10.0308514 12.5890801,10.0881652 C12.2417159,10.2448508 12,10.5941975 12,11 C12,11.5522847 12.4477153,12 13,12 C13.4058025,12 13.7551492,11.7582841 13.9119165,11.410976 C13.9691486,11.5971482 14,11.7949712 14,12 C14,13.1045695 13.1045695,14 12,14 C10.8954305,14 10,13.1045695 10,12 C10,10.8954305 10.8954305,10 12,10 Z" fill="currentColor"></path></svg>