<svg xmlns="http://www.w3.org/2000/svg" viewBox="0 0 24 24"><g fill="none" fill-rule="evenodd"><path d="M0 0h24v24H0z"/><path fill="currentColor" d="M12 20a8 8 0 1 1 0-16 8 8 0 0 1 0 16zM8 9.918a1.718 1.718 0 0 0 .483 1.203c.153.157.338.282.554.373.217.09.46.136.728.136.265 0 .506-.046.723-.136a1.682 1.682 0 0 0 .916-.918c.084-.206.126-.425.126-.658a1.713 1.713 0 0 0-.495-1.2 1.702 1.702 0 0 0-.558-.371 1.825 1.825 0 0 0-.712-.136c-.258 0-.495.045-.712.136-.217.09-.404.214-.56.37A1.694 1.694 0 0 0 8 9.917zm1.765-.864c.12 0 .234.021.34.064a.847.847 0 0 1 .538.8.869.869 0 0 1-.258.627.896.896 0 0 1-.28.188.878.878 0 0 1-.973-.19.893.893 0 0 1-.26-.625.85.85 0 0 1 .545-.8.939.939 0 0 1 .348-.064zM14.075 8l-5.368 8h1.001l5.373-8h-1.006zm-1.605 6.257c0 .233.042.453.126.66a1.664 1.664 0 0 0 .911.918c.217.093.46.14.728.14.268 0 .51-.047.728-.14a1.664 1.664 0 0 0 .911-.918c.084-.207.126-.427.126-.66a1.675 1.675 0 0 0-.493-1.195 1.795 1.795 0 0 0-1.272-.512 1.795 1.795 0 0 0-1.272.512 1.665 1.665 0 0 0-.493 1.195zm1.765-.864a.875.875 0 0 1 .808.522c.046.105.07.219.07.342a.869.869 0 0 1-.259.627.896.896 0 0 1-.279.188.865.865 0 0 1-.684 0 .897.897 0 0 1-.474-.473.856.856 0 0 1-.07-.342.832.832 0 0 1 .26-.614.906.906 0 0 1 .628-.25z"/></g></svg>
