<svg viewBox="0 0 24 24" xmlns="http://www.w3.org/2000/svg"><path d="M12,20 C16.418278,20 20,16.418278 20,12 C20,7.581722 16.418278,4 12,4 C7.581722,4 4,7.581722 4,12 C4,16.418278 7.581722,20 12,20 Z M12,18 C8.6862915,18 6,15.3137085 6,12 C6,8.6862915 8.6862915,6 12,6 C15.3137085,6 18,8.6862915 18,12 C18,15.3137085 15.3137085,18 12,18 Z M12,7 C12.2761424,7 12.5,7.22385763 12.5,7.5 L12.5,11.6261667 L12.5,11.6261667 L14.9142174,14.0404363 C15.109478,14.2357012 15.1094763,14.5522841 14.9142136,14.7475469 C14.7202287,14.9415317 14.4057172,14.9415317 14.2117323,14.7475469 C14.210964,14.7467785 14.2101981,14.7460076 14.2094347,14.7452342 L11.5,12 L11.5,12 L11.5,7.5 C11.5,7.22385763 11.7238576,7 12,7 Z" fill="currentColor"></path></svg>