<svg viewBox="0 0 24 24" xmlns="http://www.w3.org/2000/svg"><path d="M12,4 C14.209139,4 16,5.790861 16,8 L17.9368496,8 C18.1128707,8 18.2585539,8.13686226 18.2695338,8.31254057 L19,19.6458739 C19.0114835,19.8296103 18.8497121,19.9878673 18.6659757,19.9993509 L18.6451829,20 L5.35481707,20 C5.17072216,20 5,19.8507616 5,19.6666667 L5.73046621,8.31254057 C5.74144611,8.13686226 5.88712931,8 6.06315041,8 L8,8 C8,5.790861 9.790861,4 12,4 Z M8.85958507,10 L8.16944139,10 C8.07616425,10.0002847 8.00031737,10.0733888 8,10.166666 L8,12.8281045 C7.99989858,12.8722884 8.0167423,12.9124577 8.04442372,12.9424717 L8.04792855,12.9459766 C8.06905737,12.9688858 8.09650028,12.9858785 8.12752648,12.994224 L8.12605644,12.9999613 L9.17072165,13.0000215 L10.8333544,13.0000173 C10.9266316,12.999703 10.9997357,12.9238562 11.0000213,12.830579 L11.0000213,12.1550062 C11.0003051,12.0617291 10.9297248,11.9863438 10.8364476,11.9866285 L9.78007833,11.9820817 C10.3288325,11.3787402 11.1201942,11 12.0000163,11 C13.6568638,11 15,12.3431362 15,13.9999837 C15,15.6568312 13.6568638,16.9999714 12.0000163,16.9999714 C10.4004199,16.9999714 9.09322537,15.7480497 9.00479719,14.1705706 C9.00214227,14.0755966 8.92438606,13.9999837 8.82937504,13.9999837 L8.17132434,13.9999837 C8.07867453,13.9999837 8.00356702,14.0750912 8.00356702,14.167741 L8.00360414,14.1712701 C8.09332727,16.3009459 9.84827208,17.9999674 12.0000163,17.9999674 C14.2091463,17.9999674 16,16.2091137 16,13.9999837 C16,11.7908537 14.2091463,10 12.0000163,10 C10.9844332,10 10.0572499,10.3784849 9.35182462,11.0020966 L9.22158926,11.1075753 C9.15538868,11.1613855 9.08757172,11.2168011 9.01817434,11.2738173 L9.01339188,10.1635728 C9.01366162,10.075205 8.94601703,10.0071247 8.85958507,10 Z M12,5 C10.3431458,5 9,6.34314575 9,8 L15,8 C15,6.34314575 13.6568542,5 12,5 Z" fill="currentColor"></path></svg>