<svg viewBox="0 0 24 24" xmlns="http://www.w3.org/2000/svg"><path d="M8.81581116,6.09660126 L9.91470489,7.18865859 C10.0461894,7.31932511 10.0483237,7.53334177 9.919472,7.66667817 L8.02152048,9.55338189 L15.8333333,9.55316667 C18.1345198,9.55333333 20,11.4410504 20,13.7746479 C20,16.1082454 18.1345198,18 15.8333333,18 L14.3333333,18 C14.1492384,18 14,17.8507616 14,17.6666667 L14,16.3051643 C14,16.1210694 14.1492384,15.971831 14.3333333,15.971831 L15.8333333,15.971831 C17.0299503,15.971831 18,14.9881186 18,13.7746479 C18,12.5611772 17.0299503,11.5774648 15.8333333,11.5774648 L15.8333333,11.5735 L8.02135382,11.5737763 L9.91470489,13.4554469 C10.0392692,13.5792363 10.0477407,13.7778329 9.93872872,13.9117668 L9.91470489,13.9383008 L8.81581116,15.0303581 C8.68620317,15.1591598 8.47880583,15.1591598 8.34919785,15.0303581 L4.10002679,10.8076218 C4.03774465,10.7457272 4.00448569,10.6651307 4.00042377,10.5832661 L4.00042377,10.5778356 C3.99591052,10.486875 4.02744299,10.3943488 4.09525968,10.3241718 L8.34919785,6.09660126 C8.47880583,5.96779958 8.68620317,5.96779958 8.81581116,6.09660126 Z" fill="currentColor"></path></svg>