<svg xmlns="http://www.w3.org/2000/svg" xmlns:xlink="http://www.w3.org/1999/xlink" viewBox="0 0 24 24"><defs><path id="a" d="M2.618 10.473a2.618 2.618 0 002.618-2.618c0-.964-.872-3.583-2.618-7.855C.873 4.272 0 6.89 0 7.855a2.618 2.618 0 002.618 2.618z"/><path id="c" d="M2.618 10.473a2.618 2.618 0 002.618-2.618c0-.964-.872-3.583-2.618-7.855C.873 4.272 0 6.89 0 7.855a2.618 2.618 0 002.618 2.618z"/></defs><g fill="none" fill-rule="evenodd"><path d="M0 0h24v24H0z"/><path fill="currentColor" fill-rule="nonzero" d="M6.24 15.6a2.815 2.815 0 01-2.815-2.815c0-1 .875-3.625 2.633-7.928l.182-.445.182.445c1.758 4.303 2.633 6.927 2.633 7.928A2.815 2.815 0 016.24 15.6zm-2.16-2.815a2.16 2.16 0 004.32 0c0-.804-.732-3.062-2.16-6.632-1.428 3.57-2.16 5.828-2.16 6.632z"/><g transform="translate(3.622 4.93)"><mask id="b" fill="none"><use xlink:href="#a"/></mask><path fill="currentColor" d="M-.262 7.855h5.76v2.88h-5.76z" mask="url(#b)"/></g><path fill="currentColor" fill-rule="nonzero" d="M17.76 15.6a2.815 2.815 0 01-2.815-2.815c0-1 .875-3.625 2.633-7.928l.182-.445.182.445c1.758 4.303 2.633 6.927 2.633 7.928A2.815 2.815 0 0117.76 15.6zm-2.16-2.815a2.16 2.16 0 004.32 0c0-.804-.732-3.062-2.16-6.632-1.428 3.57-2.16 5.828-2.16 6.632z"/><g transform="translate(15.142 4.93)"><mask id="d" fill="none"><use xlink:href="#c"/></mask><path fill="currentColor" d="M-.262 7.855h5.76v2.88h-5.76z" mask="url(#d)"/></g><path fill="currentColor" fill-rule="nonzero" d="M12.655 19.33h1.963c.217 0 .393.294.393.655 0 .362-.176.655-.393.655H9.382c-.217 0-.393-.293-.393-.655 0-.361.176-.654.393-.654h1.963V5.585H6.502c-.217 0-.393-.293-.393-.654 0-.362.176-.655.393-.655h10.996c.217 0 .393.293.393.655 0 .361-.176.654-.393.654h-4.843v13.746z"/><g transform="translate(10.43 3.36)"><path fill="currentColor" fill-rule="nonzero" d="M1.57 3.01a1.44 1.44 0 100-2.88 1.44 1.44 0 000 2.88z"/><circle cx="1.571" cy="1.571" r="1"/></g></g></svg>