<svg viewBox="0 0 24 24" xmlns="http://www.w3.org/2000/svg"><path d="M10,4 C13.3137085,4 16,6.6862915 16,10 C16,11.2974273 15.5881959,12.4986727 14.8881644,13.4801595 L19.9027942,18.4947415 C20.0324019,18.6243491 20.0324019,18.8344847 19.9027942,18.9640924 L18.9640924,19.9027942 C18.8344847,20.0324019 18.6243491,20.0324019 18.4947415,19.9027942 L13.4801595,14.8881644 C12.4986727,15.5881959 11.2974273,16 10,16 C6.6862915,16 4,13.3137085 4,10 C4,6.6862915 6.6862915,4 10,4 Z M10,6 C7.790861,6 6,7.790861 6,10 C6,12.209139 7.790861,14 10,14 C12.209139,14 14,12.209139 14,10 C14,7.790861 12.209139,6 10,6 Z" fill="currentColor"></path></svg>