<svg viewBox="0 0 24 24" xmlns="http://www.w3.org/2000/svg"><path d="M12.6666667,4 C12.8507616,4 13,4.14923842 13,4.33333333 L13.0000998,6.08297519 C13.9117242,6.23593264 14.7536395,6.5944607 15.476549,7.10926247 L16.7140452,5.87174123 C16.84422,5.74156647 17.055275,5.74156647 17.1854497,5.87174123 L18.1282588,6.81455027 C18.2584335,6.94472504 18.2584335,7.15578003 18.1282588,7.28595479 L16.8907369,8.52345019 C17.3422155,9.15743795 17.6735009,9.88295558 17.8513417,10.6667516 L19.6666667,10.6666667 C19.8507616,10.6666667 20,10.8159051 20,11 L20,12.3333333 C20,12.5174282 19.8507616,12.6666667 19.6666667,12.6666667 L17.9633647,12.6668121 C17.8614726,13.5883374 17.5508821,14.4469597 17.0799053,15.194367 L18.363961,16.4783429 C18.4941358,16.6085177 18.4941358,16.8195727 18.363961,16.9497475 L17.421152,17.8925565 C17.2909772,18.0227313 17.0799222,18.0227313 16.9497475,17.8925565 L15.7451484,16.6879133 C14.9655833,17.3115169 14.0270746,17.7447132 13.0000998,17.9170248 L13,19.6666667 C13,19.8507616 12.8507616,20 12.6666667,20 L11.3333333,20 C11.1492384,20 11,19.8507616 11,19.6666667 L11.0000669,17.9170528 C10.0883604,17.7641081 9.24637121,17.4055565 8.52340813,16.890707 L7.28595479,18.1282588 C7.15578003,18.2584335 6.94472504,18.2584335 6.81455027,18.1282588 L5.87174123,17.1854497 C5.74156647,17.055275 5.74156647,16.84422 5.87174123,16.7140452 L7.10931448,15.476622 C6.53230473,14.6663827 6.15160831,13.7066427 6.03663527,12.6668121 L4.33333333,12.6666667 C4.14923842,12.6666667 4,12.5174282 4,12.3333333 L4,11 C4,10.8159051 4.14923842,10.6666667 4.33333333,10.6666667 L6.14865834,10.6667516 C6.35215439,9.76988501 6.75656039,8.94932415 7.31205847,8.25488689 L6.10744349,7.05025253 C5.97726873,6.92007777 5.97726873,6.70902277 6.10744349,6.57884801 L7.05025253,5.63603897 C7.1804273,5.50586421 7.39148229,5.50586421 7.52165705,5.63603897 L8.8057279,6.92003492 C9.462275,6.50633057 10.2046369,6.21638581 11.0000669,6.08294721 L11,4.33333333 C11,4.14923842 11.1492384,4 11.3333333,4 L12.6666667,4 Z M12,8 C9.790861,8 8,9.790861 8,12 C8,14.209139 9.790861,16 12,16 C14.209139,16 16,14.209139 16,12 C16,9.790861 14.209139,8 12,8 Z" fill="currentColor"></path></svg>