<svg viewBox="0 0 24 24" xmlns="http://www.w3.org/2000/svg"><path d="M11.9829157,4.00045695 C12.130219,3.99274672 12.2649732,4.08324152 12.3207816,4.22404931 L12.3303044,4.25102868 L14.0729469,9.72781562 L19.6539577,9.72781562 C19.8036621,9.72832021 19.936194,9.82930963 19.9827581,9.97836184 C20.026412,10.1180983 19.985288,10.2705633 19.8807266,10.3658111 L19.8589748,10.3840771 L15.3258261,13.8562974 L17.0684687,19.5239936 C17.1150055,19.6740839 17.0638291,19.8384876 16.9417787,19.9309841 C16.8273565,20.0176995 16.6751275,20.0226594 16.5564214,19.9460897 L16.5331483,19.9296888 L12,16.4574703 L7.46685191,19.9296888 C7.34533804,20.0229574 7.18027194,20.0234806 7.05822154,19.9309841 C6.94379928,19.8442686 6.89166866,19.6943535 6.92394444,19.5522822 L6.93153157,19.5239936 L8.67417238,13.8562974 L4.14102521,10.3840771 C4.02057195,10.2909485 3.97067772,10.127414 4.01724185,9.97836184 C4.06089573,9.8386254 4.18010721,9.74113163 4.31819075,9.72907499 L4.34604229,9.72781562 L9.92705336,9.72781562 L11.6696959,4.25102868 C11.7115477,4.11646606 11.8237163,4.0204151 11.9561694,4.00290079 L11.9829157,4.00045695 Z M13.3417327,10.7278156 L12,6.51083333 L10.6582676,10.7278156 L6.23416667,10.7276667 L9.83442408,13.4853644 L8.47866667,17.8948333 L12,15.1978285 L15.5213333,17.8948333 L14.1655742,13.4853644 L17.7656667,10.7276667 L13.3417327,10.7278156 Z" fill="currentColor"></path></svg>