<svg viewBox="0 0 24 24" xmlns="http://www.w3.org/2000/svg"><path d="M13.4308571,11.4432381 L14.902322,12.9147378 C16.2189694,12.3964019 17.7979376,12.6876705 18.8878765,13.7776094 C19.9583523,14.8480852 20.2584269,16.3902808 19.7777417,17.6923826 L19.7507482,17.7631639 L17.5621208,15.5747696 C17.4319315,15.4446192 17.2208862,15.4446249 17.0907038,15.5747822 L15.716734,16.9487519 C15.5934022,17.0720669 15.586911,17.2679805 15.697253,17.3989451 L15.7167429,17.4201475 L17.9620719,19.6653071 C16.6085174,20.2966652 14.9230245,20.0332917 13.7776094,18.8878765 C12.6321943,17.7424614 12.3688208,16.0569685 13.0001788,14.703414 L11.5853333,13.2885714 L10.7112381,12.4144762 L9.29658596,10.9998212 C7.94303148,11.6311792 6.25753858,11.3678057 5.11212347,10.2223906 C3.96670835,9.07697548 3.70333484,7.39148258 4.33469289,6.0379281 L6.57985247,8.28325707 C6.70316286,8.4065936 6.8990762,8.41309214 7.03004491,8.30275506 L7.0512481,8.28326596 L8.42521782,6.90929624 C8.55537513,6.77911382 8.55538075,6.56806851 8.42523037,6.43787917 L6.23683609,4.24925182 C7.55348345,3.73091598 9.13245164,4.02218452 10.2223906,5.11212347 C11.3123295,6.20206241 11.6035981,7.78103061 11.0852622,9.09767797 L12.5567619,10.5691429 L13.4308571,11.4432381 Z" fill="currentColor"></path></svg>