<svg viewBox="0 0 24 24" xmlns="http://www.w3.org/2000/svg"><g fill="none" fill-rule="evenodd"><path fill="none" d="M0 0h24v24H0z"/><path d="M12 5a7 7 0 110 14 7 7 0 010-14zm-.514 9.333a.813.813 0 00-.824.828c0 .487.377.839.824.839a.832.832 0 00.844-.839c0-.486-.387-.828-.844-.828zM12.015 8c-1.34 0-2.392.802-2.51 2.274l-.005.062a.206.206 0 00.194.218h1.026c.123 0 .23-.08.263-.196l.006-.023a1.023 1.023 0 011.014-.829c.567 0 .977.325.977.916 0 .325-.193.674-.627.855l-.435.169c-1 .41-1.23 1.012-1.133 1.94 0 .133.108.24.24.24h.82c.122 0 .223-.089.24-.206l.002-.022c0-.494.326-.615.784-.771.93-.326 1.629-1.109 1.629-2.278C14.5 8.904 13.45 8 12.015 8z" fill="currentColor"/></g></svg>