<svg viewBox="0 0 24 24" xmlns="http://www.w3.org/2000/svg"><path d="M16.9 7C16.4367 4.71776 14.419 3 12 3C9.23858 3 7 5.23858 7 8V10H5.33333C5.14924 10 5 10.1492 5 10.3333V19.6667C5 19.8508 5.14924 20 5.33333 20H18.6667C18.8508 20 19 19.8508 19 19.6667V10.3333C19 10.1492 18.8508 10 18.6667 10H17H15.3333H15H8.66667V8C8.66667 6.15905 10.1591 4.66667 12 4.66667C13.4925 4.66667 14.756 5.64763 15.1807 7H16.9ZM10 14C10 12.8954 10.8954 12 12 12C13.1046 12 14 12.8954 14 14C14 14.7402 13.5979 15.3865 13.0002 15.7323L13 17.6667L12.9991 17.6915C12.9864 17.864 12.8424 18 12.6667 18H11.3333L11.3085 17.9991C11.136 17.9864 11 17.8424 11 17.6667L11 15.7324L10.9544 15.7052C10.3818 15.3534 10 14.7213 10 14Z" fill="currentColor"></path></svg>
