<svg viewBox="0 0 24 24" xmlns="http://www.w3.org/2000/svg"><path d="M5.66666667,15 C5.85076158,15 6,15.1492384 6,15.3333333 L6,17 L18,17 L18,15.3333333 C18,15.1492384 18.1492384,15 18.3333333,15 L19.6666667,15 C19.8507616,15 20,15.1492384 20,15.3333333 L20,18.6666667 C20,18.8507616 19.8507616,19 19.6666667,19 L4.33333333,19 C4.14923842,19 4,18.8507616 4,18.6666667 L4,15.3333333 C4,15.1492384 4.14923842,15 4.33333333,15 L5.66666667,15 Z M11.3367557,14.9996916 C11.1526608,14.9996916 11.0034224,14.8504532 11.0034224,14.6663583 L11.0033289,9.02185825 L9.14779253,10.9152093 C9.02572249,11.0397736 8.82988412,11.0482452 8.6978104,10.9392332 L8.671645,10.9152093 L7.59475513,9.81631559 C7.46774237,9.68670761 7.46774237,9.47931027 7.59475513,9.34970228 L11.7588423,5.10053122 C11.8198773,5.03824909 11.8993544,5.00499013 11.980082,5.00092821 L11.985437,5.00092821 C12.0751343,4.99641496 12.1663754,5.02794743 12.2355778,5.09576412 L16.404432,9.34970228 C16.5314448,9.47931027 16.5314448,9.68670761 16.404432,9.81631559 L15.3275421,10.9152093 C15.1986904,11.0466938 14.9876462,11.0488281 14.8561617,10.9199764 L12.9956622,9.02202492 L12.9957647,14.6663583 C12.9957647,14.8504532 12.8465263,14.9996916 12.6624314,14.9996916 L11.3367557,14.9996916 Z" fill="currentColor"></path></svg>