<svg viewBox="0 0 24 24" xmlns="http://www.w3.org/2000/svg"><path d="M12.0001328,3 C7.03737321,3 3,7.03737326 3,11.9998672 C3,16.9626268 7.03737326,21 12.0001328,21 C16.9626267,21 21,16.9626267 21,11.9998672 C21,7.03737326 16.9626267,3 12.0001328,3 Z M11.4560067,7.7236749 C10.4739627,7.66964089 9.53339901,7.52012576 8.67137892,7.28243591 C9.34074305,5.65616838 10.3354736,4.51281936 11.4560067,4.22803659 L11.4560067,7.7236749 Z M11.4560067,8.81126291 L11.4560067,11.4557411 L7.81015586,11.4557411 C7.85389451,10.3313222 8.02688967,9.26190054 8.30762076,8.30728868 C9.28448384,8.58346985 10.3487579,8.75397421 11.4560067,8.81126291 Z M12.5442589,8.82919676 C13.6466922,8.80980166 14.7239848,8.67546389 15.726055,8.43548245 C15.98583,9.35781343 16.1480317,10.3804079 16.1898441,11.4557411 L12.5442589,11.4557411 L12.5442589,8.82919676 L12.5442589,8.82919676 Z M12.5442589,7.7411438 L12.5442589,4.22806978 C13.6916264,4.51976045 14.7072134,5.71192933 15.3763782,7.40079928 C14.4855643,7.60634107 13.5280299,7.72274499 12.5442589,7.7411438 Z M7.61783198,6.92678121 C7.20096973,6.76278617 6.80755436,6.57916352 6.44950844,6.37056635 C7.1509542,5.67888456 7.979531,5.11629325 8.89800951,4.72324315 C8.39802057,5.32575389 7.96332415,6.0677833 7.61783198,6.92678121 Z M7.26632863,7.95585177 C6.95501036,9.01335075 6.76550941,10.194859 6.72236859,11.4557411 L4.11581722,11.4557411 C4.22514723,9.86042599 4.80733295,8.39659262 5.72601072,7.19901033 C6.19325372,7.48678209 6.70888498,7.73988175 7.26632863,7.95585177 Z M6.72236853,12.5439932 C6.76424736,13.7685095 6.9447482,14.9174379 7.24029133,15.9514236 C6.66302081,16.1590577 6.12826014,16.4063123 5.64148911,16.6879068 C4.77176408,15.5114466 4.22175966,14.0895917 4.11581716,12.5439932 L6.72236853,12.5439932 L6.72236853,12.5439932 Z M7.8101558,12.5439933 L11.4560067,12.5439933 L11.4560067,15.1792388 C10.3513483,15.2176638 9.27860554,15.3658172 8.28948759,15.6235664 C8.02011464,14.6861577 7.85286497,13.6420427 7.8101558,12.5439933 Z M11.4560067,16.2671257 L11.4560067,19.7719634 C10.3211597,19.4835274 9.31546959,18.3141744 8.64607226,16.6547624 C9.52240619,16.4332795 10.4729331,16.3034916 11.4560067,16.2671257 Z M12.5442589,19.7719302 L12.5442589,16.2671257 C13.5272661,16.3034916 14.4776602,16.4332795 15.3539277,16.6547624 C14.6845635,18.3141412 13.6789399,19.483461 12.5442589,19.7719302 Z M12.5442589,15.1792388 L12.5442589,12.5439933 L16.1898441,12.5439933 C16.147135,13.6420427 15.9798852,14.6861577 15.7105123,15.6235664 C14.721494,15.3658172 13.6488509,15.2176638 12.5442589,15.1792388 Z M17.2776314,12.5439933 L19.8841827,12.5439933 C19.7782402,14.0896582 19.2282358,15.5115463 18.3584775,16.6880397 C17.8717397,16.4063455 17.3370455,16.159091 16.7597749,15.9514569 C17.0553181,14.9174379 17.2357857,13.7685095 17.2776314,12.5439933 Z M17.2776314,11.4557411 C17.2369481,10.2656313 17.0653478,9.14702431 16.7843178,8.13575477 C17.3808174,7.93678875 17.9337444,7.69518 18.4394788,7.42002832 C19.2633396,8.57493468 19.7815281,9.95770045 19.8841827,11.4557411 L17.2776314,11.4557411 L17.2776314,11.4557411 Z M17.7367378,6.5674401 C17.3394035,6.77049105 16.9063344,6.94790331 16.4480915,7.10143693 C16.0921379,6.1697405 15.6353562,5.36573971 15.1021564,4.72320996 C16.104924,5.15232697 16.9969999,5.78665368 17.7367378,6.5674401 Z M6.35216754,17.5301333 C6.73020634,17.323728 7.14427886,17.1430944 7.58239604,16.9838485 C7.93356725,17.880441 8.38075098,18.6534229 8.89800956,19.2767237 C7.93629055,18.8651419 7.07390513,18.2670814 6.35216754,17.5301333 Z M15.1021564,19.2767568 C15.6193486,18.6534229 16.0665323,17.8805075 16.4176703,16.9839149 C16.8557543,17.1431608 17.2697604,17.3238609 17.6477992,17.5302993 C16.9260948,18.2671811 16.063809,18.8652084 15.1021564,19.2767568 Z" fill="currentColor"></path></svg>