<svg viewBox="0 0 24 24" xmlns="http://www.w3.org/2000/svg"><g fill="none" fill-rule="evenodd"><path d="M0 0h24v24H0z"/><path d="M9.875 15.476c0-3.07 2.47-5.605 5.606-5.605.534 0 1.068.066 1.601.266V6.401l-3.737-3.67H4.27c-.867 0-1.601.734-1.601 1.601v14.347c0 .868.734 1.602 1.601 1.602h8.275c-1.602-1.001-2.67-2.736-2.67-4.805zm2.402-11.945l4.004 4.004h-4.004V3.531zM5.07 9.937h5.605v1.602H5.07V9.937zm3.203 4.738H5.07v-1.601h3.203v1.601zM18.75 17.68c.4-.601.667-1.402.667-2.202a4.016 4.016 0 0 0-4.004-4.004 4.016 4.016 0 0 0-4.004 4.004 4.016 4.016 0 0 0 4.004 4.004c.801 0 1.535-.267 2.202-.668l2.603 2.603 1.135-1.135-2.603-2.602zm-3.336.2a2.393 2.393 0 0 1-2.403-2.403 2.393 2.393 0 0 1 2.403-2.403 2.393 2.393 0 0 1 2.403 2.403 2.393 2.393 0 0 1-2.403 2.403z" fill="currentColor" fill-rule="nonzero"/></g></svg>