<?xml version="1.0" encoding="utf-8"?><svg xmlns="http://www.w3.org/2000/svg" xmlns:xlink="http://www.w3.org/1999/xlink"><symbol viewBox="0 0 24 24" id="activity" xmlns="http://www.w3.org/2000/svg"><path d="M9.004 5.238l2.74 8.744 3.013-6.47a.33.33 0 01.618.041l1.268 4a.334.334 0 00.317.237h2.707c.184 0 .333.153.333.343v1.37c0 .188-.15.342-.333.342h-4.093a.334.334 0 01-.317-.234l-.45-1.39-3.108 6.586a.33.33 0 01-.618-.046l-2.693-8.743-1.795 3.64a.332.332 0 01-.298.187H4.333A.338.338 0 014 13.502v-1.37c0-.189.15-.342.333-.342h.716a.333.333 0 00.3-.193l3.038-6.405a.33.33 0 01.617.046z" fill="currentColor"/></symbol><symbol viewBox="0 0 24 24" id="add" xmlns="http://www.w3.org/2000/svg"><path d="M12.667 4c.184 0 .333.15.333.333V11h6.667c.184 0 .333.15.333.333v1.334c0 .184-.15.333-.333.333H13v6.667c0 .184-.15.333-.333.333h-1.334a.333.333 0 01-.333-.333V13H4.333A.333.333 0 014 12.667v-1.334c0-.184.15-.333.333-.333H11V4.333c0-.184.15-.333.333-.333h1.334z" fill="currentColor"/></symbol><symbol viewBox="0 0 24 24" id="add-note" xmlns="http://www.w3.org/2000/svg"><path fill-rule="evenodd" clip-rule="evenodd" d="M23 7a6 6 0 01-6 6v3.18c0 .178-.07.347-.195.472l-4.153 4.153a.666.666 0 01-.471.195H3.333A.333.333 0 013 20.667V7.333C3 7.15 3.15 7 3.333 7H11a6 6 0 0112 0zM11.083 8A6.005 6.005 0 0016 12.917V16h-3.333a.667.667 0 00-.667.667V20H4V8h7.083zM20 6.365h-2.37V4h-1.245v2.365H14v1.24h2.385V10h1.244V7.606H20V6.365zM13 17v2l2-2h-2z" fill="currentColor"/></symbol><symbol viewBox="0 0 24 24" id="add-user" xmlns="http://www.w3.org/2000/svg"><g fill="none" fill-rule="evenodd"><path d="M0 0h24v24H0z"/><path d="M12.878 10.405a3.404 3.404 0 11-6.807-.001 3.404 3.404 0 016.807 0zm-3.403 4.204c-4.004 0-6.807 2.135-6.807 5.138v.868h13.613v-.868c0-3.002-2.802-5.138-6.806-5.138zm11.878-8.475h-2.536V3.598H17.08v2.536h-2.536v1.668h2.536v2.603h1.736V7.802h2.536V6.134z" fill="currentColor" fill-rule="nonzero"/></g></symbol><symbol viewBox="0 0 24 24" id="alert" xmlns="http://www.w3.org/2000/svg"><path d="M14 18a2 2 0 01-4 .05V18h4zM12 4a1 1 0 01.995 1.103c2.259.471 3.966 2.513 4.004 4.897L17 12.862c0 .088.035.173.098.236l1.707 1.707a.667.667 0 01.195.471v1.39c0 .185-.15.334-.333.334H5.333A.333.333 0 015 16.667v-1.39c0-.178.07-.347.195-.472l1.707-1.707A.333.333 0 007 12.862V10c0-2.42 1.72-4.44 4.005-4.901A1 1 0 0112 4z" fill="currentColor"/></symbol><symbol viewBox="0 0 24 24" id="approve" xmlns="http://www.w3.org/2000/svg"><path d="M12 5a7 7 0 110 14 7 7 0 010-14zm4.238 4.693l-.918-.93a.322.322 0 00-.438-.02l-.021.02-3.866 3.914-1.19-1.204a.322.322 0 00-.438-.02l-.02.02-.919.93a.333.333 0 00-.019.444l.02.02 2.335 2.37.02.02c.12.102.298.102.418 0l.02-.02 5.016-5.08a.332.332 0 00.02-.443l-.02-.021-.918-.93.918.93z" fill="currentColor"/></symbol><symbol viewBox="0 0 24 24" id="archive" xmlns="http://www.w3.org/2000/svg"><path d="M18.667 10c.184 0 .333.15.333.333v8.334c0 .184-.15.333-.333.333H5.333A.333.333 0 015 18.667v-8.334c0-.184.15-.333.333-.333h13.334zm-5 2h-3.334a.333.333 0 00-.332.308l-.001.025v.334c0 .175.136.32.308.332l.025.001h3.334c.175 0 .32-.136.332-.308l.001-.025v-.334a.333.333 0 00-.333-.333zm6-7c.184 0 .333.15.333.333v3.334c0 .184-.15.333-.333.333H4.333A.333.333 0 014 8.667V5.333C4 5.15 4.15 5 4.333 5h15.334z" fill="currentColor"/></symbol><symbol viewBox="0 0 24 24" id="arrow-down" xmlns="http://www.w3.org/2000/svg"><path d="M12.667 4c.184 0 .333.15.333.333v11.934l4.475-4.501a.335.335 0 01.475 0l.951.957a.34.34 0 010 .478l-6.658 6.7a.334.334 0 01-.252.099h-.01a.334.334 0 01-.224-.1L5.1 13.202a.34.34 0 010-.478l.95-.957a.335.335 0 01.476 0L11 16.267V4.333c0-.184.15-.333.333-.333h1.334z" fill="currentColor"/></symbol><symbol viewBox="0 0 24 24" id="arrow-left" xmlns="http://www.w3.org/2000/svg"><path d="M7.277.099l.957.95a.335.335 0 010 .476L3.732 6h11.935c.184 0 .333.15.333.333v1.334c0 .184-.15.333-.333.333H3.732l4.502 4.475a.335.335 0 010 .475l-.957.951a.34.34 0 01-.478 0l-6.7-6.658A.334.334 0 010 6.99v-.01a.334.334 0 01.1-.224L6.798.1a.34.34 0 01.478 0z" fill="currentColor"/></symbol><symbol viewBox="0 0 24 24" id="arrow-right" xmlns="http://www.w3.org/2000/svg"><path d="M8.723.099a.34.34 0 01.478 0l6.7 6.658a.334.334 0 01.099.224v.01a.334.334 0 01-.1.252L9.202 13.9a.34.34 0 01-.478 0l-.957-.95a.335.335 0 010-.476L12.268 8H.333A.333.333 0 010 7.667V6.333C0 6.15.15 6 .333 6h11.935L7.766 1.525a.335.335 0 01-.02-.454l.02-.021.957-.951z" fill="currentColor"/></symbol><symbol viewBox="0 0 24 24" id="arrow-up" xmlns="http://www.w3.org/2000/svg"><path d="M12.019 4a.334.334 0 01.224.1l6.658 6.699a.34.34 0 010 .478l-.95.957a.335.335 0 01-.476 0L13 7.733v11.934c0 .184-.15.333-.333.333h-1.334a.333.333 0 01-.333-.333V7.73l-4.475 4.503a.335.335 0 01-.475 0l-.951-.957a.34.34 0 010-.478l6.658-6.7c.07-.07.161-.102.252-.099h.01z" fill="currentColor"/></symbol><symbol viewBox="0 0 24 24" id="attach" xmlns="http://www.w3.org/2000/svg"><path d="M5.231 17.794c1.642 1.608 4.312 1.608 5.953 0l7.938-7.771a2.907 2.907 0 000-4.163 3.06 3.06 0 00-4.252 0L6.932 13.63a1.75 1.75 0 000 2.498c.7.685 1.852.685 2.552 0l6.803-6.661a.58.58 0 00.163-.572.595.595 0 00-.43-.42.61.61 0 00-.583.16l-6.804 6.66a.596.596 0 01-.85 0 .567.567 0 010-.832l7.937-7.772c.714-.699 1.838-.699 2.552 0 .714.7.714 1.8 0 2.498l-7.938 7.772a3.032 3.032 0 01-4.252 0 2.882 2.882 0 010-4.164l6.803-6.66a.58.58 0 00.163-.573.595.595 0 00-.429-.42.61.61 0 00-.584.16l-6.804 6.66a4.065 4.065 0 000 5.83z" fill="currentColor"/></symbol><symbol viewBox="0 0 24 24" id="bag" xmlns="http://www.w3.org/2000/svg"><g fill="none" fill-rule="evenodd"><path d="M0 0h24v24H0z"/><path d="M18.15 10.137l-3.47-6.072-1.601.934 2.936 5.138H8.007L10.943 5 9.34 4.065l-3.47 6.072H2.668v1.869h1.135l1.735 7.674c.067.4.467.734.934.734h11.21c.468 0 .801-.333.935-.734l1.735-7.674h1v-1.869H18.15h.001zm-8.942 7.474H7.339V12.94h1.869v4.671zm3.737 0h-1.869V12.94h1.869v4.671zm3.736 0h-1.868V12.94h1.868v4.671z" fill="currentColor" fill-rule="nonzero"/></g></symbol><symbol viewBox="0 0 24 24" id="browse" xmlns="http://www.w3.org/2000/svg"><g fill="none" fill-rule="evenodd"><path d="M0 0h24v24H0z"/><path d="M9.875 4.332a2.393 2.393 0 012.403 2.403h1.601c0-2.269-1.735-4.004-4.004-4.004-2.268 0-4.004 1.735-4.004 4.004h1.602c0-1.402 1-2.403 2.402-2.403zm5.539 5.605c.333 0 .667 0 .934.067l-.133-2.47H3.469L2.668 18.68h8.208a5.28 5.28 0 01-1.068-3.204c.067-3.069 2.536-5.538 5.605-5.538h.001zm3.403 7.808c.401-.667.668-1.468.668-2.268 0-2.269-1.736-4.004-4.004-4.004-2.269 0-4.004 1.735-4.004 4.004 0 2.268 1.735 4.004 4.004 4.004.8 0 1.601-.267 2.268-.668l2.536 2.536 1.135-1.134-2.603-2.47zm-3.403.134a2.393 2.393 0 01-2.403-2.403 2.393 2.393 0 012.403-2.403 2.393 2.393 0 012.403 2.403c0 1.335-1.001 2.403-2.403 2.403z" fill="currentColor" fill-rule="nonzero"/></g></symbol><symbol viewBox="0 0 24 24" id="bulk-add" xmlns="http://www.w3.org/2000/svg"><g fill="none" fill-rule="evenodd"><path d="M0 0h24v24H0z"/><path d="M13.879 9.27H2.668v1.869h11.21V9.27zm0-3.737H2.668v1.869h11.21V5.533zm3.737 7.474V9.271h-1.869v3.736h-3.736v1.869h3.736v3.737h1.869v-3.737h3.737v-1.869h-3.737zM2.668 14.876h7.474v-1.869H2.668v1.869z" fill="currentColor" fill-rule="nonzero"/></g></symbol><symbol viewBox="0 0 24 24" id="calendar" xmlns="http://www.w3.org/2000/svg"><g fill="none" fill-rule="evenodd"><path d="M0 0h24v24H0z"/><path d="M19.685 4.866h-1.668V3.131h-1.668V7.4H14.68V4.865H9.609V3.13H7.741V7.4H6.073V4.866H4.337c-.934 0-1.668.734-1.668 1.668V19.28c0 .934.734 1.668 1.668 1.668H19.62c.934 0 1.668-.734 1.668-1.668V6.533c.066-.934-.668-1.668-1.602-1.668v.001zM8.607 18.413H5.204v-3.404h3.403v3.404zm0-5.072H5.204V9.937h3.403v3.404zm5.072 5.072h-3.404v-3.404h3.404v3.404zm0-5.072h-3.404V9.937h3.404v3.404zm5.138 0h-3.403V9.937h3.403v3.404z" fill="currentColor" fill-rule="nonzero"/></g></symbol><symbol viewBox="0 0 24 24" id="caret-down" xmlns="http://www.w3.org/2000/svg"><path fill="currentColor" fill-rule="evenodd" d="M16.402 10.17a.55.55 0 01.17.401.55.55 0 01-.17.402l-4 4a.55.55 0 01-.402.17.55.55 0 01-.402-.17l-4-4a.55.55 0 01-.17-.402.55.55 0 01.17-.401A.55.55 0 018 10h8a.55.55 0 01.402.17z"/></symbol><symbol viewBox="0 0 24 24" id="cart" xmlns="http://www.w3.org/2000/svg"><path fill="var(--cart-fill, #ffffff)" d="M6 4.7c.2 0 .3.1.3.2L6.8 7h12.9c.2 0 .3.1.3.3v.1l-2 8.7c0 .1-.2.2-.3.2H8.2c-.2 0-.3-.1-.4-.2L6.1 8.6l-.7-2.9H4.3c-.1 0-.3-.2-.3-.3V5c0-.2.1-.3.3-.3H6z" class="arcart-shape"/><path fill="var(--cart-fill, #676a6c)" d="M10 17.3c.6 0 1 .5 1 1 0 .6-.4 1-1 1s-1-.4-1-1c0-.5.4-1 1-1zm6 0c.6 0 1 .5 1 1 0 .6-.4 1-1 1s-1-.4-1-1c0-.5.4-1 1-1zM6 4.7c.2 0 .3.1.3.2L6.8 7h12.9c.2 0 .3.1.3.3v.1l-2 8.7c0 .1-.2.2-.3.2H8.2c-.2 0-.3-.1-.4-.2L6.1 8.6l-.7-2.9H4.3c-.1 0-.3-.2-.3-.3V5c0-.2.1-.3.3-.3H6zM18.8 8H7l.3 1.2 1.4 6.1h8.4L18.8 8z"/></symbol><symbol viewBox="0 0 24 24" id="cart-circle" xmlns="http://www.w3.org/2000/svg"><g fill="none" fill-rule="evenodd"><path d="M0 0h24v24H0z"/><circle stroke="#currentColor" cx="12" cy="12" r="11.5"/><path d="M10.031 15.397c.17.17.255.37.255.603a.824.824 0 01-.255.603.824.824 0 01-.602.254.824.824 0 01-.603-.254A.824.824 0 018.57 16c0-.232.085-.433.255-.603.17-.17.37-.254.603-.254.232 0 .433.085.602.254zm6 0c.17.17.255.37.255.603a.824.824 0 01-.255.603.824.824 0 01-.602.254.824.824 0 01-.603-.254.824.824 0 01-.255-.603c0-.232.085-.433.255-.603.17-.17.37-.254.603-.254.232 0 .433.085.602.254zm1.112-6.683v3.429a.415.415 0 01-.11.284.423.423 0 01-.272.144l-6.99.817c.057.268.086.424.086.47 0 .07-.053.213-.16.428h6.16c.116 0 .217.042.301.127a.412.412 0 01.128.301.412.412 0 01-.128.302.412.412 0 01-.3.127H9a.412.412 0 01-.301-.127.412.412 0 01-.128-.302c0-.049.018-.12.054-.21.036-.092.071-.173.107-.242l.144-.268c.06-.109.095-.175.104-.197L7.795 8.286H6.429a.412.412 0 01-.302-.128.412.412 0 01-.127-.3c0-.117.042-.217.127-.302a.412.412 0 01.302-.127h1.714a.408.408 0 01.321.147 1.043 1.043 0 01.14.338 35.442 35.442 0 01.068.372h8.042c.116 0 .217.042.302.127a.412.412 0 01.127.301z" fill="currentColor"/></g></symbol><symbol viewBox="0 0 24 24" id="change-log" xmlns="http://www.w3.org/2000/svg"><path d="M8.126 16.582a5.974 5.974 0 003.457 1.404v2.003A7.967 7.967 0 016.708 18l1.418-1.417zM5.719 4a.328.328 0 01.307.301v.026l.01 2.22.407-.332.26-.21a8 8 0 115.88 13.975v-2.008a6 6 0 10-4.966-10.07l-.057.062 2.113.01c.178-.001.315.136.326.31L10 8.31v1.351a.336.336 0 01-.308.338L9.667 10H4.252l.003-.012a.335.335 0 01-.137-.074l-.03-.029a.335.335 0 01-.087-.2L4 9.656V4.333c0-.178.139-.32.314-.332L4.339 4h1.38zm-.043 8c.172 0 .314.13.331.299l.002.025v.017a5.974 5.974 0 001.41 3.533L6 17.292a7.967 7.967 0 01-1.989-4.846l-.005-.106v-.007c0-.175.136-.32.309-.332L4.34 12h1.336zm6.49-5c.185 0 .334.15.334.333v4.293l2.532 2.532c.13.13.13.342 0 .472l-.234.234a.333.333 0 01-.45.02l-.023-.022L11.5 12V7.333c0-.184.15-.333.333-.333h.334z" fill="currentColor"/></symbol><symbol viewBox="0 0 24 24" id="check" xmlns="http://www.w3.org/2000/svg"><path d="M17.418 6.768l.98.975a.343.343 0 010 .487l-8.333 8.289a.35.35 0 01-.036.031l-.016.016a.348.348 0 01-.49 0l-3.921-3.9a.343.343 0 010-.488l.98-.975a.348.348 0 01.49 0l2.699 2.684 7.157-7.12a.348.348 0 01.49 0z" fill="currentColor"/></symbol><symbol viewBox="0 0 24 24" id="chevron" xmlns="http://www.w3.org/2000/svg"><path d="M7 12.013a.337.337 0 01.1-.253l.961-.957a.346.346 0 01.004-.004l6.727-6.7a.34.34 0 01.48 0l.962.958a.338.338 0 010 .479L9.744 12l6.49 6.464a.338.338 0 010 .48l-.962.957a.34.34 0 01-.48 0l-6.727-6.7-.004-.004-.961-.957a.337.337 0 01-.1-.227z" fill="currentColor" fill-rule="evenodd"/></symbol><symbol fill="none" viewBox="0 0 24 24" id="chevron-right" xmlns="http://www.w3.org/2000/svg"><path d="M17 12.014a.337.337 0 01-.1.226l-.961.957-.004.004-6.727 6.7a.34.34 0 01-.48 0l-.962-.958a.338.338 0 010-.479L14.256 12l-6.49-6.464a.338.338 0 010-.48l.962-.957a.34.34 0 01.48 0l6.727 6.7.004.004.961.957c.07.07.103.162.1.254z" fill="currentColor"/></symbol><symbol viewBox="0 0 24 24" id="close" xmlns="http://www.w3.org/2000/svg"><path d="M6.7 5.11l5.3 5.3 5.3-5.3a.375.375 0 01.53 0l1.06 1.06a.375.375 0 010 .53l-5.3 5.3 5.3 5.3a.375.375 0 010 .53l-1.06 1.06a.375.375 0 01-.53 0l-5.3-5.3-5.3 5.3a.375.375 0 01-.53 0l-1.06-1.06a.375.375 0 010-.53l5.3-5.3-5.3-5.3a.375.375 0 010-.53l1.06-1.06a.375.375 0 01.53 0z" fill="currentColor"/></symbol><symbol viewBox="0 0 24 24" id="combine" xmlns="http://www.w3.org/2000/svg"><path d="M9 7c.744 0 1.45.162 2.084.454A5.986 5.986 0 009 12c0 1.817.808 3.446 2.084 4.546A5 5 0 119 7zm6 10a5 5 0 01-.217-9.995L15 7a5 5 0 01.217 9.995L15 17zm0-8a3 3 0 100 6 3 3 0 000-6z" fill="currentColor"/></symbol><symbol viewBox="0 0 24 24" id="company" xmlns="http://www.w3.org/2000/svg"><path d="M18.667 4c.184 0 .333.15.333.333v11h.667c.184 0 .333.15.333.334v4c0 .184-.15.333-.333.333H13.5v-3.667a.333.333 0 00-.308-.332L13.167 16h-2.334a.333.333 0 00-.332.308l-.001.025V20H4.333A.333.333 0 014 19.667v-4c0-.184.15-.334.333-.334H5v-11C5 4.15 5.15 4 5.333 4h13.334zM9.333 6c.184 0 .334.15.334.333v1.334c0 .184-.15.333-.334.333h-2A.333.333 0 017 7.667V6.333C7 6.15 7.15 6 7.333 6h2zm0 3c.184 0 .334.15.334.333v1.334c0 .184-.15.333-.334.333h-2A.333.333 0 017 10.667V9.333C7 9.15 7.15 9 7.333 9h2zm0 3c.184 0 .334.15.334.333v1.334c0 .184-.15.333-.334.333h-2A.333.333 0 017 13.667v-1.334c0-.184.15-.333.333-.333h2zM13 6c.184 0 .333.15.333.333v1.334c0 .184-.149.333-.333.333h-2a.333.333 0 01-.333-.333V6.333c0-.184.149-.333.333-.333h2zm0 3c.184 0 .333.15.333.333v1.334c0 .184-.149.333-.333.333h-2a.333.333 0 01-.333-.333V9.333c0-.184.149-.333.333-.333h2zm0 3c.184 0 .333.15.333.333v1.334c0 .184-.149.333-.333.333h-2a.333.333 0 01-.333-.333v-1.334c0-.184.149-.333.333-.333h2zm3.667-6c.184 0 .333.15.333.333v1.334c0 .184-.15.333-.333.333h-2a.333.333 0 01-.334-.333V6.333c0-.184.15-.333.334-.333h2zm0 3c.184 0 .333.15.333.333v1.334c0 .184-.15.333-.333.333h-2a.333.333 0 01-.334-.333V9.333c0-.184.15-.333.334-.333h2zm0 3c.184 0 .333.15.333.333v1.334c0 .184-.15.333-.333.333h-2a.333.333 0 01-.334-.333v-1.334c0-.184.15-.333.334-.333h2z" fill="currentColor" fill-rule="evenodd"/></symbol><symbol viewBox="0 0 24 24" id="contact" xmlns="http://www.w3.org/2000/svg"><g fill="none" fill-rule="evenodd"><path d="M0 0h24v24H0z"/><path d="M18.55 2.73H7.34c-1.001 0-1.87.868-1.87 1.87v.933h1.87v.934H3.602v1.869H5.47v1.869h1.87v.934H3.603v1.868h1.869v1.869h1.869v.934H3.604v1.869h1.869v1.868c0 1.001.867 1.869 1.868 1.869h11.211c1 0 1.869-.867 1.869-1.869V4.6c0-1-.868-1.868-1.869-1.868h-.002zm-5.605 5.606c1 0 1.868.867 1.868 1.869 0 1.001-.867 1.868-1.868 1.868-1.002 0-1.869-.867-1.869-1.868 0-1.002.867-1.869 1.869-1.869zm-2.803 7.474c0-1.668 1.135-2.803 2.803-2.803s2.802 1.135 2.802 2.803h-5.605z" fill="currentColor" fill-rule="nonzero"/></g></symbol><symbol viewBox="0 0 24 24" id="copy" xmlns="http://www.w3.org/2000/svg"><g fill="none" fill-rule="evenodd"><path d="M0 0h24v24H0z"/><path d="M15.747 2.73H9.475c-.934 0-1.668.735-1.668 1.669v11.878c0 .934.734 1.668 1.668 1.668h8.474c.934 0 1.668-.734 1.668-1.668v-9.61l-3.87-3.937zm2.202 13.614H9.475V4.399h5.071v3.403h3.403v8.542zM6.071 6.134H4.336v13.613c0 .934.734 1.668 1.668 1.668h10.21v-1.668H6.071V6.134z" fill="currentColor" fill-rule="nonzero"/></g></symbol><symbol viewBox="0 0 24 24" id="csv" xmlns="http://www.w3.org/2000/svg"><path fill="currentColor" d="M19.2 6.285v14.667c0 .18-.076.341-.196.457a.678.678 0 01-.472.19H5.468a.678.678 0 01-.472-.19.635.635 0 01-.196-.457V3.047c0-.18.076-.341.196-.457a.678.678 0 01.472-.19h9.737c.087 0 .167.039.222.098l3.671 3.576a.278.278 0 01.102.214v-.003zm-.581 14.667V6.566h-3.414a.287.287 0 01-.29-.281V2.959H5.468a.09.09 0 00-.061.025.083.083 0 00-.026.06v17.905c0 .024.011.045.026.06a.09.09 0 00.061.024h13.064a.09.09 0 00.061-.024.083.083 0 00.026-.06v.003zM16.99 13.2c0 .884-.727 1.6-1.625 1.6H8.457a1.612 1.612 0 01-1.625-1.6v-2c0-.884.727-1.6 1.625-1.6h6.908c.898 0 1.625.716 1.625 1.6v2zm-5.406-1.805a.498.498 0 00-.232.179.438.438 0 00-.077.246c0 .13.051.239.153.323.098.085.265.151.501.204.145.032.236.063.276.099a.15.15 0 01.058.116c0 .045-.021.084-.061.12a.273.273 0 01-.178.052.29.29 0 01-.236-.102.343.343 0 01-.07-.183l-.508.032a.64.64 0 00.193.418c.116.11.32.165.613.165.167 0 .309-.024.418-.07a.596.596 0 00.258-.207.547.547 0 00.09-.3.455.455 0 00-.068-.249.526.526 0 00-.222-.186 2.322 2.322 0 00-.501-.148.484.484 0 01-.182-.063c-.025-.021-.04-.042-.04-.07 0-.039.015-.07.048-.095a.232.232 0 01.141-.039c.077 0 .135.018.178.053.044.035.07.091.084.165l.505-.028c-.022-.172-.091-.299-.207-.38-.117-.08-.287-.12-.509-.12-.178 0-.32.025-.425.068zm1.95 1.641h.582l.642-1.677h-.544l-.385 1.206-.389-1.206h-.56l.654 1.677zm-4.18-.843v-.008c0 .208.044.38.131.514a.724.724 0 00.309.281c.12.053.272.08.46.08.157 0 .284-.024.386-.066a.647.647 0 00.254-.193.85.85 0 00.149-.32l-.468-.137a.511.511 0 01-.113.242c-.05.057-.13.085-.232.085-.106 0-.19-.032-.247-.102-.059-.07-.088-.197-.088-.384 0-.15.026-.26.073-.33a.32.32 0 01.28-.14.3.3 0 01.254.123.43.43 0 01.05.112l.473-.102a.77.77 0 00-.28-.394c-.127-.084-.298-.126-.515-.126-.28 0-.494.077-.647.225-.152.147-.229.362-.229.64z"/></symbol><symbol viewBox="0 0 24 24" id="customers" xmlns="http://www.w3.org/2000/svg"><g fill="none" fill-rule="evenodd"><path d="M0 0h24v24H0z"/><path d="M19.485 6.467H12.01L10.142 4.6H4.537c-1.001 0-1.869.867-1.869 1.868v11.211c0 1 .867 1.869 1.869 1.869h14.948c1 0 1.868-.868 1.868-1.869V8.335c0-1-.867-1.868-1.868-1.868zM14.813 9.27c1.001 0 1.869.867 1.869 1.869 0 1.001-.867 1.868-1.869 1.868-1 0-1.868-.867-1.868-1.868 0-1.002.867-1.869 1.868-1.869zm3.737 7.474h-7.474v-.934c0-1.268 2.47-1.869 3.737-1.869s3.736.601 3.736 1.869v.934h.001z" fill="currentColor" fill-rule="nonzero"/></g></symbol><symbol viewBox="0 0 24 24" id="dashboard" xmlns="http://www.w3.org/2000/svg"><path d="M12.028 11.128l.024.016.017.026.266.659C13.445 14.604 14 16.329 14 17a2 2 0 11-4 0c0-.613.462-2.103 1.387-4.468l.544-1.364a.074.074 0 01.097-.04zM12 16a1 1 0 100 2 1 1 0 000-2zm-5.86-1.703l.079.314.084.276.09.255.124.297.122.259c.075.148.156.293.242.434l.106.166.097.143.172.233.192.235.233.258a.137.137 0 01-.015.177l-1.168 1.168a.215.215 0 01-.287.008l-.017-.016A8 8 0 0111.868 5L12 5a8 8 0 015.874 13.431l-.068.073a.215.215 0 01-.286.023l-.022-.02-1.164-1.163a.137.137 0 01-.015-.177l.02-.023c.119-.125.232-.254.34-.388l.196-.257.145-.211.177-.288.124-.224.067-.134.037-.075c.07-.147.133-.296.19-.449l.12-.348c.046-.152.087-.306.122-.462l.06-.308a6.038 6.038 0 00.046-1.672L17.917 12l-.011-.064-.05-.252-.09-.348-.062-.202-.058-.17-.069-.181-.078-.187-.034-.076-.114-.236-.149-.275-.153-.252a6.033 6.033 0 00-1.438-1.55l-.143-.104-.218-.147-.146-.092-.157-.092-.23-.123-.275-.131-.292-.121-.245-.088-.288-.089-.185-.048-.262-.058-.17-.031a6.038 6.038 0 00-1.672-.046L11 7.083l-.305.06-.13.03-.23.06-.201.063-.162.056-.19.071-.186.078-.076.034-.236.114-.275.149-.241.146-.245.165-.134.099c-.404.305-.768.66-1.083 1.055l-.197.26-.1.146-.142.222-.095.162a5.98 5.98 0 00-.237.467l-.112.263-.069.18-.071.21-.077.263a5.964 5.964 0 00-.112.5L6.083 12a6.041 6.041 0 00-.046 1.672l.046.328c.017.1.036.199.057.297z" fill="currentColor"/></symbol><symbol viewBox="0 0 24 24" id="delete" xmlns="http://www.w3.org/2000/svg"><g fill="none" fill-rule="evenodd"><path d="M0 0h24v24H0z"/><path d="M14.947 4.666V2.731H9.074v1.935h-5.94v2.002h17.751V4.666h-5.938zm-9.81 3.003V19.48c0 1.068.868 1.935 1.936 1.935h9.809a1.936 1.936 0 001.935-1.935V7.669H5.137zm5.872 9.809H9.074v-5.873h1.935v5.873zm3.938 0H13.01v-5.873h1.936v5.873z" fill="currentColor" fill-rule="nonzero"/></g></symbol><symbol viewBox="0 0 24 24" id="deny" xmlns="http://www.w3.org/2000/svg"><g fill="none" fill-rule="evenodd"><path d="M0 0h24v24H0z"/><path d="M12 5a7 7 0 110 14 7 7 0 010-14zm3.4 4.572l-.972-.971a.343.343 0 00-.465-.02l-.02.02L12 10.543 10.057 8.6a.343.343 0 00-.464-.02l-.021.02-.971.97a.343.343 0 00-.02.466l.02.02L10.543 12 8.6 13.943a.343.343 0 00-.02.464l.02.021.97.971c.128.128.33.134.466.02l.02-.02L12 13.457l1.943 1.942c.127.128.33.134.464.02l.021-.02.971-.97a.343.343 0 00.02-.466l-.02-.02L13.457 12l1.942-1.943a.343.343 0 00.02-.464l-.02-.021-.97-.971.97.97z" fill="currentColor"/></g></symbol><symbol viewBox="0 0 24 24" id="discount" xmlns="http://www.w3.org/2000/svg"><g fill="none" fill-rule="evenodd"><path d="M0 0h24v24H0z"/><path d="M9.475 3.13c-.334 0-.668.134-.868.468L7.473 5.8l-2.403.4c-.534.134-.867.535-.8 1.069l.333 2.402-1.668 1.736c-.334.334-.334.934 0 1.268l1.668 1.735-.334 2.403c-.066.467.267.934.734 1.068l2.403.4 1.135 2.136c.2.467.8.6 1.201.4l2.202-1.068 2.202 1.068c.467.2 1 .067 1.201-.4l1.135-2.136 2.403-.4c.467-.067.8-.534.734-1.068l-.334-2.403 1.668-1.735c.334-.334.334-.934 0-1.268L19.285 9.67l.334-2.402c.066-.468-.267-.934-.734-1.068l-2.403-.4-1.135-2.135c-.2-.468-.8-.601-1.201-.401l-2.135 1.068-2.202-1.068c-.134-.067-.2-.133-.334-.133zM9.34 7.603c1.001 0 1.802.8 1.802 1.802 0 1.001-.8 1.802-1.802 1.802-1.001 0-1.802-.8-1.802-1.802 0-1.001.801-1.802 1.802-1.802zm4.805.467l1.068.801-5.339 7.14-1.068-.8 5.339-7.14zm-4.805.4a.883.883 0 00-.867.868c0 .466.4.867.867.867.468 0 .868-.4.868-.867a.884.884 0 00-.868-.868zm5.339 4.472c1 0 1.802.8 1.802 1.802 0 1.001-.8 1.802-1.802 1.802a1.795 1.795 0 01-1.802-1.802c0-1.002.8-1.802 1.802-1.802zm0 .934c-.467 0-.867.4-.867.867 0 .467.4.867.867.867.467 0 .867-.4.867-.867 0-.467-.333-.867-.867-.867z" fill="currentColor" fill-rule="nonzero"/></g></symbol><symbol viewBox="0 0 24 24" id="discover" xmlns="http://www.w3.org/2000/svg"><path d="M12 4a8 8 0 110 16 8 8 0 010-16zm0 2a6 6 0 100 12 6 6 0 000-12zm2.906 3.305c.02.07.016.149-.012.223l-1.48 3.886-3.886 1.48c-.188.072-.383-.017-.434-.199a.355.355 0 01.012-.223l1.48-3.886 3.886-1.48c.188-.072.383.017.434.199zm-3.613 1.988a1 1 0 101.414 1.414 1 1 0 00-1.414-1.414z" fill="currentColor"/></symbol><symbol viewBox="0 0 24 24" id="documents" xmlns="http://www.w3.org/2000/svg"><path d="M15.086 4a1 1 0 01.707.293l2.914 2.914a1 1 0 01.293.707v11.753c0 .184-.15.333-.333.333H5.333A.333.333 0 015 19.667V4.333C5 4.15 5.15 4 5.333 4h9.753zm-.42 12c.185 0 .334.15.334.333v.334c0 .184-.15.333-.333.333H7.333A.333.333 0 017 16.667v-.334c0-.184.15-.333.333-.333h7.334zm2-2c.185 0 .334.15.334.333v.334c0 .184-.15.333-.333.333H7.333A.333.333 0 017 14.667v-.334c0-.184.15-.333.333-.333h9.334zm0-2c.185 0 .334.15.334.333v.334c0 .184-.15.333-.333.333H7.333A.333.333 0 017 12.667v-.334c0-.184.15-.333.333-.333h9.334zm0-2c.185 0 .334.15.334.333v.334c0 .184-.15.333-.333.333H7.333A.333.333 0 017 10.667v-.334c0-.184.15-.333.333-.333h9.334zm-6-2c.185 0 .334.15.334.333v.334c0 .184-.15.333-.333.333H7.333A.333.333 0 017 8.667v-.334C7 8.15 7.15 8 7.333 8h3.334z" fill="currentColor" fill-rule="evenodd"/></symbol><symbol viewBox="0 0 24 24" id="dollar-bill" xmlns="http://www.w3.org/2000/svg"><g fill="none" fill-rule="evenodd"><path d="M0 0h24v24H0z"/><path d="M2.668 5.533v13.08h18.685V5.533H2.668zm6.54 11.211l-4.671-4.671V7.4h10.276l4.672 4.672v4.671H9.208zm5.605-4.671a2.803 2.803 0 11-5.605 0 2.803 2.803 0 015.605 0z" fill="currentColor" fill-rule="nonzero"/></g></symbol><symbol viewBox="0 0 24 24" id="dollar-sign" xmlns="http://www.w3.org/2000/svg"><g fill="none" fill-rule="evenodd"><path d="M0 0h24v24H0z"/><path d="M15.29 14.258c0 .797-.26 1.483-.778 2.058-.518.576-1.191.931-2.02 1.067v1.367a.243.243 0 01-.07.18.243.243 0 01-.18.07h-1.054a.24.24 0 01-.176-.074.24.24 0 01-.074-.176v-1.367a4.924 4.924 0 01-.996-.242 5.246 5.246 0 01-.793-.348 5.26 5.26 0 01-.578-.375 4.46 4.46 0 01-.364-.293 1.987 1.987 0 01-.136-.14c-.089-.11-.094-.217-.016-.32l.805-1.056c.036-.052.096-.083.18-.093.077-.01.14.013.187.07l.015.016c.589.515 1.222.84 1.899.976.193.042.385.063.578.063.422 0 .793-.112 1.113-.336.32-.224.48-.542.48-.953a.792.792 0 00-.116-.415 1.465 1.465 0 00-.262-.328 2.143 2.143 0 00-.457-.293c-.209-.106-.38-.19-.516-.25-.135-.06-.344-.144-.625-.254a62.336 62.336 0 00-.48-.195 13.46 13.46 0 01-.48-.207 5.685 5.685 0 01-.489-.242 8.046 8.046 0 01-.441-.277 2.752 2.752 0 01-.418-.332 4.86 4.86 0 01-.34-.383c-.12-.149-.212-.3-.278-.453a3.128 3.128 0 01-.164-.52 2.715 2.715 0 01-.066-.61c0-.718.255-1.348.766-1.89.51-.542 1.174-.89 1.992-1.047V5.25a.24.24 0 01.074-.176.24.24 0 01.176-.074h1.054c.073 0 .133.023.18.07.047.047.07.107.07.18v1.375c.297.031.585.091.864.18.278.088.505.175.68.261.174.086.34.184.495.293.157.11.258.185.305.227.047.042.086.078.117.11.089.093.102.192.04.296l-.633 1.14c-.042.079-.102.12-.18.126a.249.249 0 01-.211-.055 1.605 1.605 0 00-.113-.094 4.267 4.267 0 00-.305-.207 3.49 3.49 0 00-1.04-.453 2.59 2.59 0 00-.667-.09c-.495 0-.898.112-1.21.336-.313.224-.47.513-.47.867a.88.88 0 00.297.7c.11.101.212.187.309.258.096.07.242.15.437.242a12.091 12.091 0 001.02.425 10.589 10.589 0 011.227.52c.25.122.446.233.59.332.142.099.304.23.484.39.18.162.317.328.414.497.096.17.178.368.246.597.067.23.101.474.101.735z" fill="currentColor"/></g></symbol><symbol viewBox="0 0 24 24" id="download" xmlns="http://www.w3.org/2000/svg"><path d="M5.667 15c.184 0 .333.15.333.333V17h12v-1.667c0-.184.15-.333.333-.333h1.334c.184 0 .333.15.333.333v3.334c0 .184-.15.333-.333.333H4.333A.333.333 0 014 18.667v-3.334c0-.184.15-.333.333-.333h1.334zm6.995-10c.185 0 .334.15.334.334v5.644l1.855-1.893a.333.333 0 01.45-.024l.027.024 1.076 1.099a.333.333 0 010 .466L12.24 14.9a.332.332 0 01-.22.1h-.006a.332.332 0 01-.25-.096l-4.17-4.254a.333.333 0 010-.466l1.078-1.099a.333.333 0 01.471-.005l1.86 1.898V5.334c0-.184.15-.333.334-.333h1.325z" fill="currentColor"/></symbol><symbol viewBox="0 0 24 24" id="drag" xmlns="http://www.w3.org/2000/svg"><g fill="none" fill-rule="evenodd"><path d="M0 0h24v24H0z"/><path d="M8.273 18.613l3.804 2.869 3.871-2.87H8.273zm7.674-12.946l-3.87-2.87-3.804 2.87h7.674zM4.403 7.335H19.75v1.936H4.403V7.335zm0 3.87H19.75v1.936H4.403v-1.936zm0 3.804H19.75v1.936H4.403v-1.936z" fill="currentColor" fill-rule="nonzero"/></g></symbol><symbol viewBox="0 0 24 24" id="edit" xmlns="http://www.w3.org/2000/svg"><g fill="none" fill-rule="evenodd"><path d="M0 0h24v24H0z"/><path d="M18.083 21.415H5.004c-1 0-1.869-.867-1.869-1.868V6.467c0-1 .868-1.868 1.869-1.868h6.54v1.868h-6.54v13.08h13.08v-8.408h1.868v8.408c0 1-.867 1.868-1.869 1.868zm-7.674-10.81l2.602 2.602-3.27.668.668-3.27zm9.943-4.671a1.813 1.813 0 000-2.603 1.813 1.813 0 00-2.603 0l-6.006 5.873 2.603 2.603 6.006-5.873z" fill="currentColor" fill-rule="nonzero"/></g></symbol><symbol viewBox="0 0 24 24" id="ellipse" xmlns="http://www.w3.org/2000/svg"><path d="M18 10a2 2 0 110 4 2 2 0 010-4zm-6 0a2 2 0 110 4 2 2 0 010-4zm-6 0a2 2 0 110 4 2 2 0 010-4z" fill="currentColor"/></symbol><symbol viewBox="0 0 24 24" id="email" xmlns="http://www.w3.org/2000/svg"><path d="M14.167 13.125l5.72 4.291a.332.332 0 01-.22.084H4.333a.332.332 0 01-.22-.084l5.72-4.291L11.8 14.6a.333.333 0 00.4 0l1.967-1.475zM4 8.75l5 3.75-5 3.75v-7.5zm16 0v7.5l-5-3.75 5-3.75zm-.333-2.25c.184 0 .333.15.333.333V7.5l-7.8 5.85a.333.333 0 01-.4 0L4 7.5v-.667c0-.184.15-.333.333-.333h15.334z" fill="currentColor"/></symbol><symbol viewBox="0 0 24 24" id="euro" xmlns="http://www.w3.org/2000/svg"><path d="M13.327 6c1.329 0 2.595.556 3.585 1.568.05.063.075.14.075.215a.34.34 0 01-.08.197l-1.11 1.03c-.1.1-.276.1-.389-.013-.59-.594-1.329-.923-2.093-.923-.982 0-1.906.538-2.523 1.426h1.875c.184 0 .333.15.333.333v1.334c0 .184-.15.333-.333.333H10.11a4.842 4.842 0 00-.004 1h2.56c.184 0 .333.15.333.333v1.334c0 .184-.15.333-.333.333h-1.894c.62.911 1.56 1.452 2.542 1.452.752 0 1.504-.317 2.093-.91a.273.273 0 01.368-.03l.02.016 1.104.974c.062.063.1.14.1.215a.306.306 0 01-.088.215C15.935 17.444 14.656 18 13.327 18c-2.074 0-3.97-1.391-4.837-3.5H7.333A.333.333 0 017 14.167v-1.334c0-.184.15-.333.333-.333h.688l-.012-.201a5.62 5.62 0 01.004-.664l.008-.135h-.688A.333.333 0 017 11.167V9.833c0-.184.15-.333.333-.333H8.49C9.357 7.391 11.253 6 13.327 6z" fill="currentColor"/></symbol><symbol viewBox="0 0 24 24" id="event" xmlns="http://www.w3.org/2000/svg"><path d="M12.678 7.256l7.228 7.229a.32.32 0 010 .452l-1.13 1.13a1.917 1.917 0 00-2.71 2.71l-1.13 1.13a.32.32 0 01-.451 0l-7.229-7.23 5.422-5.42zm-1.68 3.747a.084.084 0 00-.011.095l.632 1.224-.945.945a.084.084 0 00-.014.098.09.09 0 00.09.048l1.356-.18.665 1.256a.09.09 0 00.09.047.08.08 0 00.07-.07l.18-1.355 1.356-.18a.08.08 0 00.07-.07.09.09 0 00-.048-.09l-1.256-.665.18-1.356a.09.09 0 00-.048-.09.084.084 0 00-.098.014l-.945.945-1.224-.632a.083.083 0 00-.1.016zm-5.775-3.07a1.917 1.917 0 002.71-2.71l1.13-1.13a.32.32 0 01.452 0L12 6.579 6.578 12 4.094 9.515a.32.32 0 010-.452l1.13-1.13z" fill="currentColor"/></symbol><symbol viewBox="0 0 24 24" fill="none" id="export" xmlns="http://www.w3.org/2000/svg"><path fill="currentColor" fill-opacity=".01" d="M0 0h24v24H0z"/><path fill-rule="evenodd" clip-rule="evenodd" d="M6.862 10.833c.088 0 .173.035.236.098l1.333 1.333a.333.333 0 01-.236.57H6V18h12v-5.167h-2.195a.333.333 0 01-.236-.569l1.333-1.333a.333.333 0 01.236-.098h2.529c.184 0 .333.15.333.334v8.5c0 .184-.15.333-.333.333H4.333A.333.333 0 014 19.667v-8.5c0-.184.15-.334.333-.334h2.529zm5.374-6.737l4.168 4.254a.333.333 0 010 .466l-1.076 1.1a.333.333 0 01-.472.004l-1.86-1.898v5.644c0 .184-.15.334-.334.334h-1.325a.333.333 0 01-.334-.334V8.022L9.148 9.915a.333.333 0 01-.45.024l-.026-.024-1.077-1.099a.333.333 0 010-.466l4.164-4.25a.332.332 0 01.221-.1h.005a.333.333 0 01.25.096z" fill="currentColor"/></symbol><symbol viewBox="0 0 24 24" fill="none" id="eye-dropper" xmlns="http://www.w3.org/2000/svg"><path d="M19.1 4.9c.7.8.8 2 0 2.8v.1l-1.7 1.6.5.5c.1.1.1.3 0 .5l-1.4 1.4c-.2.1-.4.1-.5 0l-.5-.5-7 7.1-2.5.3-1 .5-.2-.2.5-1 .3-2.5 7.1-7-.5-.5c-.1-.1-.1-.3 0-.5l1.4-1.4c.2-.1.4-.1.5 0l.5.5 1.6-1.7h.1c.8-.8 2-.7 2.8 0zm-4.3 5.7l-1.4-1.4L6.6 16l-.3 1.7 1.7-.3 6.8-6.8z" fill="currentColor"/></symbol><symbol viewBox="0 0 24 24" id="facebook" xmlns="http://www.w3.org/2000/svg"><path d="M12 4a8 8 0 00-8 8c0 4.01 2.955 7.323 6.804 7.901V14.12h-1.98v-2.103h1.98v-1.399c0-2.317 1.129-3.333 3.054-3.333.922 0 1.41.068 1.64.099v1.835h-1.313c-.817 0-1.102.776-1.102 1.649v1.15h2.395l-.325 2.102h-2.07v5.798C16.987 19.388 20 16.05 20 12a8 8 0 00-8-8z" fill="currentColor"/></symbol><symbol viewBox="0 0 84 98" fill="none" id="file" xmlns="http://www.w3.org/2000/svg"><path fill-rule="evenodd" clip-rule="evenodd" d="M57.473 4H12a4 4 0 00-4 4v74a4 4 0 004 4h60a4 4 0 004-4V22.527L57.473 4z" fill="#fff"/><path fill-rule="evenodd" clip-rule="evenodd" d="M57.473 4L76 22.527H61.473a4 4 0 01-4-4V4z" fill="#C5C9D4"/><rect x="16" y="36" width="16" height="4" rx="1" fill="#C5C9D4"/><rect x="16" y="46" width="16" height="4" rx="1" fill="#C5C9D4"/><rect x="16" y="56" width="16" height="4" rx="1" fill="#C5C9D4"/><rect x="16" y="66" width="16" height="4" rx="1" fill="#C5C9D4"/><rect x="38" y="36" width="30" height="4" rx="1" fill="#C5C9D4"/><rect x="38" y="46" width="30" height="4" rx="1" fill="#C5C9D4"/><rect x="38" y="56" width="30" height="4" rx="1" fill="#C5C9D4"/><rect x="38" y="66" width="30" height="4" rx="1" fill="#C5C9D4"/></symbol><symbol viewBox="0 0 24 24" id="filters" xmlns="http://www.w3.org/2000/svg"><g fill="none" fill-rule="evenodd"><path d="M0 0h24v24H0z"/><path d="M18.55 9.27c1.601 0 2.803-1.201 2.803-2.803 0-1.601-1.202-2.802-2.803-2.802-1.201 0-2.269.734-2.603 1.868H2.668v1.869h13.28c.333 1.135 1.4 1.869 2.602 1.869V9.27zm-9.342 0c-1.201 0-2.269.734-2.603 1.869H2.668v1.868h3.937c.401 1.135 1.402 1.869 2.603 1.869 1.201 0 2.269-.734 2.603-1.869h9.542V11.14h-9.542c-.334-1.135-1.402-1.869-2.603-1.869zm9.342 5.606c-1.201 0-2.269.734-2.603 1.869H2.668v1.868h13.28c.4 1.135 1.4 1.869 2.602 1.869 1.601 0 2.803-1.201 2.803-2.803 0-1.601-1.202-2.802-2.803-2.802v-.001z" fill="currentColor" fill-rule="nonzero"/></g></symbol><symbol viewBox="0 0 24 24" id="finance" xmlns="http://www.w3.org/2000/svg"><g fill="currentColor" fill-rule="nonzero"><path d="M12.355 16.219v-.094c-.48-.004-.937-.031-1.378-.066a6.268 6.268 0 01-.997 1.71 16.01 16.01 0 002.407.211zm0 0M10.25 12.781A5.21 5.21 0 006.707 8.88a5.223 5.223 0 00-5.016 1.117 5.184 5.184 0 00-.343 7.317 5.18 5.18 0 007.312.34 5.143 5.143 0 001.695-3.829c0-.347-.039-.699-.105-1.043zm-5.074.348a1.962 1.962 0 01.531 3.851v.457c0 .286-.234.52-.52.52a.522.522 0 01-.519-.52v-.453a1.976 1.976 0 01-1.457-1.894.52.52 0 111.039 0 .921.921 0 10.922-.926c-.89 0-1.664-.598-1.89-1.453a1.973 1.973 0 011.39-2.402v-.223c0-.285.234-.52.52-.52.285 0 .519.235.519.52v.234a1.962 1.962 0 011.43 1.89c0 .286-.235.52-.52.52a.522.522 0 01-.52-.52.93.93 0 00-.925-.925.93.93 0 00-.926.926c0 .508.418.918.926.918zm0 0M12.34 15.082l-.031-1.84a17.94 17.94 0 01-.942-.035 6.343 6.343 0 01-.094 1.828c.344.031.704.047 1.067.047zm0 0M18.027 6.484c-.359.188-.738.34-1.129.454-1.168.355-2.699.546-4.3.546-1.532 0-2.993-.175-4.118-.504a5.646 5.646 0 01-1.12-.433l.035 1.465a5.98 5.98 0 011.625.922c.015.004.027.004.043.007.996.258 2.253.391 3.535.391 1.488 0 2.945-.187 4-.504 1.129-.344 1.379-.7 1.379-.77 0-.07-.008-.14.05-.21zm0 0M16.594 4.426c-1.055-.324-2.516-.504-4-.504-1.496 0-2.899.18-3.95.504-1.093.332-1.332.656-1.34.761 0 0 .008 0 .008.012.024.114.336.465 1.454.79 1.03.3 2.394.468 3.828.468 1.484 0 2.941-.184 3.992-.5 1.129-.34 1.383-.695 1.383-.77 0-.066-.25-.421-1.375-.761zm0 0M23.988 18.797v-1.559c-.347.176-.71.328-1.09.442-1.164.351-2.683.547-4.289.547-1.425 0-2.812-.165-3.902-.45a6.66 6.66 0 01-1.293-.472l.027 1.508v.011c0 .078.227.426 1.325.762 1.039.316 2.441.492 3.941.492 1.496 0 2.902-.18 3.953-.508 1.098-.343 1.336-.699 1.336-.773zm0 0M18.016 9.383c-.36.183-.73.336-1.121.449-1.168.352-2.704.543-4.305.543-.793 0-1.574-.05-2.356-.148.422.582.735 1.234.93 1.933.45.031.93.05 1.43.05h.05c.852-.933 3.145-1.401 5.372-1.464zm0 0M22.863 14.809c-1.16.34-2.664.527-4.246.527-1.531 0-2.992-.176-4.117-.504-.39-.11-.77-.254-1.133-.434l.02 1.196.008.433c.402.504 2.34 1.153 5.218 1.153 1.5 0 2.918-.176 3.985-.496 1.12-.344 1.367-.696 1.367-.77 0-.059.031-.121.031-.172H24v-1.375c-.363.18-.742.336-1.137.442zm0 0M22.617 12.29c-1.058-.325-2.512-.497-4-.497h-.086c-1.383 0-2.695.156-3.703.445-1.078.301-1.445.64-1.492.782-.004.011-.004.015-.004.023l.008.02c.031.109.34.46 1.457.789 1.031.296 2.394.46 3.828.46 1.48 0 2.883-.167 3.945-.488 1.157-.34 1.414-.699 1.418-.777v-.004c-.004-.078-.261-.422-1.37-.754zm0 0"/></g></symbol><symbol viewBox="0 0 24 24" id="fix" xmlns="http://www.w3.org/2000/svg"><g fill="none" fill-rule="evenodd"><path d="M0 0h24v24H0z"/><path d="M18.817 8.803c0-2.736-1.534-5.004-3.87-6.072v5.138c0 1.668-1.268 2.936-2.936 2.936S9.075 9.537 9.075 7.87V2.731C6.739 3.799 5.204 6.134 5.204 8.803c0 2.336 1.135 4.338 2.936 5.539v7.073h2.936v-4.871h1.935v4.871h2.936v-7.073c1.668-1.135 2.87-3.203 2.87-5.539z" fill="currentColor"/></g></symbol><symbol viewBox="0 0 24 24" id="hamburger" xmlns="http://www.w3.org/2000/svg"><path d="M4.9 5.1h14.2c.5 0 .9.4.9.9s-.4.9-.9.9H4.9c-.5 0-.9-.4-.9-.9s.4-.9.9-.9zm0 6h14.2c.5 0 .9.4.9.9s-.4.9-.9.9H4.9c-.5 0-.9-.4-.9-.9s.4-.9.9-.9zm0 6h14.2c.5 0 .9.4.9.9s-.4.9-.9.9H4.9c-.5 0-.9-.4-.9-.9s.4-.9.9-.9z" fill="currentColor"/></symbol><symbol viewBox="0 0 24 24" id="heart" xmlns="http://www.w3.org/2000/svg"><path d="M17.938 5.736c1.006.647 1.73 1.668 1.97 2.815a4.404 4.404 0 01-.546 3.185c-.388.636-2.814 3.047-7.278 7.234l-.005.004a.134.134 0 01-.149.006l-.014-.01c-4.464-4.187-6.89-6.598-7.278-7.234a4.404 4.404 0 01-.545-3.185c.239-1.147.963-2.168 1.969-2.815 1.091-.704 2.486-.912 3.75-.586a4.697 4.697 0 011.763.887c.148.12.288.25.425.383.179-.171.32-.299.425-.383a4.697 4.697 0 011.763-.887c1.264-.326 2.659-.118 3.75.586z" fill="currentColor"/></symbol><symbol viewBox="0 0 24 24" id="heart-outline" xmlns="http://www.w3.org/2000/svg"><path d="M17.938 5.736c1.006.647 1.73 1.668 1.97 2.815a4.404 4.404 0 01-.546 3.185l-.025.04c-.461.693-2.879 3.091-7.253 7.194l-.005.004a.134.134 0 01-.149.006l-.014-.01-1.032-.97c-3.807-3.591-5.889-5.679-6.246-6.264a4.404 4.404 0 01-.545-3.185c.239-1.147.963-2.168 1.969-2.815 1.091-.704 2.486-.912 3.75-.586a4.697 4.697 0 011.763.887c.148.12.288.25.425.383l.086-.082a4.697 4.697 0 012.102-1.187c1.264-.327 2.659-.119 3.75.585zm-8.376.383c-1.005-.26-2.11-.089-2.96.458-.79.508-1.348 1.304-1.53 2.177a3.404 3.404 0 00.42 2.46l.02.032c.35.52 2.373 2.545 5.875 5.853l.613.578 1.047-.988c3.234-3.064 5.104-4.943 5.441-5.442l.02-.033c.446-.729.596-1.614.42-2.459-.177-.851-.711-1.628-1.468-2.137l-.062-.041c-.85-.547-1.955-.717-2.961-.458-.5.128-.972.367-1.385.697l-.043.036a6.441 6.441 0 00-.241.217l-.077.073-.696.666-.691-.67-.083-.08a3.698 3.698 0 00-1.66-.94z" fill="currentColor"/></symbol><symbol viewBox="0 0 24 24" id="history" xmlns="http://www.w3.org/2000/svg"><g fill="none" fill-rule="evenodd"><path d="M0 0h24v24H0z"/><path d="M12.679 3.399c-4.404 0-8.008 3.603-8.008 8.008H2l3.47 3.47.067.133 3.603-3.603H6.472A6.194 6.194 0 0112.678 5.2c3.403 0 6.206 2.802 6.206 6.206 0 3.403-2.803 6.206-6.206 6.206-1.735 0-3.27-.734-4.404-1.802l-1.268 1.268a7.967 7.967 0 005.672 2.335c4.404 0 8.008-3.603 8.008-8.008 0-4.405-3.603-8.008-8.008-8.008zm-.868 4.47v4.472l3.804 2.268.667-1.068-3.137-1.868V7.869h-1.334z" fill="currentColor" fill-rule="nonzero"/></g></symbol><symbol viewBox="0 0 24 24" id="images" xmlns="http://www.w3.org/2000/svg"><path d="M19.667 4c.184 0 .333.15.333.333v15.334c0 .184-.15.333-.333.333H4.333A.333.333 0 014 19.667V4.333C4 4.15 4.15 4 4.333 4h15.334zm-10.25 8.79L6 16.207V18h12v-.293l-3.583-3.583-1.834 1.833-3.166-3.167zM18 6H6v8.793l3.417-3.417 3.166 3.167 1.811-1.81.149.148L18 16.301V6zm-3 1a2 2 0 110 4 2 2 0 010-4zm0 1a1 1 0 100 2 1 1 0 000-2z" fill="currentColor"/></symbol><symbol viewBox="0 0 24 24" fill="none" id="import" xmlns="http://www.w3.org/2000/svg"><path fill="currentColor" fill-opacity=".01" d="M0 0h24v24H0z"/><path fill-rule="evenodd" clip-rule="evenodd" d="M6.862 10.833c.088 0 .173.035.236.098l1.333 1.333a.333.333 0 01-.236.57H6V18h12v-5.167h-2.195a.333.333 0 01-.236-.569l1.333-1.333a.333.333 0 01.236-.098h2.529c.184 0 .333.15.333.334v8.5c0 .184-.15.333-.333.333H4.333A.333.333 0 014 19.667v-8.5c0-.184.15-.334.333-.334h2.529zm4.902 3.071L7.594 9.65a.333.333 0 010-.466l1.078-1.099a.333.333 0 01.471-.005l1.86 1.898V4.334c0-.184.15-.333.334-.333h1.325c.184 0 .334.149.334.333v5.644l1.855-1.893a.333.333 0 01.45-.024l.027.024 1.076 1.099a.333.333 0 010 .466L12.24 13.9a.333.333 0 01-.22.1h-.006a.333.333 0 01-.25-.096z" fill="currentColor"/></symbol><symbol viewBox="0 0 24 24" id="info" xmlns="http://www.w3.org/2000/svg"><path d="M16.943 7.05A6.995 6.995 0 005 12a7.002 7.002 0 004.319 6.467 6.993 6.993 0 007.624-1.517 6.982 6.982 0 000-9.9zm-4.014 8.47a.2.2 0 01-.2.2h-1.467a.2.2 0 01-.2-.2V11.7c0-.11.09-.2.2-.2h1.467c.11 0 .2.09.2.2v3.82zm-.933-5.2a1.023 1.023 0 110-2.045 1.023 1.023 0 010 2.046z" fill="currentColor"/></symbol><symbol viewBox="0 0 24 24" id="insights" xmlns="http://www.w3.org/2000/svg"><path d="M14 17a2 2 0 01-2 2c-1.088 0-1.973-.919-2-2h4zM12 5a5 5 0 015 5c0 1.213-.788 2.553-2.363 4.02A2 2 0 0014 15.484V16h-4v-.516a2 2 0 00-.637-1.464C7.788 12.553 7 11.213 7 10a5 5 0 015-5zM9.879 7.879A2.99 2.99 0 009 10c0 .804.316 1.534.831 2.073l.048.048.707-.707A1.994 1.994 0 0110 10c0-.533.208-1.017.548-1.375l.038-.04-.707-.706z" fill="currentColor"/></symbol><symbol viewBox="0 0 24 24" id="instagram" xmlns="http://www.w3.org/2000/svg"><path d="M8.644 4A4.654 4.654 0 004 8.644v6.712A4.654 4.654 0 008.644 20h6.712A4.654 4.654 0 0020 15.356V8.644A4.654 4.654 0 0015.356 4H8.644zm0 1.23h6.712a3.403 3.403 0 013.413 3.414v6.712a3.403 3.403 0 01-3.413 3.413H8.644a3.403 3.403 0 01-3.413-3.413V8.644a3.403 3.403 0 013.413-3.413zm7.971 1.232a.923.923 0 100 1.846.923.923 0 000-1.846zM12 7.692A4.316 4.316 0 007.692 12 4.316 4.316 0 0012 16.308 4.316 4.316 0 0016.308 12 4.316 4.316 0 0012 7.692zm0 1.231A3.068 3.068 0 0115.077 12 3.068 3.068 0 0112 15.077 3.068 3.068 0 018.923 12 3.068 3.068 0 0112 8.923z" fill="currentColor"/></symbol><symbol viewBox="0 0 24 24" id="inventory" xmlns="http://www.w3.org/2000/svg"><path d="M20 18v1.333a.667.667 0 01-.667.667H4.667A.667.667 0 014 19.333V18h16zm-6-8h-4v2h4v-2zM4 4.667C4 4.298 4.298 4 4.667 4H11v4h2V4h6.333c.369 0 .667.298.667.667V17H4V4.667z" fill="currentColor"/></symbol><symbol viewBox="0 0 24 24" id="invoice" xmlns="http://www.w3.org/2000/svg"><g fill="none" fill-rule="evenodd"><path d="M0 0h24v24H0z"/><path d="M20.152 7.669l-4.671-4.672c-.2-.2-.401-.266-.668-.266H4.537c-.534 0-.934.4-.934.934V20.48c0 .534.4.934.934.934h14.948c.534 0 .934-.4.934-.934V8.336a.856.856 0 00-.267-.667zM6.405 12.073h3.27c.266 0 .467-.2.467-.468 0-.267-.2-.467-.467-.467H8.74c-1.268 0-2.336-1.068-2.336-2.335 0-1.135.801-2.069 1.869-2.269v-1h1.869v.933h1.868v1.869H8.74c-.266 0-.467.2-.467.467 0 .268.2.468.467.468h.934c1.268 0 2.336 1.068 2.336 2.335a2.296 2.296 0 01-1.869 2.269v1H8.273v-.934H6.405v-1.868zm11.211 6.54H7.339v-1.869h10.277v1.869zm0-3.737h-3.737v-1.869h3.737v1.869zm0-3.737h-3.737V9.27h3.737v1.869z" fill="currentColor" fill-rule="nonzero"/></g></symbol><symbol viewBox="0 0 24 24" id="license" xmlns="http://www.w3.org/2000/svg"><g fill="none" fill-rule="evenodd"><path d="M0 0h24v24H0z"/><path d="M15.88 6.668v-.867c0-.468-.333-.801-.8-.801H5.804c-.467.067-.8.4-.8.8v6.207c0 .467.333.8.8.8h4.671c0-3.203 2.403-5.738 5.406-6.139zm-5.338 6.94H4.269V4.265h12.412v2.336c.534 0 1.068.066 1.535.2V4.265c0-.868-.734-1.535-1.535-1.535H4.27a1.51 1.51 0 00-1.534 1.535v9.276a1.51 1.51 0 001.534 1.534h6.674c-.267-.4-.334-.934-.401-1.468v.001zm7.675-.8a1.535 1.535 0 11-3.07-.001 1.535 1.535 0 013.07 0zm3.069 0c0-2.537-2.069-4.672-4.671-4.672a4.642 4.642 0 00-4.672 4.671c0 1.602.868 3.003 2.069 3.871l-.534 3.804c-.067.333.067.6.4.8.2.134.601.134.868 0l1.869-1.267 1.868 1.268c.134.066.334.133.468.133s.333-.067.4-.133c.2-.134.401-.468.401-.801l-.534-3.804c1.268-.867 2.069-2.269 2.069-3.87h-.001zm-4.605 3.135a3.061 3.061 0 01-3.07-3.069c0-1.668 1.402-3.07 3.07-3.07 1.669 0 3.07 1.402 3.07 3.07s-1.401 3.07-3.07 3.07z" fill="currentColor" fill-rule="nonzero"/></g></symbol><symbol viewBox="0 0 24 24" id="license-check" xmlns="http://www.w3.org/2000/svg"><g fill="none" fill-rule="evenodd"><path d="M0 0h24v24H0z"/><path d="M17.483 14.276l-2.803-2.803 1.068-1.068 1.735 1.736 3.204-3.204 1.068 1.068-4.272 4.271zm-1.536-7.607v-.801a.74.74 0 00-.734-.734H6.138c-.467 0-.8.333-.8.734v6.073c0 .4.333.734.733.734h4.605a6.052 6.052 0 015.272-6.006zm-5.204 6.806h-6.14V4.399h12.079v2.269c.534 0 1 .067 1.535.2v-2.47c0-.8-.668-1.534-1.535-1.534H4.603A1.51 1.51 0 003.07 4.399v9.075c0 .8.667 1.535 1.534 1.535h6.473c-.133-.534-.267-1.068-.334-1.535zm10.476-.801v-.133l-2.268 2.202-.267.266-.133.134c-.534.4-1.135.6-1.802.6a2.99 2.99 0 01-3.003-3.002 2.99 2.99 0 013.003-3.003c.333 0 .667.067 1 .2l1.135-1.135c-.667-.334-1.335-.534-2.135-.534-2.47 0-4.538 2.069-4.538 4.538 0 1.602.8 3.003 2.068 3.804l-.534 3.67a.672.672 0 00.334.734c.266.134.6.134.8 0l1.869-1.201 1.869 1.201c.133.067.266.134.4.134s.267-.067.401-.134c.134-.066.4-.467.333-.734l-.534-3.67c1.202-.934 2.002-2.335 2.002-3.937z" fill="currentColor" fill-rule="nonzero"/></g></symbol><symbol viewBox="0 0 24 24" id="link" xmlns="http://www.w3.org/2000/svg"><g fill="none" fill-rule="evenodd"><path d="M0 0h24v24H0z"/><path d="M10.715 11.202l-4.443 4.443a1.473 1.473 0 102.083 2.083l4.443-4.443a3.314 3.314 0 01-.755 3.358l-.043.043-2.343 2.343a3.314 3.314 0 01-4.686-4.686L7.314 12a3.314 3.314 0 013.401-.798zm5.32-2.196a.368.368 0 010 .52l-6.508 6.51a.368.368 0 01-.521 0l-1.041-1.042a.368.368 0 010-.52l6.508-6.51a.368.368 0 01.521 0l1.041 1.042zm2.994-4.035a3.314 3.314 0 01.043 4.642l-.043.044L16.686 12a3.314 3.314 0 01-3.4.798l4.43-4.431.031-.032a1.473 1.473 0 00-2.102-2.063l-4.443 4.443A3.314 3.314 0 0112 7.314l2.343-2.343a3.314 3.314 0 014.686 0z" fill="currentColor" fill-rule="nonzero"/></g></symbol><symbol viewBox="0 0 24 24" fill="none" id="link-out" xmlns="http://www.w3.org/2000/svg"><path d="M16.834 20H5.604C4.747 20 4 19.256 4 18.396V7.166c0-.86.745-1.604 1.605-1.604H11v1.604H5.605v11.23h11.23V13h1.604v5.396c0 .859-.744 1.604-1.605 1.604z" fill="#676A6C"/><path fill-rule="evenodd" clip-rule="evenodd" d="M15.688 7.168h-3.136v-1.62h5.896v5.897h-1.62V8.318L11.5 13.647 10.354 12.5l5.334-5.333z" fill="currentColor"/></symbol><symbol viewBox="0 0 24 24" id="location" xmlns="http://www.w3.org/2000/svg"><path d="M12 4a6 6 0 016 6c0 4.8-5.5 10-6 10s-6-5.2-6-10a6 6 0 016-6zm0 4a2 2 0 100 4 2 2 0 000-4z" fill="currentColor"/></symbol><symbol viewBox="0 0 24 24" id="locked" xmlns="http://www.w3.org/2000/svg"><path d="M12 4a5 5 0 015 5v1h1.667c.184 0 .333.15.333.333v9.334c0 .184-.15.333-.333.333H5.333A.333.333 0 015 19.667v-9.334c0-.184.15-.333.333-.333H7V9a5 5 0 015-5zm0 8a2 2 0 00-1.046 3.705l.046.027v1.935c0 .175.136.32.308.332l.025.001h1.334c.175 0 .32-.136.332-.308l.001-.025v-1.935A2 2 0 0012 12zm0-6.333A3.333 3.333 0 008.667 9v1h6.666V9A3.333 3.333 0 0012 5.667z" fill="currentColor"/></symbol><symbol viewBox="0 0 24 24" id="logout" xmlns="http://www.w3.org/2000/svg"><path d="M17.667 4c.184 0 .333.15.333.333v2.862a.333.333 0 01-.569.236L16 6H6v12h10l1.431-1.431a.333.333 0 01.569.236v2.862c0 .184-.15.333-.333.333H4.333A.333.333 0 014 19.667V4.333C4 4.15 4.15 4 4.333 4h13.334zM15.65 7.595l4.25 4.164c.061.061.095.14.099.221v.006a.333.333 0 01-.051.194l-.049.06-4.249 4.165a.333.333 0 01-.467 0l-1.099-1.077a.333.333 0 01-.004-.471l.004-.005 1.894-1.856h-5.645a.333.333 0 01-.333-.333v-1.326c0-.184.15-.333.333-.333h5.645l-1.894-1.856a.333.333 0 010-.476l1.1-1.077a.333.333 0 01.466 0z" fill="currentColor"/></symbol><symbol viewBox="0 0 24 24" id="medical" xmlns="http://www.w3.org/2000/svg"><g fill="none" fill-rule="evenodd"><path d="M0 0h24v24H0z"/><path d="M20.953 6.668c-.267-.2-.534-.2-.868-.067-.734.267-1.334.401-1.802.401-.266-.133-1.601-.534-2.536-.534-.734 0-1.334.2-1.868.467v5.806c.534.2 1.134.267 1.868.267 3.337 0 5.606-4.204 5.606-5.605 0-.267-.2-.534-.401-.734v-.001zM10.142 12.74V6.934c-.534-.267-1.135-.467-1.869-.467-.934 0-2.268.4-2.602.4-.468 0-1.068-.133-1.802-.4-.267 0-.534 0-.868.2-.133.2-.333.467-.333.734 0 1.401 2.269 5.605 5.605 5.605.734 0 1.335-.067 1.869-.267v.001zm2.803-6.54c.534-.266.934-.933.934-1.6 0-1.001-.868-1.87-1.869-1.87s-1.869.868-1.869 1.87c0 .667.401 1.334.934 1.6v7.741H8.273v1.869h2.802v1.869H9.207v1.868h1.868v1.869h1.869v-1.869h1.869V17.68h-1.869v-1.87h2.803v-1.869h-2.803v-7.74z" fill="currentColor" fill-rule="nonzero"/></g></symbol><symbol viewBox="0 0 24 24" id="message" xmlns="http://www.w3.org/2000/svg"><path d="M4.333 16.364A.339.339 0 014 16.021V4.343c0-.19.15-.343.333-.343h15.334c.184 0 .333.154.333.343v11.678c0 .19-.15.343-.333.343H12v3.293c0 .19-.15.343-.333.343a.328.328 0 01-.236-.1L8 16.363H4.333z" fill="currentColor"/></symbol><symbol viewBox="0 0 24 24" id="minus" xmlns="http://www.w3.org/2000/svg"><path d="M4.333 11h15.334c.184 0 .333.15.333.333v1.334c0 .184-.15.333-.333.333H4.333A.333.333 0 014 12.667v-1.334c0-.184.15-.333.333-.333z" fill="currentColor"/></symbol><symbol viewBox="0 0 24 24" id="new" xmlns="http://www.w3.org/2000/svg"><path d="M19.667 6c.184 0 .333.15.333.333v11.334c0 .184-.15.333-.333.333H4.333A.333.333 0 014 17.667V6.333C4 6.15 4.15 6 4.333 6h15.334zM6.146 10.033h-.428a.167.167 0 00-.167.166V14c0 .092.075.167.167.167h.398A.167.167 0 006.283 14v-2.617l1.602 2.702c.03.05.084.082.143.082h.404A.167.167 0 008.6 14v-3.8a.167.167 0 00-.167-.167h-.398a.167.167 0 00-.167.166v2.594l-1.578-2.678a.167.167 0 00-.143-.082zm6.214 0h-2.205a.167.167 0 00-.167.166V14c0 .092.075.167.167.167h2.265a.167.167 0 00.166-.167v-.32a.167.167 0 00-.166-.167h-1.706v-1.044h1.418a.167.167 0 00.166-.167v-.333a.167.167 0 00-.166-.166h-1.418v-1.116h1.646a.167.167 0 00.166-.167v-.32a.167.167 0 00-.166-.167zm1.595 0h-.431a.167.167 0 00-.158.22l1.28 3.8a.167.167 0 00.157.114h.353c.075 0 .141-.05.161-.123l.609-2.235.62 2.236c.02.072.086.122.16.122h.348a.167.167 0 00.158-.114l1.285-3.8a.167.167 0 00-.158-.22h-.431a.167.167 0 00-.16.116l-.88 2.788-.614-2.212a.167.167 0 00-.161-.122h-.329c-.075 0-.14.05-.16.122l-.614 2.2-.876-2.776a.167.167 0 00-.159-.116z" fill="currentColor"/></symbol><symbol viewBox="0 0 24 24" fill="currentColor" id="new-tag" xmlns="http://www.w3.org/2000/svg"><path d="M30 0H0v12h30l-4.785-6L30 0zM8.111 9.26H6.972l-1.45-4.089-.828 4.09H3.425l1.33-6.53h1.177l1.412 4.043.828-4.042h1.269L8.11 9.26zm6.562-5.36H12l-.319 1.555h2.34l-.244 1.184h-2.339L11.149 8.1h2.75l-.236 1.168H9.646l1.329-6.529h3.934L14.673 3.9zm5.469 5.36h-1.01l-.19-3.544-1.61 3.545h-1.01l-.79-6.53h1.367l.41 4.256 1.557-3.332h1.033l.19 3.332 2.149-4.255h1.375L20.142 9.26z"/></symbol><symbol viewBox="0 0 24 24" id="note-applied" xmlns="http://www.w3.org/2000/svg"><path fill-rule="evenodd" clip-rule="evenodd" d="M14.18 19c.178 0 .347-.07.472-.195l4.153-4.153a.667.667 0 00.195-.471V5.333A.333.333 0 0018.667 5H5.333A.333.333 0 005 5.333v13.334c0 .184.15.333.333.333h8.848zM13 13v5l5-5h-5z" fill="currentColor"/></symbol><symbol viewBox="0 0 24 24" fill="none" id="notes" xmlns="http://www.w3.org/2000/svg"><path fill-rule="evenodd" clip-rule="evenodd" d="M14.18 19c.178 0 .347-.07.472-.195l4.153-4.153a.667.667 0 00.195-.471V5.333A.333.333 0 0018.667 5H5.333A.333.333 0 005 5.333v13.334c0 .184.15.333.333.333h8.848zM14 18H6V6h12v8h-3.333a.667.667 0 00-.667.667V18zm1-1v-2h2l-2 2z" fill="currentColor"/></symbol><symbol viewBox="0 0 24 24" id="orders" xmlns="http://www.w3.org/2000/svg"><path d="M14.18 4c.178 0 .347.07.472.195l4.153 4.153a.667.667 0 01.195.471v10.848c0 .184-.15.333-.333.333H5.333A.333.333 0 015 19.667V4.333C5 4.15 5.15 4 5.333 4h8.848zm1.487 10c.184 0 .333.15.333.333v1.334c0 .184-.15.333-.333.333h-5.334a.333.333 0 01-.333-.333v-1.334c0-.184.15-.333.333-.333h5.334zm-7 0c.184 0 .333.15.333.333v1.334c0 .184-.15.333-.333.333H7.333A.333.333 0 017 15.667v-1.334c0-.184.15-.333.333-.333h1.334zm0-3c.184 0 .333.15.333.333v1.334c0 .184-.15.333-.333.333H7.333A.333.333 0 017 12.667v-1.334c0-.184.15-.333.333-.333h1.334zm8 0c.184 0 .333.15.333.333v1.334c0 .184-.15.333-.333.333h-6.334a.333.333 0 01-.333-.333v-1.334c0-.184.15-.333.333-.333h6.334zm-8-3C8.85 8 9 8.15 9 8.333v1.334c0 .184-.15.333-.333.333H7.333A.333.333 0 017 9.667V8.333C7 8.15 7.15 8 7.333 8h1.334zm4 0c.184 0 .333.15.333.333v1.334c0 .184-.15.333-.333.333h-2.334A.333.333 0 0110 9.667V8.333c0-.184.15-.333.333-.333h2.334z" fill="currentColor" fill-rule="evenodd"/></symbol><symbol viewBox="0 0 24 24" id="orders-accepted" xmlns="http://www.w3.org/2000/svg"><g fill="none" fill-rule="evenodd"><path d="M0 0h24v24H0z"/><path d="M16.015 11.406a4.643 4.643 0 00-4.672 4.671 4.643 4.643 0 004.672 4.672 4.643 4.643 0 004.671-4.672 4.643 4.643 0 00-4.671-4.671zm2.336 5.472h-3.137v-3.87h1.535v2.335h1.534v1.534l.068.001zm-8.609-.8c0-.735.133-1.402.334-2.07H8.074v-1.534h2.803a6.288 6.288 0 015.138-2.67V6.736c0-.2-.066-.4-.2-.534l-3.87-3.87c-.2-.2-.401-.267-.601-.267H2.802a.77.77 0 00-.8.8V16.88c0 .467.333.8.8.8h7.14a6.59 6.59 0 01-.2-1.601zM8.141 7.802h3.87v1.534h-3.87V7.803zm0 2.336h3.136v1.534H8.141V10.14zm-1.335 3.87H5.205v-1.535h1.534v1.535h.067zm0-2.336H5.205V10.14h1.534v1.534h.067zm0-2.336H5.205V7.803h1.534v1.534h.067z" fill="currentColor" fill-rule="nonzero"/></g></symbol><symbol viewBox="0 0 24 24" id="orders-received" xmlns="http://www.w3.org/2000/svg"><g fill="none" fill-rule="evenodd"><path d="M0 0h24v24H0z"/><path d="M13.88 18.813c0-.601.133-1.202.4-1.736h-4.004V15.21h5.605v.066c.668-.4 1.402-.667 2.202-.667.601 0 1.202.133 1.668.333V8.268c0-.267-.066-.467-.266-.667l-4.672-4.672c-.2-.2-.4-.266-.667-.266H3.869c-.534.066-.934.467-.934 1V20.48c0 .534.401.934.934.934h10.944a4.01 4.01 0 01-.934-2.603v.002zm-3.604-9.209h4.671v1.869h-4.671V9.604zm0 2.803h3.737v1.868h-3.737v-1.868zm-1.601 4.671H6.806v-1.869h1.869v1.869zm0-2.803H6.806v-1.868h1.869v1.868zm0-2.802H6.806V9.604h1.869v1.869zm9.408 4.204l-3.136 3.136 3.136 3.137.934-.934-1.534-1.535h3.736v-1.334h-3.736l1.534-1.535-.934-.935z" fill="currentColor" fill-rule="nonzero"/></g></symbol><symbol viewBox="0 0 24 24" id="orders-report" xmlns="http://www.w3.org/2000/svg"><g fill="none" fill-rule="evenodd"><path d="M0 0h24v24H0z"/><path d="M21.353 6.935V4.132a.912.912 0 00-.934-.934H3.602c-.534 0-.934.4-.934.934v2.803c0 .534.4.934.934.934v9.342h-.934v1.869h8.408v1.869h1.869V19.08h8.408v-1.869h-.934V7.87a.912.912 0 00.934-.934zm-4.672 3.937c-.066.267-.934 3.737-1.068 4.004.067.133.134.267.134.467a.912.912 0 01-.934.934.912.912 0 01-.934-.934h-2.803c0 .534-.4.934-.934.934a.912.912 0 01-.934-.934c0-.2.067-.333.133-.467-.133-.2-1.668-4.938-1.735-5.139H6.405V7.87h1.868c.401 0 .734.266.868.667l.4 1.201h6.206c.267 0 .534.134.734.334.2.267.267.534.2.801zm2.804-4.871H4.537v-.934h14.948V6zm-4.939 5.605h-4.337l.6 1.869h3.27l.467-1.869z" fill="currentColor" fill-rule="nonzero"/></g></symbol><symbol viewBox="0 0 24 24" id="orders-sent" xmlns="http://www.w3.org/2000/svg"><g fill="none" fill-rule="evenodd"><path d="M0 0h24v24H0z"/><path d="M13.88 18.813c0-.601.133-1.202.4-1.736h-4.004V15.21h5.605v.066c.668-.4 1.402-.667 2.202-.667.601 0 1.202.133 1.668.333V8.268c0-.267-.066-.467-.266-.667l-4.672-4.672c-.2-.2-.4-.266-.667-.266H3.869c-.534.066-.934.467-.934 1V20.48c0 .534.401.934.934.934h10.944a4.01 4.01 0 01-.934-2.603v.002zm-3.604-9.209h4.671v1.869h-4.671V9.604zm0 2.803h3.737v1.868h-3.737v-1.868zm-1.601 4.671H6.806v-1.869h1.869v1.869zm0-2.803H6.806v-1.868h1.869v1.868zm0-2.802H6.806V9.604h1.869v1.869zm9.408 4.204l3.137 3.136-3.137 3.137-.934-.934 1.535-1.535h-3.737v-1.334h3.737l-1.535-1.535.934-.935z" fill="currentColor" fill-rule="nonzero"/></g></symbol><symbol viewBox="0 0 24 24" id="performance" xmlns="http://www.w3.org/2000/svg"><g fill="none" fill-rule="evenodd"><path d="M0 0h24v24H0z"/><g fill="currentColor"><path d="M6.388 11.299A7.98 7.98 0 004.089 15.8H5.2V17H4h16-1.2v-1.2h1.11a7.98 7.98 0 00-2.298-4.501l-.763.764-.849-.849.693-.693A7.957 7.957 0 0012.6 9.022V10.2h-1.2V9.022a7.957 7.957 0 00-4.093 1.499l.693.693-.849.849-.763-.764zM2 17C2 11.477 6.477 7 12 7s10 4.477 10 10H2z"/><path d="M12.046 15l-.43 1.077A1 1 0 0011 17h.246H10a2 2 0 012.046-2zm1.3.52c.402.366.654.894.654 1.48h-1.246H13c0-.144-.03-.28-.085-.403l.43-1.077zm-1.432.886l2.096-5.239a.3.3 0 11.557.223l-2.095 5.239c.08.102.128.23.128.371h-1.2a.6.6 0 01.514-.594z"/></g></g></symbol><symbol viewBox="0 0 24 24" id="phone" xmlns="http://www.w3.org/2000/svg"><path d="M13.695 15.029a23.653 23.653 0 01-4.706-4.714l1.42-1.424a1.129 1.129 0 000-1.6L8.458 5.333c-.444-.445-1.243-.445-1.687 0L5.438 6.668c-2.841 2.846 8.967 14.676 11.808 11.918l1.421-1.423a1.129 1.129 0 000-1.6l-1.953-1.957a1.124 1.124 0 00-1.598 0l-1.421 1.423z" fill="currentColor"/></symbol><symbol viewBox="0 0 24 24" id="preview" xmlns="http://www.w3.org/2000/svg"><path d="M12 6c4.314 0 8 4 8 6s-3.686 6-8 6-8-4-8-6 3.686-6 8-6zm0 2a4 4 0 100 8 4 4 0 000-8zm0 2a2 2 0 01.59.088 1 1 0 101.322 1.323A2.002 2.002 0 0112 14a2 2 0 110-4z" fill="currentColor"/></symbol><symbol viewBox="0 0 24 24" id="print" xmlns="http://www.w3.org/2000/svg"><path d="M7 8v1.667c0 .175.136.32.308.332l.025.001h9.334c.175 0 .32-.136.332-.308L17 9.667V8h2.667c.184 0 .333.15.333.333V17c0 .184-.15.333-.333.333H17v2.334c0 .184-.15.333-.333.333H7.333A.333.333 0 017 19.667v-2.334H4.333A.333.333 0 014 17V8.333C4 8.15 4.15 8 4.333 8H7zm8.667 5H8.333a.333.333 0 00-.332.308L8 13.333v5.334c0 .175.136.32.308.332l.025.001h7.334c.175 0 .32-.136.332-.308l.001-.025v-5.334a.333.333 0 00-.333-.333zM18 14a1 1 0 110 2 1 1 0 010-2zM15.667 4c.184 0 .333.15.333.333v4.334c0 .184-.15.333-.333.333H8.333A.333.333 0 018 8.667V4.333C8 4.15 8.15 4 8.333 4h7.334z" fill="currentColor" fill-rule="evenodd"/></symbol><symbol viewBox="0 0 24 24" id="promo-codes" xmlns="http://www.w3.org/2000/svg"><g fill="none" fill-rule="evenodd"><path d="M0 0h24v24H0z"/><path fill="currentColor" d="M12 20a8 8 0 110-16 8 8 0 010 16zM8 9.918a1.718 1.718 0 00.483 1.203c.153.157.338.282.554.373.217.09.46.136.728.136.265 0 .506-.046.723-.136a1.682 1.682 0 00.916-.918c.084-.206.126-.425.126-.658a1.713 1.713 0 00-.495-1.2 1.702 1.702 0 00-.558-.371 1.825 1.825 0 00-.712-.136c-.258 0-.495.045-.712.136a1.71 1.71 0 00-.56.37A1.694 1.694 0 008 9.917zm1.765-.864c.12 0 .234.021.34.064a.847.847 0 01.538.8.869.869 0 01-.258.627.896.896 0 01-.28.188.878.878 0 01-.973-.19.893.893 0 01-.26-.625.85.85 0 01.545-.8.939.939 0 01.348-.064zM14.075 8l-5.368 8h1.001l5.373-8h-1.006zm-1.605 6.257c0 .233.042.453.126.66a1.664 1.664 0 00.911.918c.217.093.46.14.728.14.268 0 .51-.047.728-.14a1.664 1.664 0 00.911-.918c.084-.207.126-.427.126-.66a1.675 1.675 0 00-.493-1.195 1.795 1.795 0 00-1.272-.512 1.795 1.795 0 00-1.272.512 1.665 1.665 0 00-.493 1.195zm1.765-.864a.875.875 0 01.808.522c.046.105.07.219.07.342a.869.869 0 01-.259.627.896.896 0 01-.279.188.865.865 0 01-.684 0 .897.897 0 01-.474-.473.856.856 0 01-.07-.342.832.832 0 01.26-.614.906.906 0 01.628-.25z"/></g></symbol><symbol viewBox="0 0 24 24" id="queue" xmlns="http://www.w3.org/2000/svg"><g fill="none" fill-rule="evenodd"><path d="M0 0h24v24H0z"/><path d="M17.683 11.139h-5.406v1.868h5.406l-2.202 2.269 1.334 1.335 4.538-4.538-4.538-4.538-1.334 1.334 2.202 2.27zM2.668 6.267h1.935v11.545H2.668V6.267zm2.87 0h1.935v11.545H5.537V6.267zm2.935 0h1.936v11.545H8.473V6.267z" fill="currentColor" fill-rule="nonzero"/></g></symbol><symbol viewBox="0 0 24 24" id="reassign" xmlns="http://www.w3.org/2000/svg"><g fill="none" fill-rule="evenodd"><path d="M0 0h24v24H0z"/><path d="M11.343 3.398a2.677 2.677 0 00-2.669 2.67 2.677 2.677 0 002.67 2.669 2.677 2.677 0 002.669-2.67 2.677 2.677 0 00-2.67-2.669zM6.338 5.4c-1.268 0-2.335 1.068-2.335 2.335 0 1.268 1.068 2.336 2.335 2.336.934 0 1.668-.534 2.069-1.268a4.008 4.008 0 01-1.068-2.736v-.401c-.267-.2-.601-.267-1.001-.267V5.4zm10.01 0c-.4 0-.734.067-1 .267v.4a4.005 4.005 0 01-1.069 2.736c.401.734 1.135 1.268 2.069 1.268 1.268 0 2.335-1.068 2.335-2.335s-1.068-2.335-2.335-2.335V5.4zm-5.005 4.671a4.016 4.016 0 00-4.004 4.004v1.335h3.404c.2-1.935 1.401-3.603 3.002-4.538-.667-.534-1.534-.8-2.402-.8zm-5.005 1.334c-2.002 0-3.67 1.668-3.67 3.67v.334h3.337v-1.335c0-.934.266-1.869.734-2.67h-.401v.001zm10.343 0a4.643 4.643 0 00-4.671 4.672 4.643 4.643 0 004.671 4.671 4.643 4.643 0 004.672-4.671 4.643 4.643 0 00-4.672-4.672zm2.002 2.67c.2 0 .334.066.468.2a.645.645 0 010 .934l-2.67 2.669a.606.606 0 01-.467.2.607.607 0 01-.467-.2l-1.335-1.335a.645.645 0 010-.934.645.645 0 01.934 0l.867.868 2.202-2.202a.606.606 0 01.468-.2z" fill="currentColor" fill-rule="nonzero"/></g></symbol><symbol viewBox="0 0 24 24" id="recent" xmlns="http://www.w3.org/2000/svg"><path d="M12 20a8 8 0 100-16 8 8 0 000 16zm0-2a6 6 0 110-12 6 6 0 010 12zm0-11a.5.5 0 01.5.5v4.126l2.414 2.414a.5.5 0 010 .708.497.497 0 01-.705-.003L11.5 12V7.5A.5.5 0 0112 7z" fill="currentColor"/></symbol><symbol viewBox="0 0 24 24" id="refresh" xmlns="http://www.w3.org/2000/svg"><path fill="none" d="M0 0h24v24H0z"/><path fill="currentColor" stroke="currentColor" stroke-width=".2" d="M17.998 15.493l.868.562a.213.213 0 01.06.3 8.282 8.282 0 01-6.854 3.613c-4.437 0-8.072-3.495-8.298-7.876l-.627.692a.25.25 0 01-.354.017l-.737-.67a.25.25 0 01-.017-.353l2.23-2.455a.25.25 0 01.352-.017l2.455 2.23a.25.25 0 01.017.353l-.67.737a.25.25 0 01-.352.017l-.806-.732c.133 3.64 3.134 6.56 6.806 6.56a6.792 6.792 0 005.586-2.911.25.25 0 01.341-.067zm2.771-6.31l-.563.779c-.786-3.77-4.135-6.612-8.134-6.612a8.27 8.27 0 00-6.408 3.018.146.146 0 00.02.206l.002.001.968.772a.11.11 0 00.155-.016 6.782 6.782 0 015.263-2.485c3.28 0 6.027 2.332 6.67 5.425l-.863-.624a.25.25 0 00-.35.056l-.583.807a.25.25 0 00.056.349l2.687 1.943a.25.25 0 00.35-.056l1.942-2.687a.25.25 0 00-.056-.35l-.807-.583a.25.25 0 00-.349.057z"/></symbol><symbol viewBox="0 0 24 24" id="reorder" xmlns="http://www.w3.org/2000/svg"><path d="M12 4a4 4 0 014 4h1.937c.176 0 .322.137.333.313L19 19.646c.011.184-.15.342-.334.353l-.02.001H5.354C5.17 20 5 19.85 5 19.667l.73-11.354A.333.333 0 016.063 8H8a4 4 0 014-4zm-3.14 6h-.69a.168.168 0 00-.17.167v2.661c0 .044.017.084.044.114l.004.004c.021.023.049.04.08.048L8.126 13h2.707a.168.168 0 00.167-.17v-.675a.164.164 0 00-.164-.168l-1.056-.005a3 3 0 11-.775 2.188.175.175 0 00-.176-.17h-.658a.168.168 0 00-.167.168v.003a4 4 0 101.348-3.169l-.13.106c-.067.053-.134.109-.204.166l-.005-1.11A.164.164 0 008.86 10zM12 5a3 3 0 00-3 3h6a3 3 0 00-3-3z" fill="currentColor"/></symbol><symbol viewBox="0 0 24 24" id="reply" xmlns="http://www.w3.org/2000/svg"><path d="M8.816 6.097l1.099 1.092c.131.13.133.344.004.478L8.022 9.553h7.811c2.302 0 4.167 1.888 4.167 4.222C20 16.108 18.135 18 15.833 18h-1.5a.333.333 0 01-.333-.333v-1.362c0-.184.15-.333.333-.333h1.5c1.197 0 2.167-.984 2.167-2.197 0-1.214-.97-2.198-2.167-2.198v-.004H8.021l1.894 1.882a.342.342 0 01.024.457l-.024.026-1.1 1.092a.33.33 0 01-.466 0L4.1 10.808a.339.339 0 01-.1-.225v-.005a.34.34 0 01.095-.254L8.35 6.097a.33.33 0 01.467 0z" fill="currentColor"/></symbol><symbol viewBox="0 0 24 24" id="reports" xmlns="http://www.w3.org/2000/svg"><path d="M7.667 14c.184 0 .333.15.333.333v5.334c0 .184-.15.333-.333.333H4.333A.333.333 0 014 19.667v-5.334c0-.184.15-.333.333-.333h3.334zm6-4c.184 0 .333.15.333.333v9.334c0 .184-.15.333-.333.333h-3.334a.333.333 0 01-.333-.333v-9.334c0-.184.15-.333.333-.333h3.334zm6-6c.184 0 .333.15.333.333v15.334c0 .184-.15.333-.333.333h-3.334a.333.333 0 01-.333-.333V4.333c0-.184.15-.333.333-.333h3.334z" fill="currentColor"/></symbol><symbol viewBox="0 0 90 72" id="reports-downloaded" xmlns="http://www.w3.org/2000/svg"><g fill="none" fill-rule="evenodd"><path d="M-5-9H95v90H-5z"/><path fill="currentColor" fill-rule="nonzero" d="M79.412 28.559H64.454l-2.646 2.647h14.957L84.706 45.5H63.529l-7.941 9H34.412l-7.941-9H5.294l7.941-14.294h14.916l-2.647-2.647H10.588L0 45.5v25.941h90V45.5z"/><path fill="currentColor" d="M60.037 14.094L48.524 25.608V0h-7.048v25.608L29.963 14.094 25 19.107l19.95 19.95.05-.05.05.05L65 19.107z"/></g></symbol><symbol viewBox="0 0 24 24" id="sales-team" xmlns="http://www.w3.org/2000/svg"><g fill="none" fill-rule="evenodd"><path d="M0 0h24v24H0z"/><path d="M15.947 12.073a2.221 2.221 0 002.202-2.202 2.179 2.179 0 00-2.202-2.202c-1.268 0-2.202 1-2.202 2.202a2.222 2.222 0 002.202 2.202zm-6.539-.868c1.468 0 2.603-1.134 2.603-2.602S10.876 6 9.408 6C7.94 6 6.805 7.135 6.805 8.603c0 1.468 1.135 2.602 2.603 2.602zm6.54 2.603c-1.602 0-4.805.8-4.805 2.403v1.935h9.609v-1.935c0-1.602-3.203-2.403-4.805-2.403zm-6.54-.867c-2.002 0-6.073 1-6.073 3.07v2.202h6.073v-1.936c0-.734.267-2.068 2.069-3.002a6.59 6.59 0 00-2.069-.334z" fill="currentColor" fill-rule="nonzero"/></g></symbol><symbol viewBox="0 0 24 24" id="sample" xmlns="http://www.w3.org/2000/svg"><g fill="none" fill-rule="evenodd"><path d="M0 0h24v24H0z"/><path d="M21.153 7.736l-2.202-2.47c-.334-.333-.868-.4-1.202-.066l-2.135 2.135 3.537 3.537 1.935-2.002c.333-.334.4-.867.067-1.135v.001zm-8.004 3.227l1.887-1.888L17.962 12l-1.887 1.888-2.926-2.925zm1.598-4.028l-2.47-2.268c-.334-.334-.867-.267-1.134 0L9.007 6.802l2.936 2.936 2.803-2.803zm-7.141.134l-4.738 4.738c-.667.667-.667 1.735 0 2.335l5.873 5.873c.667.667 1.735.667 2.335 0l4.738-4.738-8.208-8.208zm2.336 9.142L8.207 8.737l6.006 6.006s-1.936-.934-4.271 1.468z" fill="currentColor" fill-rule="nonzero"/></g></symbol><symbol viewBox="0 0 24 24" id="scale" xmlns="http://www.w3.org/2000/svg"><defs><path id="a" d="M2.618 10.473a2.618 2.618 0 002.618-2.618c0-.964-.872-3.583-2.618-7.855C.873 4.272 0 6.89 0 7.855a2.618 2.618 0 002.618 2.618z"/><path id="c" d="M2.618 10.473a2.618 2.618 0 002.618-2.618c0-.964-.872-3.583-2.618-7.855C.873 4.272 0 6.89 0 7.855a2.618 2.618 0 002.618 2.618z"/></defs><g fill="none" fill-rule="evenodd"><path d="M0 0h24v24H0z"/><path fill="currentColor" fill-rule="nonzero" d="M6.24 15.6a2.815 2.815 0 01-2.815-2.815c0-1 .875-3.625 2.633-7.928l.182-.445.182.445c1.758 4.303 2.633 6.927 2.633 7.928A2.815 2.815 0 016.24 15.6zm-2.16-2.815a2.16 2.16 0 004.32 0c0-.804-.732-3.062-2.16-6.632-1.428 3.57-2.16 5.828-2.16 6.632z"/><g transform="translate(3.622 4.93)"><mask id="b" fill="none"><use xmlns:xlink="http://www.w3.org/1999/xlink" xlink:href="#a"/></mask><path fill="currentColor" d="M-.262 7.855h5.76v2.88h-5.76z" mask="url(#b)"/></g><path fill="currentColor" fill-rule="nonzero" d="M17.76 15.6a2.815 2.815 0 01-2.815-2.815c0-1 .875-3.625 2.633-7.928l.182-.445.182.445c1.758 4.303 2.633 6.927 2.633 7.928A2.815 2.815 0 0117.76 15.6zm-2.16-2.815a2.16 2.16 0 004.32 0c0-.804-.732-3.062-2.16-6.632-1.428 3.57-2.16 5.828-2.16 6.632z"/><g transform="translate(15.142 4.93)"><mask id="d" fill="none"><use xlink:href="#c"/></mask><path fill="currentColor" d="M-.262 7.855h5.76v2.88h-5.76z" mask="url(#d)"/></g><path fill="currentColor" fill-rule="nonzero" d="M12.655 19.33h1.963c.217 0 .393.294.393.655 0 .362-.176.655-.393.655H9.382c-.217 0-.393-.293-.393-.655 0-.361.176-.654.393-.654h1.963V5.585H6.502c-.217 0-.393-.293-.393-.654 0-.362.176-.655.393-.655h10.996c.217 0 .393.293.393.655 0 .361-.176.654-.393.654h-4.843v13.746z"/><g transform="translate(10.43 3.36)"><path fill="currentColor" fill-rule="nonzero" d="M1.57 3.01a1.44 1.44 0 100-2.88 1.44 1.44 0 000 2.88z"/><circle cx="1.571" cy="1.571" r="1"/></g></g></symbol><symbol viewBox="0 0 24 24" id="search" xmlns="http://www.w3.org/2000/svg"><path d="M10 4a6 6 0 014.888 9.48l5.015 5.015c.13.13.13.34 0 .47l-.939.938c-.13.13-.34.13-.47 0l-5.014-5.015A6 6 0 1110 4zm0 2a4 4 0 100 8 4 4 0 000-8z" fill="currentColor"/></symbol><symbol viewBox="0 0 24 24" id="settings" xmlns="http://www.w3.org/2000/svg"><path d="M12.667 4c.184 0 .333.15.333.333v1.75a5.968 5.968 0 012.477 1.026l1.237-1.237c.13-.13.341-.13.471 0l.943.943c.13.13.13.34 0 .471l-1.237 1.237c.451.634.783 1.36.96 2.144h1.816c.184 0 .333.149.333.333v1.333c0 .184-.15.334-.333.334h-1.704a5.963 5.963 0 01-.883 2.527l1.284 1.284c.13.13.13.342 0 .472l-.943.943a.333.333 0 01-.471 0l-1.205-1.205A5.973 5.973 0 0113 17.917v1.75c0 .184-.15.333-.333.333h-1.334a.333.333 0 01-.333-.333v-1.75a5.968 5.968 0 01-2.477-1.026l-1.237 1.237a.333.333 0 01-.471 0l-.943-.943a.333.333 0 010-.471l1.237-1.237a5.967 5.967 0 01-1.072-2.81H4.333A.333.333 0 014 12.333V11c0-.184.15-.333.333-.333H6.15a5.977 5.977 0 011.163-2.412L6.107 7.05a.333.333 0 010-.471l.943-.943c.13-.13.341-.13.472 0L8.806 6.92A5.963 5.963 0 0111 6.083v-1.75c0-.184.15-.333.333-.333h1.334zM12 8a4 4 0 100 8 4 4 0 000-8z" fill="currentColor"/></symbol><symbol viewBox="0 0 24 24" id="ship" xmlns="http://www.w3.org/2000/svg"><path d="M15.333 6c.357 0 .649.28.666.633l.001.034V8h.798c.117 0 .232.03.333.089l.037.023 2.535 1.69a.667.667 0 01.296.516l.001.039v4.976c0 .357-.28.649-.633.666l-.034.001H18a2 2 0 11-4 0h-4a2 2 0 11-4 0H4.633a.667.667 0 01-.632-.632L4 15.333V6.667c0-.357.28-.649.633-.666L4.667 6h10.666zM8 15a1 1 0 100 2 1 1 0 000-2zm8 0a1 1 0 100 2 1 1 0 000-2zm-2.333-3H6.333a.333.333 0 00-.332.308L6 12.333v.334c0 .175.136.32.308.332l.025.001h7.334c.175 0 .32-.136.332-.308l.001-.025v-.334a.333.333 0 00-.308-.332L13.667 12zm3.232-3h-.566a.333.333 0 00-.332.308L16 9.333V11c0 .176.136.32.308.332l.025.001h2.334c.175 0 .32-.136.332-.308L19 11v-.488a.333.333 0 00-.126-.261l-.022-.017-1.768-1.178a.333.333 0 00-.157-.055L16.9 9z" fill="currentColor"/></symbol><symbol viewBox="0 0 24 24" id="shop" xmlns="http://www.w3.org/2000/svg"><path d="M12 4a4 4 0 014 4h1.937c.176 0 .322.137.333.313L19 19.646c.011.184-.15.342-.334.353l-.02.001H5.354C5.17 20 5 19.85 5 19.667l.73-11.354A.333.333 0 016.063 8H8a4 4 0 014-4zm0 1a3 3 0 00-3 3h6a3 3 0 00-3-3z" fill="currentColor"/></symbol><symbol viewBox="0 0 24 24" id="sort" xmlns="http://www.w3.org/2000/svg"><path d="M16.402 13.598a.55.55 0 01.17.402.55.55 0 01-.17.402l-4 4a.55.55 0 01-.402.17.55.55 0 01-.402-.17l-4-4a.55.55 0 01-.17-.402.55.55 0 01.17-.402.55.55 0 01.402-.17h8a.55.55 0 01.402.17zm0-3.428a.55.55 0 01.17.401.55.55 0 01-.17.402.55.55 0 01-.402.17H8a.55.55 0 01-.402-.17.55.55 0 01-.17-.402.55.55 0 01.17-.401l4-4A.55.55 0 0112 6a.55.55 0 01.402.17l4 4z" fill="currentColor" fill-rule="evenodd"/></symbol><symbol viewBox="0 0 24 24" id="star" xmlns="http://www.w3.org/2000/svg"><path d="M11.983 4a.35.35 0 00-.313.251L9.927 9.728H4.346a.35.35 0 00-.329.25.374.374 0 00.124.406l4.533 3.472-1.742 5.668a.373.373 0 00.126.407.334.334 0 00.409-.001L12 16.457l4.533 3.473a.334.334 0 00.409.001.373.373 0 00.126-.407l-1.742-5.668 4.533-3.472a.374.374 0 00.124-.406.35.35 0 00-.329-.25h-5.581L12.33 4.25a.348.348 0 00-.347-.25z" fill="currentColor"/></symbol><symbol viewBox="0 0 24 24" id="star-outline" xmlns="http://www.w3.org/2000/svg"><path d="M11.983 4a.346.346 0 01.338.224l.01.027 1.742 5.477h5.581a.35.35 0 01.329.25.375.375 0 01-.102.388l-.022.018-4.533 3.472 1.742 5.668a.373.373 0 01-.126.407.334.334 0 01-.386.015l-.023-.016L12 16.457 7.467 19.93a.334.334 0 01-.409.001.373.373 0 01-.134-.379l.008-.028 1.742-5.668-4.533-3.472a.374.374 0 01-.124-.406.35.35 0 01.301-.249l.028-.001h5.581L11.67 4.25a.352.352 0 01.286-.248L11.983 4zm1.359 6.728L12 6.51l-1.342 4.217H6.234l3.6 2.757-1.355 4.41L12 15.198l3.521 2.697-1.355-4.41 3.6-2.757h-4.424z" fill="currentColor"/></symbol><symbol viewBox="0 0 24 24" id="status" xmlns="http://www.w3.org/2000/svg"><path d="M19 12a7 7 0 11-14.001-.001A7 7 0 0119 12z" fill="currentColor" fill-rule="evenodd"/></symbol><symbol viewBox="0 0 24 24" id="tag" xmlns="http://www.w3.org/2000/svg"><path fill-rule="evenodd" clip-rule="evenodd" d="M13.698 19.53l5.832-5.832a1.604 1.604 0 000-2.268l-6.96-6.96a1.604 1.604 0 00-1.242-.466l-5.465.367a1.604 1.604 0 00-1.492 1.492l-.367 5.465c-.031.462.139.914.466 1.242l6.96 6.96a1.604 1.604 0 002.268 0zM8.668 7.333a1.333 1.333 0 11-2.667 0 1.333 1.333 0 012.667 0z" fill="currentColor"/></symbol><symbol viewBox="0 0 24 24" id="tasks" xmlns="http://www.w3.org/2000/svg"><path d="M8 6v2.667c0 .175.136.32.308.332L8.333 9h7.334c.175 0 .32-.136.332-.308L16 8.667V6h2.667c.184 0 .333.15.333.333v13.334c0 .184-.15.333-.333.333H5.333A.333.333 0 015 19.667V6.333C5 6.15 5.15 6 5.333 6H8zm6.548 4.744l-.02.019-3.866 3.914-1.19-1.204a.322.322 0 00-.438-.02l-.02.02-.92.93a.333.333 0 00-.018.444l.019.02 2.335 2.37.02.02c.121.102.298.102.418 0l.021-.02 5.016-5.08a.332.332 0 00.019-.443l-.02-.021-.917-.93a.322.322 0 00-.439-.02zM12 4a2 2 0 011.732 1h.935c.184 0 .333.15.333.333v2.334c0 .175-.136.32-.308.332L14.667 8H9.333a.333.333 0 01-.332-.308L9 5.333C9 5.15 9.15 5 9.333 5h.935A2 2 0 0112 4zm0 1a1 1 0 100 2 1 1 0 000-2z" fill="currentColor"/></symbol><symbol viewBox="0 0 24 24" id="tools" xmlns="http://www.w3.org/2000/svg"><path d="M13.43 11.443l1.472 1.472c1.317-.519 2.896-.227 3.986.863 1.07 1.07 1.37 2.612.89 3.914l-.027.071-2.189-2.188a.333.333 0 00-.471 0l-1.374 1.374a.333.333 0 00-.02.45l.02.021 2.245 2.245c-1.353.632-3.039.368-4.184-.777-1.146-1.146-1.41-2.831-.778-4.185l-1.415-1.414-.874-.875L9.297 11c-1.354.631-3.04.368-4.185-.778-1.145-1.145-1.409-2.83-.777-4.184L6.58 8.283c.123.124.32.13.45.02l.021-.02L8.425 6.91a.333.333 0 000-.471L6.237 4.249c1.316-.518 2.895-.227 3.985.863 1.09 1.09 1.382 2.669.863 3.986l1.472 1.471.874.874z" fill="currentColor"/></symbol><symbol viewBox="0 0 24 24" id="tooltip" xmlns="http://www.w3.org/2000/svg"><g fill="none" fill-rule="evenodd"><path d="M0 0h24v24H0z"/><path d="M12 5a7 7 0 110 14 7 7 0 010-14zm-.514 9.333a.813.813 0 00-.824.828c0 .487.377.839.824.839a.832.832 0 00.844-.839c0-.486-.387-.828-.844-.828zM12.015 8c-1.34 0-2.392.802-2.51 2.274l-.005.062a.206.206 0 00.194.218h1.026c.123 0 .23-.08.263-.196l.006-.023a1.023 1.023 0 011.014-.829c.567 0 .977.325.977.916 0 .325-.193.674-.627.855l-.435.169c-1 .41-1.23 1.012-1.133 1.94 0 .133.108.24.24.24h.82a.242.242 0 00.24-.206l.002-.022c0-.494.326-.615.784-.771.93-.326 1.629-1.109 1.629-2.278C14.5 8.904 13.45 8 12.015 8z" fill="currentColor"/></g></symbol><symbol viewBox="0 0 24 24" id="transfer" xmlns="http://www.w3.org/2000/svg"><path d="M8.021 12.996l1.894 1.856a.333.333 0 01.024.45l-.024.026-1.1 1.077a.333.333 0 01-.466 0L4.1 12.24a.332.332 0 01-.1-.221v-.006a.332.332 0 01.095-.25L8.35 7.595a.333.333 0 01.467 0l1.099 1.077c.131.129.133.34.004.472l-1.897 1.86h7.956l-1.894-1.856a.333.333 0 01-.024-.45l.024-.026 1.1-1.077a.333.333 0 01.466 0l4.25 4.164c.061.061.095.14.099.222v.005a.332.332 0 01-.095.25l-4.254 4.169a.333.333 0 01-.467 0l-1.099-1.077a.333.333 0 01-.004-.471l1.898-1.86H8.02z" fill="currentColor"/></symbol><symbol viewBox="0 0 24 24" fill="none" id="truck" xmlns="http://www.w3.org/2000/svg"><path fill-rule="evenodd" clip-rule="evenodd" d="M3 6h10v2h5l3 4v4h-1.768a2 2 0 11-3.465 0H7.733a2 2 0 11-3.465 0H3V6zm3 10a1 1 0 110 2 1 1 0 010-2zm11.5 0a1 1 0 110 2 1 1 0 010-2zM17 9l2 3h-4V9h2z" fill="currentColor"/></symbol><symbol viewBox="0 0 24 24" id="twitter" xmlns="http://www.w3.org/2000/svg"><path d="M20 7.034c-.599.265-1.2.466-1.867.534a3.548 3.548 0 001.466-1.802 6.083 6.083 0 01-2.065.802C16.867 5.9 16 5.5 15.068 5.5a3.271 3.271 0 00-3.269 3.266c0 .268 0 .533.068.734-2.734-.133-5.133-1.401-6.734-3.401-.334.469-.466 1.068-.466 1.667 0 1.135.599 2.135 1.466 2.734-.534-.068-1.065-.2-1.466-.401v.068c0 1.599 1.132 2.932 2.599 3.2-.266.065-.532.133-.865.133-.2 0-.401 0-.602-.068a3.165 3.165 0 003.068 2.269A6.665 6.665 0 014.8 17.099c-.265 0-.533 0-.799-.065A9.34 9.34 0 009 18.5c6.068 0 9.333-5 9.333-9.333v-.401C19 8.299 19.533 7.7 20 7.034" fill="currentColor"/></symbol><symbol viewBox="0 0 24 24" id="unlink" xmlns="http://www.w3.org/2000/svg"><path d="M10.715 11.202l-4.443 4.443a1.473 1.473 0 102.083 2.083l4.443-4.443a3.314 3.314 0 01-.755 3.358l-.043.043-2.343 2.343a3.314 3.314 0 01-4.686-4.686L7.314 12a3.314 3.314 0 013.401-.798zm4.825 2.96l3.771 3.77c.13.13.131.341.002.47l-.914.914a.332.332 0 01-.47-.002l-3.77-3.77a.332.332 0 01-.002-.47l.914-.914c.129-.129.34-.128.47.002zm-1.495 1.966l.623 2.234a.322.322 0 01-.229.401l-.317.082a.338.338 0 01-.406-.238l-.623-2.235a.322.322 0 01.228-.4l.318-.082a.338.338 0 01.406.238zm2.324-3.032l2.235.623c.176.05.282.231.237.406l-.081.318a.322.322 0 01-.401.228l-2.235-.623a.338.338 0 01-.237-.406l.081-.317a.322.322 0 01.401-.229zm2.66-8.125a3.314 3.314 0 01.043 4.642l-.043.044L16.686 12a3.314 3.314 0 01-3.4.798l4.43-4.431.031-.032a1.473 1.473 0 00-2.102-2.063l-4.443 4.443A3.314 3.314 0 0112 7.314l2.343-2.343a3.314 3.314 0 014.686 0zM5.64 9.33l2.234.623c.176.049.283.23.238.406l-.082.317a.322.322 0 01-.4.228l-2.235-.622a.338.338 0 01-.238-.407l.082-.317a.322.322 0 01.4-.228zm.43-4.644l3.77 3.771c.13.13.13.34.002.47l-.914.914a.332.332 0 01-.47-.002l-3.77-3.77a.332.332 0 01-.002-.47l.914-.914c.129-.13.339-.129.47.001zm4.213.708l.622 2.234a.322.322 0 01-.228.401l-.317.082a.338.338 0 01-.406-.238L9.33 5.638a.322.322 0 01.228-.4l.317-.082a.338.338 0 01.407.238z" fill="currentColor"/></symbol><symbol viewBox="0 0 24 24" id="unlocked" xmlns="http://www.w3.org/2000/svg"><path d="M16.9 7A5.002 5.002 0 007 8v2H5.333a.333.333 0 00-.333.333v9.334c0 .184.15.333.333.333h13.334c.184 0 .333-.15.333-.333v-9.334a.333.333 0 00-.333-.333h-10V8a3.333 3.333 0 016.514-1H16.9zM10 14a2 2 0 113 1.732v1.959a.333.333 0 01-.333.309h-1.358a.333.333 0 01-.309-.333v-1.935l-.046-.027A1.999 1.999 0 0110 14z" fill="currentColor"/></symbol><symbol viewBox="0 0 24 24" id="upload" xmlns="http://www.w3.org/2000/svg"><path d="M5.667 15c.184 0 .333.15.333.333V17h12v-1.667c0-.184.15-.333.333-.333h1.334c.184 0 .333.15.333.333v3.334c0 .184-.15.333-.333.333H4.333A.333.333 0 014 18.667v-3.334c0-.184.15-.333.333-.333h1.334zm5.67 0a.333.333 0 01-.334-.334V9.022l-1.855 1.893a.333.333 0 01-.45.024l-.026-.024-1.077-1.099a.333.333 0 010-.466l4.164-4.25a.332.332 0 01.221-.1h.005c.09-.004.181.028.25.096l4.17 4.254a.333.333 0 010 .466l-1.077 1.1a.333.333 0 01-.472.004l-1.86-1.898v5.644c0 .184-.15.334-.334.334h-1.325z" fill="currentColor"/></symbol><symbol viewBox="0 0 24 24" id="url" xmlns="http://www.w3.org/2000/svg"><path d="M12 3c-4.963 0-9 4.037-9 9s4.037 9 9 9 9-4.037 9-9-4.037-9-9-9zm-.544 4.724a13.266 13.266 0 01-2.785-.442c.67-1.626 1.664-2.77 2.785-3.054v3.496zm0 1.087v2.645H7.81c.044-1.125.217-2.194.498-3.149.976.276 2.04.447 3.148.504zm1.088.018c1.103-.02 2.18-.154 3.182-.394.26.923.422 1.945.464 3.02h-3.646V8.83zm0-1.088V4.228c1.148.292 2.163 1.484 2.832 3.173-.89.205-1.848.322-2.832.34zm-4.926-.814A8.523 8.523 0 016.45 6.37a7.938 7.938 0 012.448-1.648c-.5.603-.935 1.345-1.28 2.204zm-.352 1.029a14.156 14.156 0 00-.544 3.5H4.116a7.858 7.858 0 011.61-4.257c.467.288.983.54 1.54.757zm-.544 4.588c.042 1.225.223 2.373.518 3.407a9.848 9.848 0 00-1.599.737 7.856 7.856 0 01-1.525-4.144h2.606zm1.088 0h3.646v2.635a14.65 14.65 0 00-3.167.445 13.056 13.056 0 01-.479-3.08zm3.646 3.723v3.505c-1.135-.288-2.14-1.458-2.81-3.117a13.579 13.579 0 012.81-.388zm1.088 3.505v-3.505c.983.036 1.934.166 2.81.388-.67 1.66-1.675 2.828-2.81 3.117zm0-4.593v-2.635h3.646a13.056 13.056 0 01-.48 3.08 14.647 14.647 0 00-3.166-.445zm4.734-2.635h2.606a7.856 7.856 0 01-1.526 4.144 9.837 9.837 0 00-1.598-.737c.295-1.034.476-2.182.518-3.407zm0-1.088a14.259 14.259 0 00-.494-3.32c.597-.2 1.15-.44 1.655-.716a7.855 7.855 0 011.445 4.036h-2.606zm.459-4.889a9.4 9.4 0 01-1.289.534c-.356-.931-.813-1.735-1.346-2.378a7.936 7.936 0 012.635 1.844zM6.352 17.53a8.959 8.959 0 011.23-.546c.352.896.799 1.67 1.316 2.293a7.94 7.94 0 01-2.546-1.747zm8.75 1.747c.517-.624.965-1.396 1.316-2.293.438.16.852.34 1.23.546a7.939 7.939 0 01-2.546 1.747z" fill="currentColor"/></symbol><symbol viewBox="0 0 24 24" id="user-account" xmlns="http://www.w3.org/2000/svg"><g fill="none" fill-rule="evenodd"><path d="M0 0h24v24H0z"/><circle stroke="currentColor" cx="12" cy="12" r="11.5"/><path d="M12 11.5a1.5 1.5 0 100-3 1.5 1.5 0 000 3zm0 1a2.5 2.5 0 110-5 2.5 2.5 0 010 5zm0 0a3.5 3.5 0 00-3.465 3h6.93a3.5 3.5 0 00-3.465-3zm-4.5 4V16a4.5 4.5 0 119 0v.5h-9z" fill="currentColor" fill-rule="nonzero"/></g></symbol><symbol viewBox="0 0 24 24" id="view" xmlns="http://www.w3.org/2000/svg"><g fill="none" fill-rule="evenodd"><path d="M0 0h24v24H0z"/><path d="M9.875 15.476c0-3.07 2.47-5.605 5.606-5.605.534 0 1.068.066 1.601.266V6.401l-3.737-3.67H4.27c-.867 0-1.601.734-1.601 1.601v14.347c0 .868.734 1.602 1.601 1.602h8.275c-1.602-1.001-2.67-2.736-2.67-4.805zm2.402-11.945l4.004 4.004h-4.004V3.531zM5.07 9.937h5.605v1.602H5.07V9.937zm3.203 4.738H5.07v-1.601h3.203v1.601zM18.75 17.68c.4-.601.667-1.402.667-2.202a4.016 4.016 0 00-4.004-4.004 4.016 4.016 0 00-4.004 4.004 4.016 4.016 0 004.004 4.004c.801 0 1.535-.267 2.202-.668l2.603 2.603 1.135-1.135-2.603-2.602zm-3.336.2a2.393 2.393 0 01-2.403-2.403 2.393 2.393 0 012.403-2.403 2.393 2.393 0 012.403 2.403 2.393 2.393 0 01-2.403 2.403z" fill="currentColor" fill-rule="nonzero"/></g></symbol><symbol viewBox="0 0 24 24" id="warning" xmlns="http://www.w3.org/2000/svg"><g fill="none" fill-rule="evenodd"><path d="M0 0h24v24H0z"/><path d="M12 5a7 7 0 110 14 7 7 0 010-14zm-.01 9.333a.813.813 0 00-.823.828c0 .487.377.839.823.839a.832.832 0 00.843-.839c0-.486-.387-.828-.843-.828zM12.667 8h-1.323a.333.333 0 00-.333.308v.03l.146 4.839c.005.18.153.323.333.323h1.02c.18 0 .328-.143.333-.323l.147-4.834A.333.333 0 0012.667 8z" fill="currentColor"/></g></symbol><symbol viewBox="0 0 24 24" fill="none" id="working" xmlns="http://www.w3.org/2000/svg"><rect fill="#fff"/><path fill-rule="evenodd" clip-rule="evenodd" d="M12 6a6 6 0 000 12 1 1 0 110 2 8 8 0 010-16 1 1 0 110 2z" fill="currentColor"/></symbol></svg>