<svg viewBox="0 0 24 24" xmlns="http://www.w3.org/2000/svg"><path d="M9.0039424,5.23756633 L11.7446667,13.9819137 L14.7570911,7.51126533 C14.8365234,7.34064593 15.0355477,7.26848547 15.2016243,7.35009044 C15.283924,7.39052997 15.3464941,7.46385615 15.3747461,7.5529727 L16.6430558,11.5536559 C16.6877502,11.6946372 16.8156797,11.7900555 16.9600024,11.7900555 L19.6666667,11.7900555 C19.8507616,11.7900555 20,11.943376 20,12.1325065 L20,13.5023109 C20,13.6914414 19.8507616,13.844762 19.6666667,13.844762 L15.5735784,13.844762 C15.4301055,13.844762 15.3027284,13.7504457 15.257354,13.6106137 L14.8061667,12.220174 L11.6985046,18.8068402 C11.6182065,18.9770313 11.4188183,19.0481235 11.2531585,18.965629 C11.1707353,18.9245843 11.1083839,18.8505036 11.0807498,18.7607874 L8.38783333,10.0180423 L6.59256691,13.6571249 C6.53578437,13.7722255 6.42084437,13.844762 6.29524046,13.844762 L4.33333333,13.844762 C4.14923842,13.844762 4,13.6914414 4,13.5023109 L4,12.1325065 C4,11.9433938 4.14925568,11.7900805 4.33333333,11.7900101 L5.04884223,11.7899126 C5.1763026,11.7898952 5.29259463,11.7152058 5.34843726,11.5974954 L8.38701332,5.19249489 C8.46766853,5.02248213 8.66720556,4.95183199 8.83269173,5.03469339 C8.91427897,5.07554534 8.97612366,5.14880996 9.0039424,5.23756633 Z" fill="currentColor"></path></svg>