<svg viewBox="0 0 24 24" xmlns="http://www.w3.org/2000/svg"><path d="M12.6666667,4 C12.8507616,4 13,4.14923842 13,4.33333333 L13,11 L19.6666667,11 C19.8507616,11 20,11.1492384 20,11.3333333 L20,12.6666667 C20,12.8507616 19.8507616,13 19.6666667,13 L13,13 L13,19.6666667 C13,19.8507616 12.8507616,20 12.6666667,20 L11.3333333,20 C11.1492384,20 11,19.8507616 11,19.6666667 L11,13 L4.33333333,13 C4.14923842,13 4,12.8507616 4,12.6666667 L4,11.3333333 C4,11.1492384 4.14923842,11 4.33333333,11 L11,11 L11,4.33333333 C11,4.14923842 11.1492384,4 11.3333333,4 L12.6666667,4 Z" fill="currentColor"></path></svg>