<svg viewBox="0 0 24 24" xmlns="http://www.w3.org/2000/svg"><path d="M14,18 C14,19.1045695 13.1045695,20 12,20 C10.9124239,20 10.0276012,19.1319093 10.0006333,18.0508291 L10,18 L14,18 Z M12,4 C12.5522847,4 13,4.44771525 13,5 C13,5.03470238 12.9982324,5.06899191 12.9947822,5.10278346 C15.2535809,5.57429998 16.9606779,7.61604018 16.9993301,10 L16.9999692,12.8619724 C16.9999889,12.9503521 17.0351064,13.0351064 17.0976002,13.0976002 L18.8047379,14.8047379 C18.9297621,14.9297621 19,15.0993314 19,15.2761424 L19,16.6666667 C19,16.8507616 18.8507616,17 18.6666667,17 L5.33333333,17 C5.14923842,17 5,16.8507616 5,16.6666667 L5,15.2761424 C5,15.0993314 5.07023789,14.9297621 5.19526215,14.8047379 L6.90236893,13.0976311 C6.96488105,13.0351189 7,12.9503343 7,12.8619288 L7,10 C7,7.57930886 8.72022218,5.56039713 11.0049067,5.09902468 C11.0016426,5.06652208 11,5.03345287 11,5 C11,4.44771525 11.4477153,4 12,4 Z" fill="currentColor"></path></svg>