<svg viewBox="0 0 24 24" xmlns="http://www.w3.org/2000/svg"><path d="M12,5 C15.8659932,5 19,8.13400675 19,12 C19,15.8659932 15.8659932,19 12,19 C8.13400675,19 5,15.8659932 5,12 C5,8.13400675 8.13400675,5 12,5 Z M16.2382446,9.69280196 L15.3199868,8.76294965 C15.1998699,8.64133218 15.0090632,8.63492785 14.8815013,8.74373913 L14.8608495,8.76294116 L10.9951104,12.6772054 L9.8056616,11.4727379 C9.68554955,11.3511092 9.49473723,11.3447077 9.36718304,11.4535333 L9.3465327,11.4727379 L8.4282749,12.4025902 C8.30842129,12.5243336 8.30203445,12.7174238 8.40917138,12.8467705 L8.42807869,12.8677149 L10.7635025,15.2370688 L10.7841528,15.2562733 C10.9046201,15.3590526 11.0815039,15.3590437 11.2018143,15.2561045 L11.2224353,15.2368703 L16.2382446,10.1577281 C16.3583567,10.0360995 16.3646784,9.84287781 16.2572097,9.71371305 L16.2382446,9.69280196 L15.3199868,8.76294965 L16.2382446,9.69280196 Z" fill="currentColor"></path></svg>