<svg viewBox="0 0 24 24" xmlns="http://www.w3.org/2000/svg"><path d="M12.0185373,4.00027454 C12.1000247,4.00356899 12.1805484,4.03651352 12.242762,4.09910811 L18.9014951,10.7986163 C19.032835,10.9307605 19.032835,11.1450085 18.9014951,11.2771526 L17.9502475,12.2342252 C17.8189076,12.3663694 17.6059636,12.3663694 17.4746237,12.2342252 L13,7.733 L13,19.6666667 C13,19.8507616 12.8507616,20 12.6666667,20 L11.3333333,20 C11.1492384,20 11,19.8507616 11,19.6666667 L11,7.731 L6.52537628,12.2342252 C6.3940364,12.3663694 6.18109238,12.3663694 6.04975249,12.2342252 L5.09850491,11.2771526 C4.96716503,11.1450085 4.96716503,10.9307605 5.09850491,10.7986163 L11.757238,4.09910811 C11.8263642,4.02955856 11.9180955,3.99661403 12.0086371,4.00027454 L12.0185373,4.00027454 Z" fill="currentColor"></path></svg>