<svg viewBox="0 0 24 24" xmlns="http://www.w3.org/2000/svg"><path d="M12.6666667,4 C12.8507616,4 13,4.14923842 13,4.33333333 L13,16.267 L17.4746237,11.7657748 C17.6059636,11.6336306 17.8189076,11.6336306 17.9502475,11.7657748 L18.9014951,12.7228474 C19.032835,12.8549915 19.032835,13.0692395 18.9014951,13.2013837 L12.242762,19.9008919 C12.1736358,19.9704414 12.0819045,20.003386 11.9913629,19.9997255 L11.9814627,19.9997255 C11.8999753,19.996431 11.8194516,19.9634865 11.757238,19.9008919 L5.09850491,13.2013837 C4.96716503,13.0692395 4.96716503,12.8549915 5.09850491,12.7228474 L6.04975249,11.7657748 C6.18109238,11.6336306 6.3940364,11.6336306 6.52537628,11.7657748 L11,16.267 L11,4.33333333 C11,4.14923842 11.1492384,4 11.3333333,4 L12.6666667,4 Z" fill="currentColor"></path></svg>