<svg viewBox="0 0 24 24" xmlns="http://www.w3.org/2000/svg"><g fill="none" fill-rule="evenodd"><path d="M0 0h24v24H0z"/><path d="M9.875 4.332a2.393 2.393 0 0 1 2.403 2.403h1.601c0-2.269-1.735-4.004-4.004-4.004-2.268 0-4.004 1.735-4.004 4.004h1.602c0-1.402 1-2.403 2.402-2.403zm5.539 5.605c.333 0 .667 0 .934.067l-.133-2.47H3.469L2.668 18.68h8.208a5.28 5.28 0 0 1-1.068-3.204c.067-3.069 2.536-5.538 5.605-5.538h.001zm3.403 7.808c.401-.667.668-1.468.668-2.268 0-2.269-1.736-4.004-4.004-4.004-2.269 0-4.004 1.735-4.004 4.004 0 2.268 1.735 4.004 4.004 4.004.8 0 1.601-.267 2.268-.668l2.536 2.536 1.135-1.134-2.603-2.47zm-3.403.134a2.393 2.393 0 0 1-2.403-2.403 2.393 2.393 0 0 1 2.403-2.403 2.393 2.393 0 0 1 2.403 2.403c0 1.335-1.001 2.403-2.403 2.403z" fill="currentColor" fill-rule="nonzero"/></g></svg>