<svg viewBox="0 0 24 24" xmlns="http://www.w3.org/2000/svg"><g fill="none" fill-rule="evenodd"><path d="M0 0h24v24H0z"/><path d="M19.685 4.866h-1.668V3.131h-1.668V7.4H14.68V4.865H9.609V3.13H7.741V7.4H6.073V4.866H4.337c-.934 0-1.668.734-1.668 1.668V19.28c0 .934.734 1.668 1.668 1.668H19.62c.934 0 1.668-.734 1.668-1.668V6.533c.066-.934-.668-1.668-1.602-1.668v.001zM8.607 18.413H5.204v-3.404h3.403v3.404zm0-5.072H5.204V9.937h3.403v3.404zm5.072 5.072h-3.404v-3.404h3.404v3.404zm0-5.072h-3.404V9.937h3.404v3.404zm5.138 0h-3.403V9.937h3.403v3.404z" fill="currentColor" fill-rule="nonzero"/></g></svg>