<svg viewBox="0 0 24 24" xmlns="http://www.w3.org/2000/svg"><path d="M8.12567915,16.5815564 C9.07187512,17.3825109 10.2695001,17.8956323 11.583409,17.9857576 L11.583409,19.9893366 C9.71781265,19.8936174 8.02106547,19.1587884 6.70785165,17.9995245 L8.12567915,16.5815564 Z M5.71917716,4 C5.88339855,4.01353693 6.0137086,4.13709919 6.02586652,4.30095091 L6.02679203,4.32714689 L6.036357,6.54764493 L6.44318849,6.21515961 L6.70366027,6.00420128 C8.11451655,4.75697288 9.96889068,4 12.0000653,4 C16.4183433,4 20.0000653,7.581722 20.0000653,12 C20.0000653,16.2220861 16.7293709,19.6802606 12.5834522,19.9790534 L12.5834921,17.9719972 C15.6234253,17.6786567 18.0000653,15.1168754 18.0000653,12 C18.0000653,8.6862915 15.3137738,6 12.0000653,6 C10.2707526,6 8.7123135,6.73159642 7.61737022,7.90216689 L7.56017118,7.96417961 L9.67291841,7.97327327 C9.85099368,7.9727297 9.98770811,8.11008116 9.99927499,8.28482331 L10.000067,8.31002998 L10.000067,9.66118114 C9.99952181,9.83925641 9.86627782,9.98556813 9.69191132,9.99904786 L9.66673196,10.000059 L4.2521139,9.99994702 L4.25505401,9.98847244 C4.20334346,9.97456315 4.15660972,9.94864392 4.11801346,9.91387513 L4.08884781,9.8849675 C4.03963618,9.83160907 4.00755089,9.76220255 4.00117083,9.68537383 L4,9.65623199 L4,4.33333333 C4.00060589,4.15525806 4.13885083,4.01394452 4.31367183,4.00097049 L4.33888416,4 L5.71917716,4 Z M5.67591982,12 C5.84779351,12 5.98993983,12.1302694 6.00744404,12.2985096 L6.00912299,12.3240189 L6.00960258,12.3411752 C6.08491422,13.684667 6.60223527,14.9100892 7.41850101,15.8743768 L6.00072992,17.2924396 C4.84735634,15.9860353 4.11405416,14.3000146 4.01221505,12.4457601 L4.00716143,12.3403457 L4.00708766,12.3333333 C4.00708766,12.1576064 4.14306729,12.0136391 4.31554393,12.0009143 L4.34042099,12 L5.67591982,12 Z M12.1666667,7 C12.3507616,7 12.5,7.14923842 12.5,7.33333333 L12.5,11.6261667 L15.0320672,14.1582887 C15.1622371,14.2884664 15.1622359,14.4995194 15.0320647,14.6296958 L14.7979144,14.863846 C14.674591,14.9871695 14.478677,14.9936602 14.3477124,14.8833181 L14.3249681,14.862294 L11.5,12 L11.5,7.33333333 C11.5,7.14923842 11.6492384,7 11.8333333,7 L12.1666667,7 Z" fill="currentColor"></path></svg>