<svg viewBox="0 0 24 24" xmlns="http://www.w3.org/2000/svg"><g fill="none" fill-rule="evenodd"><path d="M0 0h24v24H0z"/><path d="M18.55 2.73H7.34c-1.001 0-1.87.868-1.87 1.87v.933h1.87v.934H3.602v1.869H5.47v1.869h1.87v.934H3.603v1.868h1.869v1.869h1.869v.934H3.604v1.869h1.869v1.868c0 1.001.867 1.869 1.868 1.869h11.211c1 0 1.869-.867 1.869-1.869V4.6c0-1-.868-1.868-1.869-1.868h-.002zm-5.605 5.606c1 0 1.868.867 1.868 1.869 0 1.001-.867 1.868-1.868 1.868-1.002 0-1.869-.867-1.869-1.868 0-1.002.867-1.869 1.869-1.869zm-2.803 7.474c0-1.668 1.135-2.803 2.803-2.803s2.802 1.135 2.802 2.803h-5.605z" fill="currentColor" fill-rule="nonzero"/></g></svg>