<svg viewBox="0 0 24 24" xmlns="http://www.w3.org/2000/svg"><path fill="currentColor" fill-rule="nonzero" d="M19.2 6.285v14.667c0 .18-.076.341-.196.457a.678.678 0 0 1-.472.19H5.468a.678.678 0 0 1-.472-.19.635.635 0 0 1-.196-.457V3.047c0-.18.076-.341.196-.457a.678.678 0 0 1 .472-.19h9.737c.087 0 .167.039.222.098l3.671 3.576a.278.278 0 0 1 .102.214v-.003zm-.581 14.667V6.566h-3.414a.287.287 0 0 1-.29-.281V2.959H5.468a.09.09 0 0 0-.061.025.083.083 0 0 0-.026.06v17.905c0 .024.011.045.026.06a.09.09 0 0 0 .061.024h13.064a.09.09 0 0 0 .061-.024.083.083 0 0 0 .026-.06v.003zM16.99 13.2c0 .884-.727 1.6-1.625 1.6H8.457c-.898 0-1.625-.716-1.625-1.6v-2c0-.884.727-1.6 1.625-1.6h6.908c.898 0 1.625.716 1.625 1.6v2zm-5.406-1.805a.498.498 0 0 0-.232.179.438.438 0 0 0-.077.246c0 .13.051.239.153.323.098.085.265.151.501.204.145.032.236.063.276.099.04.035.058.073.058.116 0 .045-.021.084-.061.12a.273.273 0 0 1-.178.052.29.29 0 0 1-.236-.102.343.343 0 0 1-.07-.183l-.508.032a.64.64 0 0 0 .193.418c.116.11.32.165.613.165.167 0 .309-.024.418-.07a.596.596 0 0 0 .258-.207.547.547 0 0 0 .09-.3.455.455 0 0 0-.068-.249.526.526 0 0 0-.222-.186 2.322 2.322 0 0 0-.501-.148.484.484 0 0 1-.182-.063c-.025-.021-.04-.042-.04-.07 0-.039.015-.07.048-.095a.232.232 0 0 1 .141-.039c.077 0 .135.018.178.053.044.035.07.091.084.165l.505-.028c-.022-.172-.091-.299-.207-.38-.117-.08-.287-.12-.509-.12-.178 0-.32.025-.425.068zm1.95 1.641h.582l.642-1.677h-.544l-.385 1.206-.389-1.206h-.56l.654 1.677zm-4.18-.843v-.008c0 .208.044.38.131.514a.724.724 0 0 0 .309.281c.12.053.272.08.46.08.157 0 .284-.024.386-.066a.647.647 0 0 0 .254-.193.85.85 0 0 0 .149-.32l-.468-.137a.511.511 0 0 1-.113.242c-.05.057-.13.085-.232.085-.106 0-.19-.032-.247-.102-.059-.07-.088-.197-.088-.384 0-.15.026-.26.073-.33a.32.32 0 0 1 .28-.14.3.3 0 0 1 .254.123.43.43 0 0 1 .05.112l.473-.102a.77.77 0 0 0-.28-.394c-.127-.084-.298-.126-.515-.126-.28 0-.494.077-.647.225-.152.147-.229.362-.229.64z"/></svg>