<svg viewBox="0 0 24 24" xmlns="http://www.w3.org/2000/svg"><g fill="none" fill-rule="evenodd"><path d="M0 0h24v24H0z"/><path d="M9.475 3.13c-.334 0-.668.134-.868.468L7.473 5.8l-2.403.4c-.534.134-.867.535-.8 1.069l.333 2.402-1.668 1.736c-.334.334-.334.934 0 1.268l1.668 1.735-.334 2.403c-.066.467.267.934.734 1.068l2.403.4 1.135 2.136c.2.467.8.6 1.201.4l2.202-1.068 2.202 1.068c.467.2 1 .067 1.201-.4l1.135-2.136 2.403-.4c.467-.067.8-.534.734-1.068l-.334-2.403 1.668-1.735c.334-.334.334-.934 0-1.268L19.285 9.67l.334-2.402c.066-.468-.267-.934-.734-1.068l-2.403-.4-1.135-2.135c-.2-.468-.8-.601-1.201-.401l-2.135 1.068-2.202-1.068c-.134-.067-.2-.133-.334-.133zM9.34 7.603c1.001 0 1.802.8 1.802 1.802 0 1.001-.8 1.802-1.802 1.802-1.001 0-1.802-.8-1.802-1.802 0-1.001.801-1.802 1.802-1.802zm4.805.467l1.068.801-5.339 7.14-1.068-.8 5.339-7.14zm-4.805.4a.883.883 0 0 0-.867.868c0 .466.4.867.867.867.468 0 .868-.4.868-.867a.884.884 0 0 0-.868-.868zm5.339 4.472c1 0 1.802.8 1.802 1.802 0 1.001-.8 1.802-1.802 1.802a1.795 1.795 0 0 1-1.802-1.802c0-1.002.8-1.802 1.802-1.802zm0 .934c-.467 0-.867.4-.867.867 0 .467.4.867.867.867.467 0 .867-.4.867-.867 0-.467-.333-.867-.867-.867z" fill="currentColor" fill-rule="nonzero"/></g></svg>