<svg viewBox="0 0 24 24" xmlns="http://www.w3.org/2000/svg"><g fill-rule="evenodd"><path d="M15.0857864,4 C15.3510029,4 15.6053568,4.10535684 15.7928932,4.29289322 L18.7071068,7.20710678 C18.8946432,7.39464316 19,7.64899707 19,7.91421356 L19,19.6666667 C19,19.8507616 18.8507616,20 18.6666667,20 L5.33333333,20 C5.14923842,20 5,19.8507616 5,19.6666667 L5,4.33333333 C5,4.14923842 5.14923842,4 5.33333333,4 L15.0857864,4 Z M14.6666667,16 C14.8507616,16 15,16.1492384 15,16.3333333 L15,16.6666667 C15,16.8507616 14.8507616,17 14.6666667,17 L7.33333333,17 C7.14923842,17 7,16.8507616 7,16.6666667 L7,16.3333333 C7,16.1492384 7.14923842,16 7.33333333,16 L14.6666667,16 Z M16.6666667,14 C16.8507616,14 17,14.1492384 17,14.3333333 L17,14.6666667 C17,14.8507616 16.8507616,15 16.6666667,15 L7.33333333,15 C7.14923842,15 7,14.8507616 7,14.6666667 L7,14.3333333 C7,14.1492384 7.14923842,14 7.33333333,14 L16.6666667,14 Z M16.6666667,12 C16.8507616,12 17,12.1492384 17,12.3333333 L17,12.6666667 C17,12.8507616 16.8507616,13 16.6666667,13 L7.33333333,13 C7.14923842,13 7,12.8507616 7,12.6666667 L7,12.3333333 C7,12.1492384 7.14923842,12 7.33333333,12 L16.6666667,12 Z M16.6666667,10 C16.8507616,10 17,10.1492384 17,10.3333333 L17,10.6666667 C17,10.8507616 16.8507616,11 16.6666667,11 L7.33333333,11 C7.14923842,11 7,10.8507616 7,10.6666667 L7,10.3333333 C7,10.1492384 7.14923842,10 7.33333333,10 L16.6666667,10 Z M10.6666667,8 C10.8507616,8 11,8.14923842 11,8.33333333 L11,8.66666667 C11,8.85076158 10.8507616,9 10.6666667,9 L7.33333333,9 C7.14923842,9 7,8.85076158 7,8.66666667 L7,8.33333333 C7,8.14923842 7.14923842,8 7.33333333,8 L10.6666667,8 Z" fill="currentColor"></path></g></svg>