<svg viewBox="0 0 24 24" xmlns="http://www.w3.org/2000/svg"><g fill="none" fill-rule="evenodd"><path d="M0 0h24v24H0z"/><path d="M15.29 14.258c0 .797-.26 1.483-.778 2.058-.518.576-1.191.931-2.02 1.067v1.367a.243.243 0 0 1-.07.18.243.243 0 0 1-.18.07h-1.054a.24.24 0 0 1-.176-.074.24.24 0 0 1-.074-.176v-1.367a4.924 4.924 0 0 1-.996-.242 5.246 5.246 0 0 1-.793-.348 5.26 5.26 0 0 1-.578-.375 4.46 4.46 0 0 1-.364-.293 1.987 1.987 0 0 1-.136-.14c-.089-.11-.094-.217-.016-.32l.805-1.056c.036-.052.096-.083.18-.093.077-.01.14.013.187.07l.015.016c.589.515 1.222.84 1.899.976.193.042.385.063.578.063.422 0 .793-.112 1.113-.336.32-.224.48-.542.48-.953a.792.792 0 0 0-.116-.415 1.465 1.465 0 0 0-.262-.328 2.143 2.143 0 0 0-.457-.293c-.209-.106-.38-.19-.516-.25-.135-.06-.344-.144-.625-.254a62.336 62.336 0 0 0-.48-.195 13.46 13.46 0 0 1-.48-.207 5.685 5.685 0 0 1-.489-.242 8.046 8.046 0 0 1-.441-.277 2.752 2.752 0 0 1-.418-.332 4.86 4.86 0 0 1-.34-.383c-.12-.149-.212-.3-.278-.453a3.128 3.128 0 0 1-.164-.52 2.715 2.715 0 0 1-.066-.61c0-.718.255-1.348.766-1.89.51-.542 1.174-.89 1.992-1.047V5.25a.24.24 0 0 1 .074-.176.24.24 0 0 1 .176-.074h1.054c.073 0 .133.023.18.07.047.047.07.107.07.18v1.375c.297.031.585.091.864.18.278.088.505.175.68.261.174.086.34.184.495.293.157.11.258.185.305.227.047.042.086.078.117.11.089.093.102.192.04.296l-.633 1.14c-.042.079-.102.12-.18.126a.249.249 0 0 1-.211-.055 1.605 1.605 0 0 0-.113-.094 4.267 4.267 0 0 0-.305-.207 3.49 3.49 0 0 0-1.04-.453 2.59 2.59 0 0 0-.667-.09c-.495 0-.898.112-1.21.336-.313.224-.47.513-.47.867a.88.88 0 0 0 .297.7c.11.101.212.187.309.258.096.07.242.15.437.242a12.091 12.091 0 0 0 1.02.425 10.589 10.589 0 0 1 1.227.52c.25.122.446.233.59.332.142.099.304.23.484.39.18.162.317.328.414.497.096.17.178.368.246.597.067.23.101.474.101.735z" fill="currentColor"/></g></svg>