<svg viewBox="0 0 24 24" xmlns="http://www.w3.org/2000/svg"><path d="M14.1666667,13.125 L19.8879285,17.4159792 C19.8290717,17.4682521 19.7515768,17.5 19.6666667,17.5 L4.33333333,17.5 C4.24850528,17.5 4.17107804,17.4683134 4.11224213,17.4161306 L9.83333333,13.125 L11.8,14.6 C11.9185185,14.6888889 12.0814815,14.6888889 12.2,14.6 L14.1666667,13.125 Z M4,8.75 L9,12.5 L4,16.25 L4,8.75 Z M20,8.75 L20,16.25 L15,12.5 L20,8.75 Z M19.6666667,6.5 C19.8507616,6.5 20,6.64923842 20,6.83333333 L20,7.5 L12.2,13.35 C12.0814815,13.4388889 11.9185185,13.4388889 11.8,13.35 L4,7.5 L4,6.83333333 C4,6.64923842 4.14923842,6.5 4.33333333,6.5 L19.6666667,6.5 Z" fill="currentColor"></path></svg>