<svg viewBox="0 0 24 24" xmlns="http://www.w3.org/2000/svg"><path d="M12.677694,7.25614201 L19.90643,14.484878 C20.03119,14.609638 20.03119,14.811914 19.90643,14.936674 L18.77694,16.066164 C18.0283799,15.3176039 16.8147241,15.3176039 16.066164,16.066164 C15.3176039,16.8147241 15.3176039,18.0283799 16.066164,18.77694 L14.936674,19.90643 C14.811914,20.03119 14.609638,20.03119 14.484878,19.90643 L7.25614201,12.677694 L12.677694,7.25614201 Z M10.9971829,11.0029719 C10.9740382,11.0285978 10.9698143,11.0666101 10.9865689,11.0984914 L11.6192207,12.3216324 L10.6736663,13.2671869 C10.6483883,13.2926358 10.6430443,13.3321998 10.6604082,13.3653418 C10.6777721,13.3984838 10.7139319,13.4177371 10.7501177,13.4131077 L12.106415,13.2333618 L12.7714117,14.488847 C12.7889561,14.5221602 12.8254804,14.5413436 12.8618297,14.5363365 C12.898179,14.5313294 12.9260564,14.5032746 12.9308418,14.4668854 L13.1105882,13.1105882 L14.4668855,12.9308418 C14.5032747,12.9260563 14.5313294,12.8981789 14.5363365,12.8618296 C14.5413436,12.8254803 14.5221603,12.788956 14.488847,12.7714116 L13.2333615,12.1064153 L13.4131077,10.7501177 C13.4177371,10.7139319 13.3984838,10.6777721 13.3653418,10.6604082 C13.3321998,10.6430443 13.2926358,10.6483883 13.2671869,10.6736663 L12.3216325,11.6192206 L11.0984915,10.9865688 C11.0638228,10.9683464 11.0223114,10.9750675 10.9971829,11.0029719 Z M5.22306001,7.93383601 C5.97162013,8.68239613 7.18527589,8.68239613 7.93383601,7.93383601 C8.68239613,7.18527589 8.68239613,5.97162013 7.93383601,5.22306001 L9.06332601,4.09357002 C9.18808603,3.96880999 9.39036198,3.96880999 9.515122,4.09357002 L12,6.57844801 L6.57844801,12 L4.09357002,9.515122 C3.96880999,9.39036198 3.96880999,9.18808603 4.09357002,9.06332601 L5.22306001,7.93383601 Z" fill="currentColor"></path></svg>