<svg viewBox="0 0 24 24" fill="none" xmlns="http://www.w3.org/2000/svg"><path fill="currentColor" fill-opacity=".01" d="M0 0h24v24H0z"/><path fill-rule="evenodd" clip-rule="evenodd" d="M6.862 10.833c.088 0 .173.035.236.098l1.333 1.333a.333.333 0 01-.236.57H6V18h12v-5.167h-2.195a.333.333 0 01-.236-.569l1.333-1.333a.333.333 0 01.236-.098h2.529c.184 0 .333.15.333.334v8.5c0 .184-.15.333-.333.333H4.333A.333.333 0 014 19.667v-8.5c0-.184.15-.334.333-.334h2.529zm5.374-6.737l4.168 4.254a.333.333 0 010 .466l-1.076 1.1a.333.333 0 01-.472.004l-1.86-1.898v5.644c0 .184-.15.334-.334.334h-1.325a.333.333 0 01-.334-.334V8.022L9.148 9.915a.333.333 0 01-.45.024l-.026-.024-1.077-1.099a.333.333 0 010-.466l4.164-4.25a.332.332 0 01.221-.1h.005a.333.333 0 01.25.096z" fill="currentColor"/></svg>