<svg viewBox="0 0 24 24" xmlns="http://www.w3.org/2000/svg"><path d="M12,4 C7.582,4 4,7.582 4,12 C4,16.0106667 6.95466667,19.3226667 10.804,19.9013333 L10.804,14.12 L8.82466667,14.12 L8.82466667,12.0173333 L10.804,12.0173333 L10.804,10.618 C10.804,8.30133333 11.9326667,7.28466667 13.858,7.28466667 C14.78,7.28466667 15.268,7.35333333 15.4986667,7.384 L15.4986667,9.21933333 L14.1853333,9.21933333 C13.368,9.21933333 13.0826667,9.99466667 13.0826667,10.868 L13.0826667,12.0173333 L15.478,12.0173333 L15.1533333,14.12 L13.0826667,14.12 L13.0826667,19.918 C16.9873333,19.3886667 20,16.05 20,12 C20,7.582 16.418,4 12,4 Z" fill="currentColor"></path></svg>