<svg viewBox="0 0 24 24" xmlns="http://www.w3.org/2000/svg"><g fill="none" fill-rule="evenodd"><path d="M0 0h24v24H0z"/><path d="M18.55 9.27c1.601 0 2.803-1.201 2.803-2.803 0-1.601-1.202-2.802-2.803-2.802-1.201 0-2.269.734-2.603 1.868H2.668v1.869h13.28c.333 1.135 1.4 1.869 2.602 1.869V9.27zm-9.342 0c-1.201 0-2.269.734-2.603 1.869H2.668v1.868h3.937c.401 1.135 1.402 1.869 2.603 1.869 1.201 0 2.269-.734 2.603-1.869h9.542V11.14h-9.542c-.334-1.135-1.402-1.869-2.603-1.869zm9.342 5.606c-1.201 0-2.269.734-2.603 1.869H2.668v1.868h13.28c.4 1.135 1.4 1.869 2.602 1.869 1.601 0 2.803-1.201 2.803-2.803 0-1.601-1.202-2.802-2.803-2.802v-.001z" fill="currentColor" fill-rule="nonzero"/></g></svg>