<svg xmlns="http://www.w3.org/2000/svg" viewBox="0 0 24 24">
<g fill="none" fill-rule="evenodd">
<path d="M 12.355469 16.21875 L 12.355469 16.125 C 11.875 16.121094 11.417969 16.09375 10.976562 16.058594 C 10.738281 16.675781 10.402344 17.253906 9.980469 17.769531 C 10.773438 17.898438 11.582031 17.972656 12.386719 17.980469 Z M 12.355469 16.21875 " fill="currentColor" fill-rule="nonzero"/>
<path d="M 10.25 12.78125 C 9.867188 10.941406 8.511719 9.445312 6.707031 8.878906 C 6.210938 8.730469 5.695312 8.652344 5.175781 8.652344 C 3.886719 8.65625 2.640625 9.136719 1.691406 9.996094 C -0.421875 11.917969 -0.574219 15.195312 1.347656 17.3125 C 3.269531 19.425781 6.546875 19.574219 8.660156 17.652344 C 9.742188 16.671875 10.359375 15.285156 10.355469 13.824219 C 10.355469 13.476562 10.316406 13.125 10.25 12.78125 Z M 5.175781 13.128906 C 6.054688 13.128906 6.828125 13.710938 7.066406 14.558594 C 7.359375 15.601562 6.753906 16.683594 5.707031 16.980469 L 5.707031 17.4375 C 5.707031 17.722656 5.472656 17.957031 5.1875 17.957031 C 4.902344 17.957031 4.667969 17.722656 4.667969 17.4375 L 4.667969 16.984375 C 3.808594 16.75 3.21875 15.976562 3.210938 15.089844 C 3.210938 14.800781 3.445312 14.570312 3.730469 14.570312 C 4.015625 14.570312 4.25 14.800781 4.25 15.089844 C 4.25 15.597656 4.667969 16.007812 5.175781 16.007812 C 5.683594 16.007812 6.09375 15.59375 6.09375 15.082031 C 6.09375 14.574219 5.679688 14.164062 5.171875 14.164062 C 4.28125 14.164062 3.507812 13.566406 3.28125 12.710938 C 3.003906 11.671875 3.628906 10.589844 4.671875 10.308594 L 4.671875 10.085938 C 4.671875 9.800781 4.90625 9.566406 5.191406 9.566406 C 5.476562 9.566406 5.710938 9.800781 5.710938 10.085938 L 5.710938 10.320312 C 6.558594 10.558594 7.140625 11.332031 7.140625 12.210938 C 7.140625 12.496094 6.90625 12.730469 6.621094 12.730469 C 6.335938 12.730469 6.101562 12.496094 6.101562 12.210938 C 6.101562 11.703125 5.683594 11.285156 5.175781 11.285156 C 4.667969 11.285156 4.257812 11.695312 4.25 12.210938 C 4.25 12.71875 4.667969 13.128906 5.175781 13.128906 Z M 5.175781 13.128906 " fill="currentColor" fill-rule="nonzero"/>
<path d="M 12.339844 15.082031 L 12.308594 13.242188 C 11.984375 13.238281 11.667969 13.226562 11.367188 13.207031 C 11.382812 13.414062 11.394531 13.617188 11.394531 13.820312 C 11.394531 14.226562 11.351562 14.636719 11.273438 15.035156 C 11.617188 15.066406 11.976562 15.082031 12.339844 15.082031 Z M 12.339844 15.082031 " fill="currentColor" fill-rule="nonzero"/>
<path d="M 18.027344 6.484375 C 17.667969 6.671875 17.289062 6.824219 16.898438 6.9375 C 15.730469 7.292969 14.199219 7.484375 12.597656 7.484375 C 11.066406 7.484375 9.605469 7.308594 8.480469 6.980469 C 8.089844 6.875 7.714844 6.730469 7.359375 6.546875 L 7.394531 8.011719 C 7.980469 8.230469 8.527344 8.542969 9.019531 8.933594 C 9.035156 8.9375 9.046875 8.9375 9.0625 8.941406 C 10.058594 9.199219 11.316406 9.332031 12.597656 9.332031 C 14.085938 9.332031 15.542969 9.144531 16.597656 8.828125 C 17.726562 8.484375 17.976562 8.128906 17.976562 8.058594 C 17.976562 7.988281 17.96875 7.917969 18.027344 7.847656 Z M 18.027344 6.484375 " fill="currentColor" fill-rule="nonzero"/>
<path d="M 16.59375 4.425781 C 15.539062 4.101562 14.078125 3.921875 12.59375 3.921875 C 11.097656 3.921875 9.695312 4.101562 8.644531 4.425781 C 7.550781 4.757812 7.3125 5.082031 7.304688 5.1875 C 7.304688 5.1875 7.3125 5.1875 7.3125 5.199219 C 7.335938 5.3125 7.648438 5.664062 8.765625 5.988281 C 9.796875 6.289062 11.160156 6.457031 12.59375 6.457031 C 14.078125 6.457031 15.535156 6.273438 16.585938 5.957031 C 17.714844 5.617188 17.96875 5.261719 17.96875 5.1875 C 17.96875 5.121094 17.71875 4.765625 16.59375 4.425781 Z M 16.59375 4.425781 " fill="currentColor" fill-rule="nonzero"/>
<path d="M 23.988281 18.796875 L 23.988281 17.238281 C 23.640625 17.414062 23.277344 17.566406 22.898438 17.679688 C 21.734375 18.03125 20.214844 18.226562 18.609375 18.226562 C 17.183594 18.226562 15.796875 18.0625 14.707031 17.777344 C 14.261719 17.664062 13.828125 17.507812 13.414062 17.304688 L 13.441406 18.8125 C 13.441406 18.816406 13.441406 18.816406 13.441406 18.824219 C 13.441406 18.902344 13.667969 19.25 14.765625 19.585938 C 15.804688 19.902344 17.207031 20.078125 18.707031 20.078125 C 20.203125 20.078125 21.609375 19.898438 22.660156 19.570312 C 23.757812 19.226562 23.996094 18.871094 23.996094 18.796875 Z M 23.988281 18.796875 " fill="currentColor" fill-rule="nonzero"/>
<path d="M 18.015625 9.382812 C 17.65625 9.566406 17.285156 9.71875 16.894531 9.832031 C 15.726562 10.183594 14.191406 10.375 12.589844 10.375 C 11.796875 10.375 11.015625 10.324219 10.234375 10.226562 C 10.65625 10.808594 10.96875 11.460938 11.164062 12.160156 C 11.613281 12.191406 12.09375 12.210938 12.59375 12.210938 C 12.609375 12.210938 12.628906 12.210938 12.644531 12.210938 C 13.496094 11.277344 15.789062 10.808594 18.015625 10.746094 Z M 18.015625 9.382812 " fill="currentColor" fill-rule="nonzero"/>
<path d="M 22.863281 14.808594 C 21.703125 15.148438 20.199219 15.335938 18.617188 15.335938 C 17.085938 15.335938 15.625 15.160156 14.5 14.832031 C 14.109375 14.722656 13.730469 14.578125 13.367188 14.398438 L 13.386719 15.59375 L 13.394531 16.027344 C 13.796875 16.53125 15.734375 17.179688 18.613281 17.179688 C 20.113281 17.179688 21.53125 17.003906 22.597656 16.683594 C 23.71875 16.339844 23.964844 15.988281 23.964844 15.914062 C 23.964844 15.855469 23.996094 15.792969 23.996094 15.742188 L 24 15.742188 L 24 14.367188 C 23.636719 14.546875 23.257812 14.703125 22.863281 14.808594 Z M 22.863281 14.808594 " fill="currentColor" fill-rule="nonzero"/>
<path d="M 22.617188 12.289062 C 21.558594 11.964844 20.105469 11.792969 18.617188 11.792969 L 18.53125 11.792969 C 17.148438 11.792969 15.835938 11.949219 14.828125 12.238281 C 13.75 12.539062 13.382812 12.878906 13.335938 13.019531 C 13.332031 13.03125 13.332031 13.035156 13.332031 13.042969 C 13.332031 13.042969 13.332031 13.042969 13.339844 13.0625 C 13.371094 13.171875 13.679688 13.523438 14.796875 13.851562 C 15.828125 14.148438 17.191406 14.3125 18.625 14.3125 C 20.105469 14.3125 21.507812 14.144531 22.570312 13.824219 C 23.726562 13.484375 23.984375 13.125 23.988281 13.046875 L 23.988281 13.042969 C 23.984375 12.964844 23.726562 12.621094 22.617188 12.289062 Z M 22.617188 12.289062 " fill="currentColor" fill-rule="nonzero"/>
</g>
</svg>
