<svg viewBox="0 0 24 24" xmlns="http://www.w3.org/2000/svg"><path d="M19.6666667,4 C19.8507616,4 20,4.14923842 20,4.33333333 L20,19.6666667 C20,19.8507616 19.8507616,20 19.6666667,20 L4.33333333,20 C4.14923842,20 4,19.8507616 4,19.6666667 L4,4.33333333 C4,4.14923842 4.14923842,4 4.33333333,4 L19.6666667,4 Z M9.41662627,12.7904596 L6,16.207 L6,18 L18,18 L18,17.7071667 L14.4166263,14.1237929 L12.5832929,15.9571263 L9.41662627,12.7904596 Z M18,6 L6,6 L6,14.7926667 L9.41662627,11.3761263 L12.5832929,14.5427929 L14.3939935,12.732233 L14.5427929,12.8811263 L18,16.3015 L18,6 Z M15,7 C16.1045695,7 17,7.8954305 17,9 C17,10.1045695 16.1045695,11 15,11 C13.8954305,11 13,10.1045695 13,9 C13,7.8954305 13.8954305,7 15,7 Z M15,8 C14.4477153,8 14,8.44771525 14,9 C14,9.55228475 14.4477153,10 15,10 C15.5522847,10 16,9.55228475 16,9 C16,8.44771525 15.5522847,8 15,8 Z" fill="currentColor"></path></svg>