<svg viewBox="0 0 24 24" fill="none" xmlns="http://www.w3.org/2000/svg"><path fill="currentColor" fill-opacity=".01" d="M0 0h24v24H0z"/><path fill-rule="evenodd" clip-rule="evenodd" d="M6.862 10.833c.088 0 .173.035.236.098l1.333 1.333a.333.333 0 01-.236.57H6V18h12v-5.167h-2.195a.333.333 0 01-.236-.569l1.333-1.333a.333.333 0 01.236-.098h2.529c.184 0 .333.15.333.334v8.5c0 .184-.15.333-.333.333H4.333A.333.333 0 014 19.667v-8.5c0-.184.15-.334.333-.334h2.529zm4.902 3.071L7.594 9.65a.333.333 0 010-.466l1.078-1.099a.333.333 0 01.471-.005l1.86 1.898V4.334c0-.184.15-.333.334-.333h1.325c.184 0 .334.149.334.333v5.644l1.855-1.893a.333.333 0 01.45-.024l.027.024 1.076 1.099a.333.333 0 010 .466L12.24 13.9a.333.333 0 01-.22.1h-.006a.333.333 0 01-.25-.096z" fill="currentColor"/></svg>