<svg viewBox="0 0 24 24" xmlns="http://www.w3.org/2000/svg"><path d="M14,17 C14,18.1045695 13.1045695,19 12,19 C10.9124239,19 10.0269679,18.0810801 10,17 L14,17 Z M12,5 C14.7614237,5 17,7.23857625 17,10 C17,11.2130855 16.2123658,12.553078 14.6370974,14.0199775 C14.2308406,14.3982859 14.0000939,14.9284262 14.0000687,15.4835495 L14,16 L10,16 L10.0000357,15.4837334 C10.0000492,14.9285483 9.76928781,14.3983389 9.36297842,14.0199962 C7.78765947,12.5531082 7,11.2131094 7,10 C7,7.23857625 9.23857625,5 12,5 Z M9.87867966,7.87867966 C9.33578644,8.42157288 9,9.17157288 9,10 C9,10.8040616 9.31632477,11.5342416 9.83131806,12.0728838 L9.87867966,12.1213203 L10.5857864,11.4142136 C10.2238576,11.0522847 10,10.5522847 10,10 C10,9.46743971 10.2081533,8.98349623 10.5475406,8.62508895 L10.5857864,8.58578644 L9.87867966,7.87867966 Z" fill="currentColor"></path></svg>