<svg viewBox="0 0 24 24" xmlns="http://www.w3.org/2000/svg"><g fill="none" fill-rule="evenodd"><path d="M0 0h24v24H0z"/><path d="M20.152 7.669l-4.671-4.672c-.2-.2-.401-.266-.668-.266H4.537c-.534 0-.934.4-.934.934V20.48c0 .534.4.934.934.934h14.948c.534 0 .934-.4.934-.934V8.336a.856.856 0 0 0-.267-.667zM6.405 12.073h3.27c.266 0 .467-.2.467-.468 0-.267-.2-.467-.467-.467H8.74c-1.268 0-2.336-1.068-2.336-2.335 0-1.135.801-2.069 1.869-2.269v-1h1.869v.933h1.868v1.869H8.74c-.266 0-.467.2-.467.467 0 .268.2.468.467.468h.934c1.268 0 2.336 1.068 2.336 2.335a2.296 2.296 0 0 1-1.869 2.269v1H8.273v-.934H6.405v-1.868zm11.211 6.54H7.339v-1.869h10.277v1.869zm0-3.737h-3.737v-1.869h3.737v1.869zm0-3.737h-3.737V9.27h3.737v1.869z" fill="currentColor" fill-rule="nonzero"/></g></svg>