<svg viewBox="0 0 24 24" xmlns="http://www.w3.org/2000/svg"><g fill="none" fill-rule="evenodd"><path fill="none" d="M0 0h24v24H0z"/><path d="M10.715 11.202l-4.443 4.443a1.473 1.473 0 102.083 2.083l4.443-4.443a3.314 3.314 0 01-.755 3.358l-.043.043-2.343 2.343a3.314 3.314 0 01-4.686-4.686L7.314 12a3.314 3.314 0 013.401-.798zm5.32-2.196a.368.368 0 010 .52l-6.508 6.51a.368.368 0 01-.521 0l-1.041-1.042a.368.368 0 010-.52l6.508-6.51a.368.368 0 01.521 0l1.041 1.042zm2.994-4.035a3.314 3.314 0 01.043 4.642l-.043.044L16.686 12a3.314 3.314 0 01-3.4.798l4.43-4.431.031-.032a1.473 1.473 0 00-2.102-2.063l-4.443 4.443A3.314 3.314 0 0112 7.314l2.343-2.343a3.314 3.314 0 014.686 0z" fill="currentColor" fill-rule="nonzero"/></g></svg>
