<svg viewBox="0 0 24 24" xmlns="http://www.w3.org/2000/svg"><g fill-rule="evenodd"><path d="M14.1806981,4 C14.3575049,4 14.5270704,4.07023454 14.652094,4.1952535 L18.8047292,8.34773637 C18.9297587,8.47276133 19,8.64233431 19,8.81914954 L19,19.6666667 C19,19.8507616 18.8507616,20 18.6666667,20 L5.33333333,20 C5.14923842,20 5,19.8507616 5,19.6666667 L5,4.33333333 C5,4.14923842 5.14923842,4 5.33333333,4 L14.1806981,4 Z M15.6666667,14 C15.8507616,14 16,14.1492384 16,14.3333333 L16,15.6666667 C16,15.8507616 15.8507616,16 15.6666667,16 L10.3333333,16 C10.1492384,16 10,15.8507616 10,15.6666667 L10,14.3333333 C10,14.1492384 10.1492384,14 10.3333333,14 L15.6666667,14 Z M8.66666667,14 C8.85076158,14 9,14.1492384 9,14.3333333 L9,15.6666667 C9,15.8507616 8.85076158,16 8.66666667,16 L7.33333333,16 C7.14923842,16 7,15.8507616 7,15.6666667 L7,14.3333333 C7,14.1492384 7.14923842,14 7.33333333,14 L8.66666667,14 Z M8.66666667,11 C8.85076158,11 9,11.1492384 9,11.3333333 L9,12.6666667 C9,12.8507616 8.85076158,13 8.66666667,13 L7.33333333,13 C7.14923842,13 7,12.8507616 7,12.6666667 L7,11.3333333 C7,11.1492384 7.14923842,11 7.33333333,11 L8.66666667,11 Z M16.6666667,11 C16.8507616,11 17,11.1492384 17,11.3333333 L17,12.6666667 C17,12.8507616 16.8507616,13 16.6666667,13 L10.3333333,13 C10.1492384,13 10,12.8507616 10,12.6666667 L10,11.3333333 C10,11.1492384 10.1492384,11 10.3333333,11 L16.6666667,11 Z M8.66666667,8 C8.85076158,8 9,8.14923842 9,8.33333333 L9,9.66666667 C9,9.85076158 8.85076158,10 8.66666667,10 L7.33333333,10 C7.14923842,10 7,9.85076158 7,9.66666667 L7,8.33333333 C7,8.14923842 7.14923842,8 7.33333333,8 L8.66666667,8 Z M12.6666667,8 C12.8507616,8 13,8.14923842 13,8.33333333 L13,9.66666667 C13,9.85076158 12.8507616,10 12.6666667,10 L10.3333333,10 C10.1492384,10 10,9.85076158 10,9.66666667 L10,8.33333333 C10,8.14923842 10.1492384,8 10.3333333,8 L12.6666667,8 Z" fill="currentColor"></path></g></svg>