<svg viewBox="0 0 24 24" xmlns="http://www.w3.org/2000/svg"><g fill="none" fill-rule="evenodd"><path d="M0 0h24v24H0z"/><g fill="currentColor"><path d="M6.388 11.299A7.98 7.98 0 0 0 4.089 15.8H5.2V17H4h16-1.2v-1.2h1.11a7.98 7.98 0 0 0-2.298-4.501l-.763.764-.849-.849.693-.693A7.957 7.957 0 0 0 12.6 9.022V10.2h-1.2V9.022a7.957 7.957 0 0 0-4.093 1.499l.693.693-.849.849-.763-.764zM2 17C2 11.477 6.477 7 12 7s10 4.477 10 10H2z"/><path d="M12.046 15l-.43 1.077A1 1 0 0 0 11 17h.246H10a2 2 0 0 1 2.046-2zm1.3.52c.402.366.654.894.654 1.48h-1.246H13c0-.144-.03-.28-.085-.403l.43-1.077zm-1.432.886l2.096-5.239a.3.3 0 1 1 .557.223l-2.095 5.239c.08.102.128.23.128.371h-1.2a.6.6 0 0 1 .514-.594z"/></g></g></svg>