<svg viewBox="0 0 24 24" xmlns="http://www.w3.org/2000/svg"><g fill-rule="evenodd"><path d="M7,8 L7,9.66666667 C7,9.84239363 7.13597963,9.98636085 7.30845628,9.99908571 L7.33333333,10 L16.6666667,10 C16.8423936,10 16.9863609,9.86402037 16.9990857,9.69154372 L17,9.66666667 L17,8 L19.6666667,8 C19.8507616,8 20,8.14923842 20,8.33333333 L20,17 C20,17.1840949 19.8507616,17.3333333 19.6666667,17.3333333 L17,17.3333333 L17,19.6666667 C17,19.8507616 16.8507616,20 16.6666667,20 L7.33333333,20 C7.14923842,20 7,19.8507616 7,19.6666667 L7,17.3333333 L4.33333333,17.3333333 C4.14923842,17.3333333 4,17.1840949 4,17 L4,8.33333333 C4,8.14923842 4.14923842,8 4.33333333,8 L7,8 Z M15.6666667,13 L8.33333333,13 C8.15760637,13 8.01363915,13.1359796 8.00091429,13.3084563 L8,13.3333333 L8,18.6666667 C8,18.8423936 8.13597963,18.9863609 8.30845628,18.9990857 L8.33333333,19 L15.6666667,19 C15.8423936,19 15.9863609,18.8640204 15.9990857,18.6915437 L16,18.6666667 L16,13.3333333 C16,13.1492384 15.8507616,13 15.6666667,13 Z M18,14 C18.5522847,14 19,14.4477153 19,15 C19,15.5522847 18.5522847,16 18,16 C17.4477153,16 17,15.5522847 17,15 C17,14.4477153 17.4477153,14 18,14 Z M15.6666667,4 C15.8507616,4 16,4.14923842 16,4.33333333 L16,8.66666667 C16,8.85076158 15.8507616,9 15.6666667,9 L8.33333333,9 C8.14923842,9 8,8.85076158 8,8.66666667 L8,4.33333333 C8,4.14923842 8.14923842,4 8.33333333,4 L15.6666667,4 Z" fill="currentColor"></path></g></svg>