<svg viewBox="0 0 24 24" xmlns="http://www.w3.org/2000/svg"><g fill="none" fill-rule="evenodd"><path d="M0 0h24v24H0z"/><path d="M11.343 3.398a2.677 2.677 0 0 0-2.669 2.67 2.677 2.677 0 0 0 2.67 2.669 2.677 2.677 0 0 0 2.669-2.67 2.677 2.677 0 0 0-2.67-2.669zM6.338 5.4c-1.268 0-2.335 1.068-2.335 2.335 0 1.268 1.068 2.336 2.335 2.336.934 0 1.668-.534 2.069-1.268a4.008 4.008 0 0 1-1.068-2.736v-.401c-.267-.2-.601-.267-1.001-.267V5.4zm10.01 0c-.4 0-.734.067-1 .267v.4a4.005 4.005 0 0 1-1.069 2.736c.401.734 1.135 1.268 2.069 1.268 1.268 0 2.335-1.068 2.335-2.335s-1.068-2.335-2.335-2.335V5.4zm-5.005 4.671a4.016 4.016 0 0 0-4.004 4.004v1.335h3.404c.2-1.935 1.401-3.603 3.002-4.538-.667-.534-1.534-.8-2.402-.8zm-5.005 1.334c-2.002 0-3.67 1.668-3.67 3.67v.334h3.337v-1.335c0-.934.266-1.869.734-2.67h-.401v.001zm10.343 0a4.643 4.643 0 0 0-4.671 4.672 4.643 4.643 0 0 0 4.671 4.671 4.643 4.643 0 0 0 4.672-4.671 4.643 4.643 0 0 0-4.672-4.672zm2.002 2.67c.2 0 .334.066.468.2a.645.645 0 0 1 0 .934l-2.67 2.669a.606.606 0 0 1-.467.2.607.607 0 0 1-.467-.2l-1.335-1.335a.645.645 0 0 1 0-.934.645.645 0 0 1 .934 0l.867.868 2.202-2.202a.606.606 0 0 1 .468-.2z" fill="currentColor" fill-rule="nonzero"/></g></svg>