<svg viewBox="0 0 24 24" xmlns="http://www.w3.org/2000/svg"><path fill="none" d="M0 0h24v24H0z"/><path fill="currentColor" stroke="currentColor" stroke-width=".2" d="M17.998 15.493l.868.562a.213.213 0 0 1 .06.3 8.282 8.282 0 0 1-6.854 3.613c-4.437 0-8.072-3.495-8.298-7.876l-.627.692a.25.25 0 0 1-.354.017l-.737-.67a.25.25 0 0 1-.017-.353l2.23-2.455a.25.25 0 0 1 .352-.017l2.455 2.23a.25.25 0 0 1 .017.353l-.67.737a.25.25 0 0 1-.352.017l-.806-.732c.133 3.64 3.134 6.56 6.806 6.56a6.792 6.792 0 0 0 5.586-2.911.25.25 0 0 1 .341-.067zm2.771-6.31l-.563.779c-.786-3.77-4.135-6.612-8.134-6.612a8.27 8.27 0 0 0-6.408 3.018.146.146 0 0 0 .02.206l.002.001.968.772a.11.11 0 0 0 .155-.016 6.782 6.782 0 0 1 5.263-2.485c3.28 0 6.027 2.332 6.67 5.425l-.863-.624a.25.25 0 0 0-.35.056l-.583.807a.25.25 0 0 0 .056.349l2.687 1.943a.25.25 0 0 0 .35-.056l1.942-2.687a.25.25 0 0 0-.056-.35l-.807-.583a.25.25 0 0 0-.349.057z"/></svg>