<svg viewBox="0 0 24 24" xmlns="http://www.w3.org/2000/svg"><path d="M7.66666667,14 C7.85076158,14 8,14.1492384 8,14.3333333 L8,19.6666667 C8,19.8507616 7.85076158,20 7.66666667,20 L4.33333333,20 C4.14923842,20 4,19.8507616 4,19.6666667 L4,14.3333333 C4,14.1492384 4.14923842,14 4.33333333,14 L7.66666667,14 Z M13.6666667,10 C13.8507616,10 14,10.1492384 14,10.3333333 L14,19.6666667 C14,19.8507616 13.8507616,20 13.6666667,20 L10.3333333,20 C10.1492384,20 10,19.8507616 10,19.6666667 L10,10.3333333 C10,10.1492384 10.1492384,10 10.3333333,10 L13.6666667,10 Z M19.6666667,4 C19.8507616,4 20,4.14923842 20,4.33333333 L20,19.6666667 C20,19.8507616 19.8507616,20 19.6666667,20 L16.3333333,20 C16.1492384,20 16,19.8507616 16,19.6666667 L16,4.33333333 C16,4.14923842 16.1492384,4 16.3333333,4 L19.6666667,4 Z" fill="currentColor"></path></svg>