<svg viewBox="0 0 24 24" xmlns="http://www.w3.org/2000/svg"><g fill="none" fill-rule="evenodd"><path d="M0 0h24v24H0z"/><path d="M15.947 12.073a2.221 2.221 0 0 0 2.202-2.202 2.179 2.179 0 0 0-2.202-2.202c-1.268 0-2.202 1-2.202 2.202a2.222 2.222 0 0 0 2.202 2.202zm-6.539-.868c1.468 0 2.603-1.134 2.603-2.602S10.876 6 9.408 6C7.94 6 6.805 7.135 6.805 8.603c0 1.468 1.135 2.602 2.603 2.602zm6.54 2.603c-1.602 0-4.805.8-4.805 2.403v1.935h9.609v-1.935c0-1.602-3.203-2.403-4.805-2.403zm-6.54-.867c-2.002 0-6.073 1-6.073 3.07v2.202h6.073v-1.936c0-.734.267-2.068 2.069-3.002a6.59 6.59 0 0 0-2.069-.334z" fill="currentColor" fill-rule="nonzero"/></g></svg>