<svg viewBox="0 0 24 24" xmlns="http://www.w3.org/2000/svg"><g fill="none" fill-rule="evenodd"><path d="M0 0h24v24H0z"/><path d="M21.153 7.736l-2.202-2.47c-.334-.333-.868-.4-1.202-.066l-2.135 2.135 3.537 3.537 1.935-2.002c.333-.334.4-.867.067-1.135v.001zm-8.004 3.227l1.887-1.888L17.962 12l-1.887 1.888-2.926-2.925zm1.598-4.028l-2.47-2.268c-.334-.334-.867-.267-1.134 0L9.007 6.802l2.936 2.936 2.803-2.803zm-7.141.134l-4.738 4.738c-.667.667-.667 1.735 0 2.335l5.873 5.873c.667.667 1.735.667 2.335 0l4.738-4.738-8.208-8.208zm2.336 9.142L8.207 8.737l6.006 6.006s-1.936-.934-4.271 1.468z" fill="currentColor" fill-rule="nonzero"/></g></svg>