<svg viewBox="0 0 24 24" xmlns="http://www.w3.org/2000/svg"><path d="M15.3333333,6 C15.6903659,6 15.9818465,6.28066141 15.9991841,6.63339328 L16,6.66666667 L16,8 L16.7981496,8 C16.9151422,8 17.0298079,8.03078217 17.1307584,8.08889835 L17.1679497,8.11196647 L19.7031335,9.80208898 C19.8776895,9.91845966 19.9866377,10.1096907 19.9988512,10.3176208 L20,10.3567892 L20,15.3333333 C20,15.6903659 19.7193386,15.9818465 19.3666067,15.9991841 L19.3333333,16 L18,16 C18,17.1045695 17.1045695,18 16,18 C14.8954305,18 14,17.1045695 14,16 L10,16 C10,17.1045695 9.1045695,18 8,18 C6.8954305,18 6,17.1045695 6,16 L4.66666667,16 L4.63339328,15.9991841 C4.29203986,15.9824058 4.01818218,15.7088858 4.00086915,15.3676732 L4,15.3333333 L4,6.66666667 C4,6.3096341 4.28066141,6.01815352 4.63339328,6.00081588 L4.66666667,6 L15.3333333,6 Z M8,15 C7.44771525,15 7,15.4477153 7,16 C7,16.5522847 7.44771525,17 8,17 C8.55228475,17 9,16.5522847 9,16 C9,15.4477153 8.55228475,15 8,15 Z M16,15 C15.4477153,15 15,15.4477153 15,16 C15,16.5522847 15.4477153,17 16,17 C16.5522847,17 17,16.5522847 17,16 C17,15.4477153 16.5522847,15 16,15 Z M13.6666667,12 L6.33333333,12 C6.15760637,12 6.01363915,12.1359796 6.00091429,12.3084563 L6,12.3333333 L6,12.6666667 C6,12.8423936 6.13597963,12.9863609 6.30845628,12.9990857 L6.33333333,13 L13.6666667,13 C13.8423936,13 13.9863609,12.8640204 13.9990857,12.6915437 L14,12.6666667 L14,12.3333333 C14,12.1576064 13.8640204,12.0136391 13.6915437,12.0009143 L13.6666667,12 Z M16.8990748,9 L16.3333333,9 C16.1576064,9 16.0136391,9.13597963 16.0009143,9.30845628 L16,9.33333333 L16,11 C16,11.175727 16.1359796,11.3196942 16.3084563,11.332419 L16.3333333,11.3333333 L18.6666667,11.3333333 C18.8423936,11.3333333 18.9863609,11.1973537 18.9990857,11.0248771 L19,11 L19,10.5117279 C19,10.4095644 18.9531962,10.3135971 18.8739676,10.2506934 L18.8515667,10.2343778 L17.0839749,9.05598324 C17.0370413,9.02469418 16.9830693,9.00591297 16.9271646,9.00118546 L16.8990748,9 Z" fill="currentColor"></path></svg>