<svg viewBox="0 0 24 24" xmlns="http://www.w3.org/2000/svg"><path d="M12,4 C14.209139,4 16,5.790861 16,8 L17.9368496,8 C18.1128707,8 18.2585539,8.13686226 18.2695338,8.31254057 L19,19.6458739 C19.0114835,19.8296103 18.8497121,19.9878673 18.6659757,19.9993509 L18.6451829,20 L5.35481707,20 C5.17072216,20 5,19.8507616 5,19.6666667 L5.73046621,8.31254057 C5.74144611,8.13686226 5.88712931,8 6.06315041,8 L8,8 C8,5.790861 9.790861,4 12,4 Z M12,5 C10.3431458,5 9,6.34314575 9,8 L15,8 C15,6.34314575 13.6568542,5 12,5 Z" fill="currentColor"></path></svg>