<svg viewBox="0 0 24 24" xmlns="http://www.w3.org/2000/svg"><path d="M11.9829157,4.00045695 C11.8389846,4.00777947 11.7143379,4.10749522 11.6696959,4.25102868 L9.92705336,9.72781562 L4.34604229,9.72781562 C4.19633789,9.72832021 4.06380599,9.82930963 4.01724185,9.97836184 C3.97067772,10.127414 4.02057195,10.2909485 4.14102521,10.3840771 L8.67417238,13.8562974 L6.93153157,19.5239936 C6.88499477,19.6740839 6.93617113,19.8384876 7.05822154,19.9309841 C7.18027194,20.0234806 7.34533804,20.0229574 7.46685191,19.9296888 L12,16.4574703 L16.5331483,19.9296888 C16.6546622,20.0229574 16.8197283,20.0234806 16.9417787,19.9309841 C17.0638291,19.8384876 17.1150055,19.6740839 17.0684687,19.5239936 L15.3258261,13.8562974 L19.8589748,10.3840771 C19.9794281,10.2909485 20.0293223,10.127414 19.9827581,9.97836184 C19.936194,9.82930963 19.8036621,9.72832021 19.6539577,9.72781562 L14.0729469,9.72781562 L12.3303044,4.25102868 C12.2817684,4.09493698 12.1394254,3.99226483 11.9829157,4.00045695 L11.9829157,4.00045695 Z" fill="currentColor"></path></svg>