<svg viewBox="0 0 24 24" xmlns="http://www.w3.org/2000/svg"><path d="M8,6 L8,8.66666667 C8,8.84239363 8.13597963,8.98636085 8.30845628,8.99908571 L8.33333333,9 L15.6666667,9 C15.8423936,9 15.9863609,8.86402037 15.9990857,8.69154372 L16,8.66666667 L16,6 L18.6666667,6 C18.8507616,6 19,6.14923842 19,6.33333333 L19,19.6666667 C19,19.8507616 18.8507616,20 18.6666667,20 L5.33333333,20 C5.14923842,20 5,19.8507616 5,19.6666667 L5,6.33333333 C5,6.14923842 5.14923842,6 5.33333333,6 L8,6 Z M14.548168,10.7437391 L14.5275162,10.7629412 L10.6617771,14.6772054 L9.47232827,13.4727379 C9.35221621,13.3511092 9.16140389,13.3447077 9.03384971,13.4535333 L9.01319937,13.4727379 L8.09494157,14.4025902 C7.97508796,14.5243336 7.96870112,14.7174238 8.07583805,14.8467705 L8.09474536,14.8677149 L10.4301691,17.2370688 L10.4508194,17.2562733 C10.5712868,17.3590526 10.7481706,17.3590437 10.868481,17.2561045 L10.889102,17.2368703 L15.9049113,12.1577281 C16.0250233,12.0360995 16.031345,11.8428778 15.9238764,11.713713 L15.9049113,11.692802 L14.9866535,10.7629497 C14.8665366,10.6413322 14.6757298,10.6349278 14.548168,10.7437391 Z M12,4 C12.7402783,4 13.3866191,4.4021942 13.7324299,5 L14.6666667,5 C14.8507616,5 15,5.14923842 15,5.33333333 L15,7.66666667 C15,7.84239363 14.8640204,7.98636085 14.6915437,7.99908571 L14.6666667,8 L9.33333333,8 C9.15760637,8 9.01363915,7.86402037 9.00091429,7.69154372 L9,5.33333333 C9,5.14923842 9.14923842,5 9.33333333,5 L10.2675701,5 C10.6133809,4.4021942 11.2597217,4 12,4 Z M12,5 C11.4477153,5 11,5.44771525 11,6 C11,6.55228475 11.4477153,7 12,7 C12.5522847,7 13,6.55228475 13,6 C13,5.44771525 12.5522847,5 12,5 Z" fill="currentColor"></path></svg>