<svg viewBox="0 0 24 24" xmlns="http://www.w3.org/2000/svg"><path d="M8.02135382,12.9963627 L9.91470489,14.8518991 C10.0392692,14.9739691 10.0477407,15.1698075 9.93872872,15.3018812 L9.91470489,15.3280466 L8.81581116,16.4049365 C8.68620317,16.5319492 8.47880583,16.5319492 8.34919785,16.4049365 L4.10002679,12.2408493 C4.03774465,12.1798143 4.00448569,12.1003372 4.00042377,12.0196096 L4.00042377,12.0142546 C3.99591052,11.9245573 4.02744299,11.8333162 4.09525968,11.7641138 L8.34919785,7.59525957 C8.47880583,7.46824681 8.68620317,7.46824681 8.81581116,7.59525957 L9.91470489,8.67214944 C10.0461894,8.80100115 10.0483237,9.01204535 9.919472,9.14352986 L8.02152048,11.0040294 L15.9778333,11.0038333 L14.0844823,9.14829697 C13.959918,9.02622693 13.9514464,8.83038856 14.0604584,8.69831484 L14.0844823,8.67214944 L15.183376,7.59525957 C15.312984,7.46824681 15.5203813,7.46824681 15.6499893,7.59525957 L19.8991604,11.7593467 C19.9614425,11.8203817 19.9947015,11.8998588 19.9987634,11.9805864 L19.9987634,11.9859415 C20.0032766,12.0756388 19.9717442,12.1668798 19.9039275,12.2360822 L15.6499893,16.4049365 C15.5203813,16.5319492 15.312984,16.5319492 15.183376,16.4049365 L14.0844823,15.3280466 C13.9529978,15.1991949 13.9508634,14.9881507 14.0797152,14.8566662 L15.9776667,12.9961667 L8.02135382,12.9963627 Z" fill="currentColor"></path></svg>