<svg viewBox="0 0 24 24" fill="none" xmlns="http://www.w3.org/2000/svg"><path fill-rule="evenodd" clip-rule="evenodd" d="M3 6H13V8H18L21 12V16H19.2324C19.4026 16.2942 19.5 16.6357 19.5 17C19.5 18.1046 18.6046 19 17.5 19C16.3954 19 15.5 18.1046 15.5 17C15.5 16.6357 15.5974 16.2942 15.7676 16H13H7.73244C7.90261 16.2942 8 16.6357 8 17C8 18.1046 7.10457 19 6 19C4.89543 19 4 18.1046 4 17C4 16.6357 4.09739 16.2942 4.26756 16H3V6ZM6 16C6.55228 16 7 16.4477 7 17C7 17.5523 6.55228 18 6 18C5.44772 18 5 17.5523 5 17C5 16.4477 5.44772 16 6 16ZM17.5 16C18.0523 16 18.5 16.4477 18.5 17C18.5 17.5523 18.0523 18 17.5 18C16.9477 18 16.5 17.5523 16.5 17C16.5 16.4477 16.9477 16 17.5 16ZM17 9L19 12H15V9H17Z" fill="currentColor"/></svg>
