<svg viewBox="0 0 24 24" xmlns="http://www.w3.org/2000/svg"><path d="M20,7.033854 C19.401042,7.29947933 18.7994793,7.5 18.1328127,7.56770867 C18.7994793,7.16666667 19.3333333,6.5 19.5989587,5.76562533 C18.932292,6.16666667 18.2656253,6.432292 17.533854,6.56770867 C16.8671873,5.901042 16,5.5 15.0677087,5.5 C13.2656253,5.5 11.7994793,6.966146 11.7994793,8.76562533 C11.7994793,9.033854 11.7994793,9.29947933 11.8671873,9.5 C9.13281267,9.36718733 6.73437533,8.09895867 5.13281267,6.09895867 C4.79947933,6.56770867 4.66666667,7.16666667 4.66666667,7.76562533 C4.66666667,8.901042 5.26562533,9.901042 6.13281267,10.5 C5.59895867,10.432292 5.06770867,10.2994793 4.66666667,10.0989587 C4.66666667,10.0989587 4.66666667,10.0989587 4.66666667,10.1666667 C4.66666667,11.7656253 5.79947933,13.0989587 7.26562533,13.3671873 C7,13.432292 6.73437533,13.5 6.401042,13.5 C6.20052067,13.5 6,13.5 5.79947933,13.432292 C6.20052067,14.7656253 7.401042,15.7005207 8.86718733,15.7005207 C7.73437533,16.5677087 6.33333333,17.0989587 4.79947933,17.0989587 C4.533854,17.0989587 4.26562533,17.0989587 4,17.033854 C5.466146,17.966146 7.20052067,18.5 9,18.5 C15.0677087,18.5 18.3333333,13.5 18.3333333,9.16666667 C18.3333333,9.033854 18.3333333,8.901042 18.3333333,8.76562533 C19,8.29947933 19.533854,7.70052067 20,7.033854" fill="currentColor"></path></svg>