<svg viewBox="0 0 24 24" xmlns="http://www.w3.org/2000/svg"><path d="M10.7151414,11.2021981 L6.27231039,15.6448934 C5.69716209,16.2200417 5.69716209,17.1525413 6.27231039,17.7276896 C6.84745868,18.3028379 7.77995831,18.3028379 8.35510661,17.7276896 L12.7978903,13.2851219 C13.1798583,14.4219799 12.9281138,15.7249142 12.0426568,16.6428598 L12,16.6862915 L9.65685425,19.0294373 C8.36277058,20.3235209 6.26464641,20.3235209 4.97056275,19.0294373 C3.67647908,17.7353536 3.67647908,15.6372294 4.97056275,14.3431458 L7.3137085,12 C8.23373814,11.0799704 9.56017073,10.8140364 10.7151414,11.2021981 Z M15.5403322,14.1620037 L19.3109764,17.9326479 C19.4411512,18.0628227 19.4420064,18.2730225 19.3128865,18.4021423 L18.398809,19.3162199 C18.2696891,19.4453397 18.0594893,19.4444845 17.9293146,19.3143098 L14.1586704,15.5436655 C14.0284956,15.4134908 14.0276404,15.203291 14.1567602,15.0741711 L15.0708378,14.1600936 C15.1999576,14.0309737 15.4101574,14.0318289 15.5403322,14.1620037 Z M14.0448477,16.127656 L14.6675479,18.362295 C14.7166776,18.5386032 14.6144628,18.7180587 14.4392447,18.7631202 L14.1219843,18.8447112 C13.9467662,18.8897727 13.7648964,18.7833763 13.7157667,18.6070681 L13.0930665,16.372429 C13.0439368,16.1961209 13.1461516,16.0166653 13.3213697,15.9716039 L13.6386301,15.8900128 C13.8138482,15.8449514 13.995718,15.9513478 14.0448477,16.127656 Z M16.3690957,13.0963998 L18.6037348,13.7191001 C18.7800429,13.7682298 18.8864394,13.9500996 18.8413779,14.1253177 L18.7597869,14.442578 C18.7147254,14.6177961 18.5352699,14.720011 18.3589617,14.6708813 L16.1243226,14.048181 C15.9480145,13.9990513 15.841618,13.8171815 15.8866795,13.6419634 L15.9682705,13.3247031 C16.013332,13.149485 16.1927876,13.0472701 16.3690957,13.0963998 Z M19.0294373,4.97056275 C20.3091422,6.25026771 20.3233612,8.31624487 19.0720941,9.61342254 L19.0294373,9.65685425 L16.6862915,12 C15.7663138,12.9199777 14.4399789,13.1859336 13.2850541,12.7978676 L17.7160259,8.36687581 L17.7471103,8.33533346 C18.3034166,7.75861556 18.2956309,6.84025169 17.7276896,6.27231039 C17.1525413,5.69716209 16.2200417,5.69716209 15.6448934,6.27231039 L11.2021981,10.7151414 C10.8140364,9.56017073 11.0799704,8.23373814 12,7.3137085 L14.3431458,4.97056275 C15.6372294,3.67647908 17.7353536,3.67647908 19.0294373,4.97056275 Z M5.63842644,9.32984022 L7.87306551,9.95254047 C8.04937367,10.0016702 8.15577012,10.18354 8.11070864,10.358758 L8.02911762,10.6760184 C7.98405614,10.8512365 7.8046006,10.9534513 7.62829244,10.9043217 L5.39365338,10.2816214 C5.21734522,10.2324917 5.11094877,10.0506219 5.15601025,9.87540384 L5.23760127,9.55814344 C5.28266275,9.38292536 5.46211829,9.28071053 5.63842644,9.32984022 Z M6.06807359,4.68641174 L9.8387178,8.45705595 C9.96889257,8.58723072 9.96974775,8.79743052 9.84062792,8.92655036 L8.92655036,9.84062792 C8.79743052,9.96974775 8.58723072,9.96889257 8.45705595,9.8387178 L4.68641174,6.06807359 C4.55623697,5.93789882 4.55538179,5.72769902 4.68450162,5.59857918 L5.59857918,4.68450162 C5.72769902,4.55538179 5.93789882,4.55623697 6.06807359,4.68641174 Z M10.2816214,5.39365338 L10.9043217,7.62829244 C10.9534513,7.8046006 10.8512365,7.98405614 10.6760184,8.02911762 L10.358758,8.11070864 C10.18354,8.15577012 10.0016702,8.04937367 9.95254047,7.87306551 L9.32984022,5.63842644 C9.28071053,5.46211829 9.38292536,5.28266275 9.55814344,5.23760127 L9.87540384,5.15601025 C10.0506219,5.11094877 10.2324917,5.21734522 10.2816214,5.39365338 Z" fill="currentColor"></path></svg>